STARTFONT 2.1
COMMENT
COMMENT Converted from OpenType font "uvnbaisau_regular.ttf" by "otf2bdf 3.0".
COMMENT
FONT -FreeType-UVN Bai Sau-Bold-R-Normal--50-360-100-100-P-247-ISO10646-1
SIZE 36 100 100
FONTBOUNDINGBOX 70 69 -8 -13
STARTPROPERTIES 19
FOUNDRY "FreeType"
FAMILY_NAME "UVN Bai Sau"
WEIGHT_NAME "Bold"
SLANT "R"
SETWIDTH_NAME "Normal"
ADD_STYLE_NAME ""
PIXEL_SIZE 50
POINT_SIZE 360
RESOLUTION_X 100
RESOLUTION_Y 100
SPACING "P"
AVERAGE_WIDTH 247
CHARSET_REGISTRY "ISO10646"
CHARSET_ENCODING "1"
FONT_ASCENT 56
FONT_DESCENT 13
COPYRIGHT "(c) Copyright 2001 by Tom Truong. All Rights Reserved"
_OTF_FONTFILE "uvnbaisau_regular.ttf"
_OTF_PSNAME "UVNBaiSauBold"
ENDPROPERTIES
CHARS 383
STARTCHAR 0020
ENCODING 32
SWIDTH 280 0
DWIDTH 14 0
BBX 0 0 0 0
BITMAP
ENDCHAR
STARTCHAR 0021
ENCODING 33
SWIDTH 320 0
DWIDTH 16 0
BBX 10 36 3 -1
BITMAP
7FC0
7FC0
7FC0
7FC0
7FC0
7FC0
7FC0
7FC0
7FC0
7FC0
7FC0
7FC0
7F80
7F80
7F80
7F80
7F80
7F80
7F80
7F80
7F80
7F80
7F80
7F80
0000
0000
3F00
7F80
7FC0
FFC0
FFC0
FFC0
7FC0
7F80
3F00
0E00
ENDCHAR
STARTCHAR 0022
ENCODING 34
SWIDTH 340 0
DWIDTH 17 0
BBX 14 14 2 21
BITMAP
F8FC
F8FC
F8FC
F8FC
F8FC
F8FC
F8FC
F8FC
F8FC
F8FC
F8FC
F8FC
F8FC
F8FC
ENDCHAR
STARTCHAR 0023
ENCODING 35
SWIDTH 760 0
DWIDTH 38 0
BBX 37 36 1 0
BITMAP
0000FC1FC0
0001F81F80
0001F81F80
0001F83F80
0003F03F00
0003F03F00
0007F07E00
0007E07E00
0007E07E00
000FE0FC00
07FFFFFFF8
07FFFFFFF0
0FFFFFFFF0
0FFFFFFFF0
0FFFFFFFE0
003F03F000
003F03F000
003F03F000
007E07E000
007E07E000
00FE0FE000
7FFFFFFF80
7FFFFFFF80
7FFFFFFF00
FFFFFFFF00
FFFFFFFE00
FFFFFFFE00
03F03F0000
03F07F0000
07E07E0000
07E07E0000
07E0FE0000
0FC0FC0000
0FC0FC0000
1FC1FC0000
1F81F80000
ENDCHAR
STARTCHAR 0024
ENCODING 36
SWIDTH 560 0
DWIDTH 28 0
BBX 20 40 5 -2
BITMAP
01F000
01F000
01F000
01F000
01F000
0FFFC0
1FFFC0
3FFFC0
7FFFC0
7FFFC0
FFFFC0
FF8000
FF0000
FF8000
7FC000
7FE000
3FF800
3FFC00
1FFF00
0FFF80
03FFC0
01FFC0
00FFE0
003FE0
001FE0
001FF0
001FF0
FFFFE0
FFFFE0
FFFFE0
FFFFC0
FFFFC0
FFFF00
FFFE00
01F000
01F000
01F000
01F000
01F000
01F000
ENDCHAR
STARTCHAR 0025
ENCODING 37
SWIDTH 860 0
DWIDTH 43 0
BBX 40 35 2 0
BITMAP
03F0000F80
0FFC001F80
1FFE001F00
3FFF003E00
7FFF807E00
FFFF807C00
FC1F80F800
FC0FC1F800
F80FC1F000
F80FC3F000
FC0FC3E000
FC1F87C000
FF3F8FC000
7FFF8F8000
7FFF1F0000
3FFE3F0000
0FFC3E0000
07F07E0FC0
00007C3FF0
0000F87FF8
0001F8FFFC
0001F1FFFE
0003E1FFFE
0007E3F03F
0007C3F03F
000FC3E01F
000F83E01F
001F03F03F
003F03F03F
003E01FCFE
007C01FFFE
00FC00FFFC
00F8007FF8
01F8003FF0
01F0000FC0
ENDCHAR
STARTCHAR 0026
ENCODING 38
SWIDTH 760 0
DWIDTH 38 0
BBX 36 36 2 -1
BITMAP
01FFFF8000
07FFFF8000
0FFFFF8000
0FFFFF8000
0FFFFF8000
0FFFFF8000
0FFFFF8000
0FFC000000
07FE000000
03FF000C00
03FF801E00
07FF807E00
0FFFC0FF00
1FFFE1FF00
3FFFF0FF80
3FFFF8FF80
7FFFF87F80
7FEFFC7F80
7FC7FE7F80
FFC3FF7F80
FF83FFFF80
FF81FFFF80
FF80FFFF80
7F807FFF80
7FC03FFF00
7FE03FFF00
7FF01FFE00
3FFE3FFE00
3FFFFFFE00
1FFFFFFF00
0FFFFFFF00
07FFFFFF80
03FFFFFFC0
00FFFFFFE0
003FFC7FF0
0001800000
ENDCHAR
STARTCHAR 0027
ENCODING 39
SWIDTH 180 0
DWIDTH 9 0
BBX 5 14 2 21
BITMAP
F8
F8
F8
F8
F8
F8
F8
F8
F8
F8
F8
F8
F8
F8
ENDCHAR
STARTCHAR 0028
ENCODING 40
SWIDTH 380 0
DWIDTH 19 0
BBX 15 47 4 -12
BITMAP
0020
0070
00F8
01FC
01FE
03F8
07F0
0FF0
0FE0
1FC0
1F80
3F80
3F00
7F00
7F00
7E00
7E00
FE00
FC00
FC00
FC00
FC00
FC00
FC00
FC00
FC00
FC00
FC00
FC00
FE00
FE00
7E00
7E00
7F00
7F00
3F80
3F80
1FC0
1FE0
0FE0
0FF0
07F8
03FC
01FE
00FC
00F8
0070
ENDCHAR
STARTCHAR 0029
ENCODING 41
SWIDTH 380 0
DWIDTH 19 0
BBX 15 46 1 -11
BITMAP
1800
3C00
7E00
FF00
7F80
3FC0
1FC0
1FE0
0FF0
07F0
07F8
03F8
03F8
01FC
01FC
00FC
00FC
00FE
00FE
007E
007E
007E
007E
007E
007E
007E
007E
007E
00FE
00FC
00FC
00FC
01FC
01F8
03F8
03F8
07F0
07F0
0FE0
1FE0
3FC0
7F80
FF00
7E00
3C00
1800
ENDCHAR
STARTCHAR 002A
ENCODING 42
SWIDTH 480 0
DWIDTH 24 0
BBX 19 18 3 17
BITMAP
03F000
01F000
11F300
39E780
7CEF80
7EEFC0
FFDFC0
3FFF00
03F000
0FFE00
FFFFE0
7EFFC0
7CEF80
39E780
39F300
11F100
03F000
03F000
ENDCHAR
STARTCHAR 002B
ENCODING 43
SWIDTH 820 0
DWIDTH 41 0
BBX 29 30 6 0
BITMAP
000FC000
000FC000
000FC000
000FC000
000FC000
000FC000
000FC000
000FC000
000FC000
000FC000
000FC000
000FC000
FFFFFFF8
FFFFFFF8
FFFFFFF8
FFFFFFF8
FFFFFFF8
FFFFFFF8
000FC000
000FC000
000FC000
000FC000
000FC000
000FC000
000FC000
000FC000
000FC000
000FC000
000FC000
000FC000
ENDCHAR
STARTCHAR 002C
ENCODING 44
SWIDTH 280 0
DWIDTH 14 0
BBX 11 15 1 -7
BITMAP
1FE0
3FE0
3FC0
3FC0
3FC0
3F80
7F80
7F80
7F00
7F00
7F00
7E00
FE00
FE00
FC00
ENDCHAR
STARTCHAR 002D
ENCODING 45
SWIDTH 320 0
DWIDTH 16 0
BBX 13 7 2 9
BITMAP
FFF8
FFF8
FFF8
FFF8
FFF8
FFF8
FFF8
ENDCHAR
STARTCHAR 002E
ENCODING 46
SWIDTH 280 0
DWIDTH 14 0
BBX 10 10 2 -1
BITMAP
3F00
7F80
FFC0
FFC0
FFC0
FFC0
FFC0
7F80
3F00
0C00
ENDCHAR
STARTCHAR 002F
ENCODING 47
SWIDTH 260 0
DWIDTH 13 0
BBX 17 41 -2 -5
BITMAP
000780
000780
000F80
000F80
000F00
001F00
001F00
001E00
003E00
003E00
003C00
007C00
007C00
007800
007800
00F800
00F000
00F000
01F000
01E000
01E000
03E000
03C000
03C000
07C000
07C000
078000
0F8000
0F8000
0F0000
1F0000
1F0000
1E0000
3E0000
3E0000
3C0000
3C0000
7C0000
780000
780000
F80000
ENDCHAR
STARTCHAR 0030
ENCODING 48
SWIDTH 560 0
DWIDTH 28 0
BBX 25 37 2 -1
BITMAP
00080000
01FFC000
07FFE000
1FFFF800
3FFFFC00
3FFFFE00
7FFFFE00
FFFFFF00
FFC3FF00
FF81FF00
FF00FF80
FF00FF80
FF00FF80
FF00FF80
FF00FF80
FF00FF80
FF00FF80
FF00FF80
FF00FF80
FF00FF80
FF00FF80
FF00FF80
FF00FF80
FF00FF80
FF00FF80
FF00FF80
FF00FF80
FF81FF00
FFE3FF00
FFFFFF00
7FFFFE00
3FFFFE00
3FFFFC00
1FFFF800
07FFE000
03FFC000
00180000
ENDCHAR
STARTCHAR 0031
ENCODING 49
SWIDTH 560 0
DWIDTH 28 0
BBX 13 35 7 0
BITMAP
FFF8
FFF8
FFF8
FFF8
FFF8
FFF8
FFF8
FFF8
07F8
07F8
07F8
07F8
07F8
07F8
07F8
07F8
07F8
07F8
07F8
07F8
07F8
07F8
07F8
07F8
07F8
07F8
07F8
07F8
07F8
07F8
07F8
07F8
07F8
07F8
07F8
ENDCHAR
STARTCHAR 0032
ENCODING 50
SWIDTH 560 0
DWIDTH 28 0
BBX 24 36 2 0
BITMAP
001800
01FF80
07FFE0
0FFFF0
1FFFF8
3FFFFC
7FFFFC
7FFFFE
7FC7FE
7F81FE
FF81FE
FF81FE
FF81FE
7F83FE
7FC7FE
7FCFFC
3F8FFC
3F1FF8
1E3FF8
0C7FF0
00FFE0
01FFC0
03FF80
07FF00
0FFE00
1FFC00
3FF800
7FF000
7FFFFF
7FFFFF
FFFFFF
FFFFFF
FFFFFF
7FFFFF
7FFFFF
3FFFFF
ENDCHAR
STARTCHAR 0033
ENCODING 51
SWIDTH 560 0
DWIDTH 28 0
BBX 24 35 2 0
BITMAP
7FFFC0
7FFFF0
7FFFFC
7FFFFC
7FFFFC
7FFFFE
7FFFFC
7FFFFC
000FFC
001FF8
003FF0
007FE0
00FFC0
01FF80
03FF80
07FFF0
07FFF8
07FFFC
07FFFE
07FFFE
0003FF
0001FF
0000FF
0000FF
0000FF
0001FF
0003FF
FFFFFE
FFFFFE
FFFFFE
FFFFFC
FFFFF8
FFFFF0
FFFFE0
FFFF80
ENDCHAR
STARTCHAR 0034
ENCODING 52
SWIDTH 560 0
DWIDTH 28 0
BBX 26 35 1 1
BITMAP
001FE400
001FE400
003FCC00
003FCC00
007F9C00
00FF9C00
00FF3C00
01FE7C00
01FE7C00
03FCFC00
03FCFC00
07F9FC00
07F9FC00
0FF1FC00
1FE1FC00
1FE1FC00
3FC1FC00
3FC1FC00
7F81FC00
7F81FC00
FFFFFFC0
FFFFFFC0
FFFFFFC0
FFFFFFC0
7FFFFFC0
7FFFFFC0
3FFFFFC0
0FFFFFC0
0001FC00
0001FC00
0001FC00
0001FC00
0001FC00
0001FC00
0001FC00
ENDCHAR
STARTCHAR 0035
ENCODING 53
SWIDTH 560 0
DWIDTH 28 0
BBX 23 35 3 0
BITMAP
FFFFF0
FFFFF0
FFFFF0
FFFFF0
FFFFF0
FFFFF0
FFFFF0
FFFFF0
FF8000
FF8000
FF8000
FFF800
FFFF80
FFFFE0
FFFFF0
FFFFF8
FFFFF8
FFFFFC
FFFFFC
000FFC
0003FE
0003FE
0001FE
0001FE
0003FE
0003FE
000FFE
FFFFFC
FFFFFC
FFFFFC
FFFFF8
FFFFF0
FFFFE0
FFFF80
FFFE00
ENDCHAR
STARTCHAR 0036
ENCODING 54
SWIDTH 560 0
DWIDTH 28 0
BBX 25 36 2 -1
BITMAP
003FF000
003FE000
007FC000
00FFC000
00FF8000
01FF8000
01FF0000
03FF0000
03FE0000
07FE0000
07FC0000
0FF80000
1FF9E000
1FF3F800
3FF3FC00
3FE7FE00
7FE7FF00
7FCFFF00
7FCFFF00
FF81FF80
FF00FF80
FF00FF80
FF00FF80
FF00FF80
FF00FF80
FF81FF80
FF81FF00
FFFFFF00
7FFFFF00
7FFFFE00
3FFFFC00
1FFFFC00
0FFFF800
07FFE000
01FFC000
00380000
ENDCHAR
STARTCHAR 0037
ENCODING 55
SWIDTH 560 0
DWIDTH 28 0
BBX 24 35 2 0
BITMAP
FFFFF0
FFFFFC
FFFFFE
FFFFFE
FFFFFE
FFFFFF
FFFFFF
FFFFFE
0003FE
0003FE
0003FC
0007FC
0007FC
0007F8
000FF8
000FF8
1FFFFE
1FFFFE
1FFFFE
1FFFFE
1FFFFE
003FE0
003FE0
007FC0
007FC0
007FC0
00FF80
00FF80
00FF80
01FF00
01FF00
01FF00
03FF00
03FE00
03FE00
ENDCHAR
STARTCHAR 0038
ENCODING 56
SWIDTH 560 0
DWIDTH 28 0
BBX 26 37 1 -1
BITMAP
000C0000
00FFE000
03FFF000
07FFFC00
0FFFFE00
1FFFFE00
3FFFFF00
3FE1FF00
3FC0FF00
3FC07F00
3F807F00
3FC07F00
3FC0FF00
1FE1FE00
1FFFFE00
0FFFFC00
07FFF800
07FFFC00
1FFFFE00
3FFFFF00
3FE1FF80
7FC0FF80
7F807F80
7F803FC0
FF803FC0
FF803FC0
FF807FC0
7FC0FFC0
7FE1FF80
7FFFFF80
3FFFFF80
3FFFFF00
1FFFFE00
0FFFFC00
07FFF800
01FFE000
001E0000
ENDCHAR
STARTCHAR 0039
ENCODING 57
SWIDTH 560 0
DWIDTH 28 0
BBX 26 36 1 0
BITMAP
000E0000
00FFE000
03FFF000
07FFFC00
0FFFFE00
1FFFFE00
3FFFFF00
3FFFFF80
7FFFFF80
7FE0FF80
7FC07FC0
FF807FC0
FF807FC0
FF807FC0
FF807F80
FFC07F80
7FC0FF80
7FFCFF80
7FF9FF00
3FF1FF00
3FF3FE00
1FE3FE00
0FE7FC00
03CFFC00
004FF800
001FF800
001FF000
003FF000
003FE000
007FC000
00FFC000
00FF8000
01FF8000
01FF0000
03FF0000
03FE0000
ENDCHAR
STARTCHAR 003A
ENCODING 58
SWIDTH 300 0
DWIDTH 15 0
BBX 10 25 3 -1
BITMAP
3E00
7F80
FF80
FFC0
FFC0
FFC0
FF80
7F80
7F00
1C00
0000
0000
0000
0000
0000
3F00
7F80
FF80
FFC0
FFC0
FFC0
FF80
7F80
3F00
0C00
ENDCHAR
STARTCHAR 003B
ENCODING 59
SWIDTH 300 0
DWIDTH 15 0
BBX 12 31 1 -7
BITMAP
0FC0
1FE0
1FF0
3FF0
3FF0
3FF0
3FF0
1FE0
0FC0
0300
0000
0000
0000
0000
0000
0000
1FE0
1FE0
3FE0
3FC0
3FC0
3FC0
3F80
3F80
7F80
7F00
7F00
7E00
7E00
FE00
FC00
ENDCHAR
STARTCHAR 003C
ENCODING 60
SWIDTH 820 0
DWIDTH 41 0
BBX 29 29 6 1
BITMAP
00000038
000000F8
000003F8
00001FF8
00007FF8
0003FFF8
000FFFE0
003FFF00
01FFFC00
07FFF000
3FFF8000
FFFE0000
FFF00000
FFC00000
FF800000
FFF00000
FFFC0000
3FFF8000
0FFFE000
01FFFC00
007FFF00
001FFFE0
0003FFF8
0000FFF8
00001FF8
000007F8
000000F8
00000038
00000008
ENDCHAR
STARTCHAR 003D
ENCODING 61
SWIDTH 820 0
DWIDTH 41 0
BBX 29 16 6 7
BITMAP
FFFFFFF8
FFFFFFF8
FFFFFFF8
FFFFFFF8
FFFFFFF8
00000000
00000000
00000000
00000000
00000000
00000000
FFFFFFF8
FFFFFFF8
FFFFFFF8
FFFFFFF8
FFFFFFF8
ENDCHAR
STARTCHAR 003E
ENCODING 62
SWIDTH 820 0
DWIDTH 41 0
BBX 29 30 6 0
BITMAP
80000000
E0000000
FC000000
FF000000
FFE00000
FFF80000
FFFE0000
1FFFC000
07FFF000
00FFFE00
003FFF80
000FFFE0
0001FFF8
00007FF8
00000FF8
00000FF8
00003FF8
0001FFF8
0007FFF0
001FFF80
00FFFE00
03FFF800
1FFFC000
7FFF0000
FFF80000
FFE00000
FF000000
FC000000
F0000000
80000000
ENDCHAR
STARTCHAR 003F
ENCODING 63
SWIDTH 500 0
DWIDTH 25 0
BBX 23 37 1 -1
BITMAP
003800
03FF80
0FFFE0
1FFFF0
3FFFF8
3FFFFC
7FFFFC
7FFFFE
FFC7FE
FF83FE
1F03FE
0101FE
0003FE
0003FE
000FFE
01FFFE
01FFFC
01FFFC
01FFF8
01FFF0
01FFC0
01FF00
01FE00
01FE00
01FE00
000000
000000
007C00
01FE00
01FF00
03FF00
03FF00
03FF00
01FF00
01FF00
00FE00
001000
ENDCHAR
STARTCHAR 0040
ENCODING 64
SWIDTH 1000 0
DWIDTH 50 0
BBX 46 44 2 -8
BITMAP
00003FFF0000
0001FFFFE000
0007FFFFF800
001FFFFFFE00
007FF807FF00
00FF80007F80
01FE00001FC0
03F800000FE0
07F0000007F0
0FE0000003F0
0FC0000001F8
1F800F8000F8
1F003FE3E0F8
3F00FFF7E0FC
3E01FFFFC07C
7E03FC7FC07C
7C07F03FC07C
7C07E01FC07C
FC0FE01F807C
F80FC01F807C
F80FC01F807C
F81F801F80FC
F81F803F00F8
F81F803F00F8
F81F803F01F8
F81F803F01F0
F81F807E03F0
FC1F80FE07E0
7C1FC1FE1FC0
7C0FFFFFFF80
7E0FFFFFFF00
3E07FF9FFE00
3F01FE0FF800
1F8000008000
1FC000000000
0FE000000400
07F000001E00
03FC00007F00
01FF8003FF00
00FFFFFFFC00
003FFFFFF000
000FFFFFC000
0003FFFF0000
00000FC00000
ENDCHAR
STARTCHAR 0041
ENCODING 65
SWIDTH 620 0
DWIDTH 31 0
BBX 27 36 2 0
BITMAP
00040000
00FFE000
03FFF800
07FFFC00
0FFFFE00
1FFFFF00
3FFFFF80
3FFFFF80
7FFFFFC0
7FE0FFC0
7FC07FC0
7FC03FE0
FF803FE0
FF803FE0
FF803FE0
FFBFFFE0
FFBFFFE0
FFBFFFE0
FFBFFFE0
FFBFFFE0
FFBFFFE0
FFBFFFE0
FFBFFFE0
FF803FE0
FF803FE0
FF803FE0
FF803FE0
FF803FE0
FF803FE0
FF803FE0
FF803FE0
FF803FE0
FF803FE0
FF803FE0
FF803FE0
FF803FE0
ENDCHAR
STARTCHAR 0042
ENCODING 66
SWIDTH 580 0
DWIDTH 29 0
BBX 26 36 2 0
BITMAP
000E0000
01FFC000
07FFF000
0FFFF800
1FFFFC00
3FFFFE00
3FFFFF00
7FFFFF00
7FE3FF00
7FC1FF80
FF80FF80
FF80FF80
FF80FF00
FF81FF00
FF8FFF00
FFBFFE00
FFBFFC00
FFBFF800
FFBFFE00
FFBFFF00
FFBFFF80
FFBFFF80
FF80FFC0
FF807FC0
FF807FC0
FF807FC0
FF807FC0
FF80FFC0
FFBFFFC0
FFBFFFC0
FFBFFF80
FFBFFF80
FFBFFF00
FFBFFE00
FFBFF800
FFBFC000
ENDCHAR
STARTCHAR 0043
ENCODING 67
SWIDTH 500 0
DWIDTH 25 0
BBX 23 35 1 0
BITMAP
0000FE
000FFE
007FFE
00FFFE
03FFFE
07FFFE
0FFFFE
1FFFFE
1FFFC0
3FFC00
3FF000
7FE000
7FE000
7FC000
7FC000
FFC000
FF8000
FF8000
FF8000
FF8000
7FC000
7FC000
7FE000
7FE000
3FF000
3FFC00
1FFF80
1FFFFE
0FFFFE
07FFFE
03FFFE
00FFFE
007FFE
001FFE
0001FE
ENDCHAR
STARTCHAR 0044
ENCODING 68
SWIDTH 640 0
DWIDTH 32 0
BBX 28 35 3 0
BITMAP
FFF80000
FFFF8000
FFFFE000
FFFFF800
FFFFFC00
FFFFFE00
FFFFFF00
FFFFFF00
FF1FFF80
FF03FFC0
FF00FFC0
FF007FE0
FF007FE0
FF003FE0
FF003FF0
FF001FF0
FF001FF0
FF001FF0
FF001FF0
FF001FF0
FF003FF0
FF003FE0
FF007FE0
FF007FE0
FF00FFC0
FF03FFC0
FF1FFF80
FF3FFF80
FF3FFF00
FF3FFE00
FF3FFC00
FF3FF800
FF3FE000
FF3F8000
FF3C0000
ENDCHAR
STARTCHAR 0045
ENCODING 69
SWIDTH 520 0
DWIDTH 26 0
BBX 23 35 1 0
BITMAP
0000FE
000FFE
007FFE
00FFFE
03FFFE
07FFFE
0FFFFE
1FFFFE
1FFF00
3FFC00
3FF000
7FE000
7FE000
7FFFFE
7FFFFE
FFFFFE
FFFFFE
FFFFFE
FFFFFE
FFFFFE
7FFFFE
7FC000
7FC000
7FE000
3FF000
3FF800
1FFF00
1FFFFE
0FFFFE
07FFFE
03FFFE
00FFFE
007FFE
001FFE
0001FE
ENDCHAR
STARTCHAR 0046
ENCODING 70
SWIDTH 440 0
DWIDTH 22 0
BBX 19 35 2 0
BITMAP
00FFE0
07FFE0
0FFFE0
1FFFE0
3FFFE0
3FFFE0
7FFFE0
7FFFE0
7FE000
FFC000
FF8000
FF8000
FF8000
FF8000
FFFFE0
FFFFE0
FFFFE0
FFFFE0
FFFFE0
FFFFE0
FFFFE0
FFFFE0
FF8000
FF8000
FF8000
FF8000
FF8000
FF8000
FF8000
FF8000
FF8000
FF8000
FF8000
FF8000
FF8000
ENDCHAR
STARTCHAR 0047
ENCODING 71
SWIDTH 760 0
DWIDTH 38 0
BBX 36 37 1 -1
BITMAP
0000300000
000FFF8000
003FFFF000
00FFFFF800
01FFFFFE00
03FFFFFF00
07FFFFFF00
0FFFFFFE00
1FFFFFFC00
1FFE03F800
3FF800F000
3FF0002000
7FE0000000
7FE0000000
7FC03FFFF0
7FC03FFFF0
7FC03FFFF0
FF803FFFF0
FF803FFFF0
FF803FFFF0
7FC03FFFF0
7FC03FFFF0
7FC0003FF0
7FE0003FE0
7FE0007FE0
3FF000FFE0
3FFC01FFC0
1FFF07FFC0
1FFFFFFF80
0FFFFFFF00
07FFFFFF00
03FFFFFE00
01FFFFFC00
00FFFFF800
003FFFE000
000FFF8000
0000700000
ENDCHAR
STARTCHAR 0048
ENCODING 72
SWIDTH 620 0
DWIDTH 31 0
BBX 26 35 3 0
BITMAP
FF003FC0
FF003FC0
FF003FC0
FF003FC0
FF003FC0
FF003FC0
FF003FC0
FF003FC0
FF003FC0
FF003FC0
FF003FC0
FF003FC0
FFFFFFC0
FFFFFFC0
FFFFFFC0
FFFFFFC0
FFFFFFC0
FFFFFFC0
FFFFFFC0
FFFFFFC0
FFFFFFC0
FF003FC0
FF003FC0
FF003FC0
FF003FC0
FF003FC0
FF003FC0
FF003FC0
FF003FC0
FF003FC0
FF003FC0
FF003FC0
FF003FC0
FF003FC0
FF003FC0
ENDCHAR
STARTCHAR 0049
ENCODING 73
SWIDTH 280 0
DWIDTH 14 0
BBX 8 35 3 0
BITMAP
FF
FF
FF
FF
FF
FF
FF
FF
FF
FF
FF
FF
FF
FF
FF
FF
FF
FF
FF
FF
FF
FF
FF
FF
FF
FF
FF
FF
FF
FF
FF
FF
FF
FF
FF
ENDCHAR
STARTCHAR 004A
ENCODING 74
SWIDTH 420 0
DWIDTH 21 0
BBX 19 35 0 0
BITMAP
003FE0
003FE0
003FE0
003FE0
003FE0
003FE0
003FE0
003FE0
003FE0
003FE0
003FE0
003FE0
003FE0
003FE0
003FE0
003FE0
003FE0
003FE0
003FE0
003FE0
003FE0
003FE0
003FE0
003FE0
003FE0
007FE0
00FFC0
FFFFC0
FFFFC0
FFFF80
FFFF80
FFFF00
FFFE00
FFFC00
FFE000
ENDCHAR
STARTCHAR 004B
ENCODING 75
SWIDTH 600 0
DWIDTH 30 0
BBX 27 35 3 0
BITMAP
FF007FE0
FF007FC0
FF00FFC0
FF00FFC0
FF01FF80
FF01FF80
FF01FF00
FF03FF00
FF03FE00
FF07FE00
FF0FFC00
FF1FFC00
FFFFF800
FFFFF000
FFFFE000
FFFFF800
FFFFFE00
FFFFFF00
FFFFFF00
FFFFFF00
FFFFFF80
FF01FF80
FF00FF80
FF00FF80
FF00FF80
FF00FF80
FF00FF80
FF00FF80
FF00FF80
FF00FF80
FF00FF80
FF00FF80
FF00FF80
FF00FF80
FF00FF80
ENDCHAR
STARTCHAR 004C
ENCODING 76
SWIDTH 420 0
DWIDTH 21 0
BBX 19 35 2 0
BITMAP
FF8000
FF8000
FF8000
FF8000
FF8000
FF8000
FF8000
FF8000
FF8000
FF8000
FF8000
FF8000
FF8000
FF8000
FF8000
FF8000
FF8000
FF8000
FF8000
FF8000
FF8000
FF8000
FF8000
FF8000
FF8000
FFC000
7FE000
7FFFE0
7FFFE0
3FFFE0
3FFFE0
1FFFE0
0FFFE0
07FFE0
00FFE0
ENDCHAR
STARTCHAR 004D
ENCODING 77
SWIDTH 820 0
DWIDTH 41 0
BBX 40 35 1 1
BITMAP
03F8003F80
07FE007FC0
07FE007FE0
0FFF00FFF0
0FFF00FFF0
0FFF81FFF0
1FFF81FFF0
1FDF81FBF8
1FDF81FBF8
1FDF83FBF8
1FDFC3FBF8
1FDFC3FBF8
1FCFC3F3F8
1FCFC7F3F8
3FCFE7F3FC
3FCFE7F3FC
3FCFE7E3FC
3FC7E7E3FC
3FC7EFE3FC
3F87FFE1FC
3F87FFE1FC
7F87FFC1FC
7F83FFC1FE
7F83FFC1FE
7F83FFC1FE
7F83FFC1FE
7F81FF81FE
7F81FF81FE
7F81FF81FE
FF81FF81FF
FF01FF00FF
FF00FF00FF
FF00FF00FF
FF007E00FF
FF003C00FF
ENDCHAR
STARTCHAR 004E
ENCODING 78
SWIDTH 660 0
DWIDTH 33 0
BBX 27 36 3 -1
BITMAP
0C000000
7F001FE0
7F801FE0
FFC01FE0
FFE01FE0
FFE01FE0
FFF01FE0
FFF01FE0
FFF81FE0
FFFC1FE0
FFFC1FE0
FFFE1FE0
FFFE1FE0
FFFF1FE0
FEFF1FE0
FEFF9FE0
FF7F9FE0
FF7FDFE0
FF3FDFE0
FF1FFFE0
FF1FEFE0
FF0FFFE0
FF0FFFE0
FF07FFE0
FF07FFE0
FF03FFE0
FF03FFE0
FF01FFE0
FF00FFE0
FF00FFE0
FF007FE0
FF007FE0
FF003FE0
FF003FE0
FF001FE0
FF000FC0
ENDCHAR
STARTCHAR 004F
ENCODING 79
SWIDTH 760 0
DWIDTH 38 0
BBX 36 37 1 -1
BITMAP
0000300000
000FFF8000
003FFFE000
00FFFFF000
01FFFFFC00
03FFFFFE00
07FFFFFF00
0FFFFFFF80
1FFFFFFF80
1FFF07FFC0
3FF801FFC0
3FF000FFE0
7FE0007FE0
7FE0003FF0
7FC0001FF0
7FC0001FF0
FF80001FF0
FF80001FF0
FF80001FF0
FF80001FF0
FF80001FF0
7FC0001FF0
7FC0001FF0
7FE0003FF0
7FE0007FE0
3FF000FFE0
3FFC01FFC0
1FFF07FFC0
1FFFFFFF80
0FFFFFFF80
07FFFFFF00
03FFFFFE00
01FFFFFC00
00FFFFF800
003FFFE000
000FFF8000
0000780000
ENDCHAR
STARTCHAR 0050
ENCODING 80
SWIDTH 560 0
DWIDTH 28 0
BBX 26 36 2 0
BITMAP
001C0000
01FFC000
03FFF000
0FFFFC00
1FFFFE00
1FFFFE00
3FFFFF00
7FFFFF80
7FFFFF80
7FC1FF80
7FC0FF80
FF807F80
FF807FC0
FF807FC0
FF80FF80
FF81FF80
FF9FFF80
FF9FFF80
FF9FFF00
FF9FFE00
FF9FFE00
FF9FFC00
FF9FF000
FF9FC000
FF9E0000
FF800000
FF800000
FF800000
FF800000
FF800000
FF800000
FF800000
FF800000
FF800000
FF800000
FF800000
ENDCHAR
STARTCHAR 0051
ENCODING 81
SWIDTH 760 0
DWIDTH 38 0
BBX 36 41 1 -5
BITMAP
0000200000
000FFF8000
003FFFE000
00FFFFF000
01FFFFFC00
03FFFFFE00
07FFFFFF00
0FFFFFFF80
1FFFFFFF80
1FFE07FFC0
3FF801FFC0
3FF0007FE0
7FE0007FE0
7FE0003FF0
7FC0001FF0
7FC0001FF0
FF80001FF0
FF80001FF0
FF80001FF0
FF80001FF0
FFC0001FF0
7FC0001FF0
7FC1FC1FF0
7FE1FC3FF0
7FE1FC7FF0
3FF1FCFFE0
3FF9FDFFE0
1FF9FFFFC0
1FF9FFFFC0
0FF9FFFF80
07F9FFFF00
03F9FFFE00
01F9FFFC00
00F9FFF800
0039FFE000
0009FF0000
0001FC0000
0001FC0000
0001FC0000
0001FC0000
0001FC0000
ENDCHAR
STARTCHAR 0052
ENCODING 82
SWIDTH 580 0
DWIDTH 29 0
BBX 26 36 2 0
BITMAP
000C0000
01FFC000
07FFF000
0FFFFC00
1FFFFE00
3FFFFF00
3FFFFF00
7FFFFF80
7FF3FF80
7FC1FF80
FF80FF80
FF80FF80
FF80FF80
FF81FF80
FF83FF00
FFBFFE00
FFBFFC00
FFBFF800
FFBFF800
FFBFFE00
FFBFFF00
FFBFFF80
FFBFFF80
FF81FF80
FF80FFC0
FF807FC0
FF807FC0
FF807FC0
FF807FC0
FF807FC0
FF807FC0
FF807FC0
FF807FC0
FF807FC0
FF807FC0
FF807FC0
ENDCHAR
STARTCHAR 0053
ENCODING 83
SWIDTH 520 0
DWIDTH 26 0
BBX 23 35 2 0
BITMAP
01FFF8
0FFFF8
1FFFF8
3FFFF8
7FFFF8
FFFFF8
FFFFF8
FFFFF8
FF8000
FF8000
FF8000
FFC000
FFE000
7FF800
7FFE00
3FFF80
1FFFC0
0FFFE0
03FFF8
01FFF8
007FFC
001FFE
000FFE
0007FE
0003FE
0003FE
000FFE
FFFFFE
FFFFFE
FFFFFC
FFFFFC
FFFFF8
FFFFF0
FFFFE0
FFFF00
ENDCHAR
STARTCHAR 0054
ENCODING 84
SWIDTH 480 0
DWIDTH 24 0
BBX 23 35 1 0
BITMAP
FFFFFE
FFFFFE
FFFFFE
FFFFFE
FFFFFE
FFFFFE
FFFFFE
FFFFFE
01FF00
01FF00
01FF00
01FF00
01FF00
01FF00
01FF00
01FF00
01FF00
01FF00
01FF00
01FF00
01FF00
01FF00
01FF00
01FF00
01FF00
01FF00
01FF00
01FF00
01FF00
01FF00
01FF00
01FF00
01FF00
01FF00
01FF00
ENDCHAR
STARTCHAR 0055
ENCODING 85
SWIDTH 620 0
DWIDTH 31 0
BBX 27 36 2 -1
BITMAP
FF803FE0
FF803FE0
FF803FE0
FF803FE0
FF803FE0
FF803FE0
FF803FE0
FF803FE0
FF803FE0
FF803FE0
FF803FE0
FF803FE0
FF803FE0
FF803FE0
FF803FE0
FF803FE0
FF803FE0
FF803FE0
FF803FE0
FF803FE0
FF803FE0
FF803FE0
FF803FE0
FF803FE0
7FC03FE0
7FC07FC0
7FE0FFC0
7FFFFFC0
3FFFFF80
3FFFFF80
1FFFFF00
0FFFFE00
07FFFC00
03FFF800
00FFE000
001E0000
ENDCHAR
STARTCHAR 0056
ENCODING 86
SWIDTH 540 0
DWIDTH 27 0
BBX 29 36 -1 -1
BITMAP
FF8007F8
7F800FF8
7FC00FF8
7FC00FF8
7FC00FF0
3FC01FF0
3FE01FF0
3FE01FF0
3FE01FE0
1FE03FE0
1FF03FE0
1FF03FC0
1FF03FC0
0FF07FC0
0FF87FC0
0FF87F80
0FF87F80
07F8FF80
07FCFF80
07FCFF00
07FCFF00
03FDFF00
03FDFF00
03FFFE00
03FFFE00
01FFFE00
01FFFE00
01FFFC00
00FFFC00
00FFFC00
00FFF800
007FF800
007FF000
003FF000
001FE000
00030000
ENDCHAR
STARTCHAR 0057
ENCODING 87
SWIDTH 900 0
DWIDTH 45 0
BBX 41 36 2 -1
BITMAP
FF807F807F80
FF807F807F80
FF807F807F80
FF807F807F80
FF807F807F80
FF807F807F80
FF807F807F80
FF807F807F80
FF807F807F80
FF807F807F80
FF807F807F80
FF807F807F80
FF807F807F80
FF807F807F80
FF807F807F80
FF807F807F80
FF807F807F80
FF807F807F80
FF807F807F80
FF807F807F80
FF807F807F80
FF807F807F80
FF807F807F80
FF807F807F80
7F80FF807F80
7FC0FFC0FF80
7FC1FFE1FF80
7FFFFFFFFF00
3FFFFFFFFF00
3FFFFFFFFF00
1FFFFFFFFE00
1FFFFFFFFC00
0FFFF7FFF800
03FFE1FFF000
01FF80FFC000
000C000C0000
ENDCHAR
STARTCHAR 0058
ENCODING 88
SWIDTH 620 0
DWIDTH 31 0
BBX 30 35 1 0
BITMAP
F000003C
FF0003FC
FFC00FFC
FFE03FFC
FFF87FFC
FFFCFFFC
FFFFFFFC
FFFFFFFC
3FFFFFE0
03FFFF00
01FFFC00
00FFF800
007FF800
003FF000
003FF000
003FE000
003FE000
003FE000
003FE000
003FE000
003FF000
003FF000
007FF800
00FFF800
01FFFC00
03FFFF00
1FFFFFE0
FFFFFFFC
FFFFFFFC
FFFCFFFC
FFF87FFC
FFE03FFC
FFC00FFC
FE0003FC
F000003C
ENDCHAR
STARTCHAR 0059
ENCODING 89
SWIDTH 560 0
DWIDTH 28 0
BBX 24 35 2 0
BITMAP
FF80FF
FF80FF
FF80FF
FF80FF
FF80FF
FF80FF
FF80FF
FF80FF
FF80FF
FF80FF
FF80FF
FF80FF
FF80FF
FF81FF
7FC1FF
7FFFFF
7FFFFE
3FFFFE
3FFFFC
1FFFF8
0FFFF0
07FFE0
01FFC0
00FF80
00FF80
00FF80
00FF80
00FF80
00FF80
00FF80
00FF80
00FF80
00FF80
00FF80
00FF80
ENDCHAR
STARTCHAR 005A
ENCODING 90
SWIDTH 520 0
DWIDTH 26 0
BBX 25 35 1 0
BITMAP
7FFFFC00
7FFFFE00
7FFFFF00
7FFFFF80
7FFFFF80
7FFFFF80
7FFFFF80
7FFFFF80
0003FF00
0007FE00
000FFE00
001FFC00
001FF800
003FF000
007FF000
007FE000
00FFC000
01FFC000
03FF8000
03FF0000
07FE0000
0FFE0000
1FFC0000
1FF80000
3FF00000
7FF00000
7FE00000
FFFFFF80
FFFFFF80
FFFFFF80
FFFFFF80
FFFFFF80
FFFFFF80
7FFFFF80
1FFFFF80
ENDCHAR
STARTCHAR 005B
ENCODING 91
SWIDTH 320 0
DWIDTH 16 0
BBX 11 46 4 -11
BITMAP
FFE0
FFE0
FFE0
FE00
FE00
FE00
FE00
FE00
FE00
FE00
FE00
FE00
FE00
FE00
FE00
FE00
FE00
FE00
FE00
FE00
FE00
FE00
FE00
FE00
FE00
FE00
FE00
FE00
FE00
FE00
FE00
FE00
FE00
FE00
FE00
FE00
FE00
FE00
FE00
FE00
FE00
FE00
FE00
FFE0
FFE0
FFE0
ENDCHAR
STARTCHAR 005C
ENCODING 92
SWIDTH 260 0
DWIDTH 13 0
BBX 17 41 -2 -5
BITMAP
F80000
780000
780000
7C0000
3C0000
3C0000
3E0000
3E0000
1E0000
1F0000
1F0000
0F0000
0F8000
0F8000
078000
078000
07C000
03C000
03C000
03E000
01E000
01E000
01F000
00F000
00F000
00F800
00F800
007800
007C00
007C00
003C00
003E00
003E00
001E00
001F00
001F00
000F00
000F00
000F80
000780
000780
ENDCHAR
STARTCHAR 005D
ENCODING 93
SWIDTH 320 0
DWIDTH 16 0
BBX 11 46 2 -11
BITMAP
FFE0
FFE0
FFE0
0FE0
0FE0
0FE0
0FE0
0FE0
0FE0
0FE0
0FE0
0FE0
0FE0
0FE0
0FE0
0FE0
0FE0
0FE0
0FE0
0FE0
0FE0
0FE0
0FE0
0FE0
0FE0
0FE0
0FE0
0FE0
0FE0
0FE0
0FE0
0FE0
0FE0
0FE0
0FE0
0FE0
0FE0
0FE0
0FE0
0FE0
0FE0
0FE0
0FE0
FFE0
FFE0
FFE0
ENDCHAR
STARTCHAR 005E
ENCODING 94
SWIDTH 1000 0
DWIDTH 50 0
BBX 28 14 11 22
BITMAP
003FC000
007FC000
007FE000
00FFF000
01FFF800
03FFFC00
07F9FE00
07F0FE00
0FE07F00
1FC03F80
3F801FC0
7F000FE0
FE0007F0
FC0003F0
ENDCHAR
STARTCHAR 005F
ENCODING 95
SWIDTH 500 0
DWIDTH 25 0
BBX 25 6 0 -12
BITMAP
FFFFFF80
FFFFFF80
FFFFFF80
FFFFFF80
FFFFFF80
FFFFFF80
ENDCHAR
STARTCHAR 0060
ENCODING 96
SWIDTH 500 0
DWIDTH 25 0
BBX 11 10 5 27
BITMAP
FE00
7E00
3F00
1F00
0F80
0780
07C0
03C0
01E0
00E0
ENDCHAR
STARTCHAR 0061
ENCODING 97
SWIDTH 560 0
DWIDTH 28 0
BBX 25 25 1 0
BITMAP
00FF8000
03FFE000
07FFF800
0FFFFC00
1FFFFE00
3FFFFE00
7FFFFF00
7FFFFF00
7FC0FF80
FF80FF80
FF007F80
FF007F80
FF007F80
FF007F80
FF007F80
FF807F80
7FC07F80
7FFF7F80
7FFF7F80
3FFF7F80
1FFF7F80
1FFF7F80
0FFF7F80
03FF7F80
00FF7F80
ENDCHAR
STARTCHAR 0062
ENCODING 98
SWIDTH 560 0
DWIDTH 28 0
BBX 25 35 2 0
BITMAP
FF000000
FF000000
FF000000
FF000000
FF000000
FF000000
FF000000
FF000000
FF000000
FF1C0000
FF7FC000
FF7FF000
FF7FF800
FF7FFC00
FF7FFE00
FF7FFE00
FF7FFF00
FF67FF00
FF01FF00
FF00FF80
FF007F80
FF007F80
FF007F80
FF007F80
FF007F80
FF80FF80
7F81FF00
7FF7FF00
7FFFFF00
3FFFFE00
1FFFFC00
1FFFFC00
0FFFF800
03FFE000
00FF8000
ENDCHAR
STARTCHAR 0063
ENCODING 99
SWIDTH 380 0
DWIDTH 19 0
BBX 18 25 1 0
BITMAP
000FC0
00FFC0
03FFC0
0FFFC0
1FFFC0
3FFFC0
3FFFC0
7FFFC0
7FE000
7F8000
FF8000
FF0000
FF0000
FF0000
FF8000
7F8000
7FC000
7FFFC0
3FFFC0
3FFFC0
1FFFC0
0FFFC0
07FFC0
01FFC0
003FC0
ENDCHAR
STARTCHAR 0064
ENCODING 100
SWIDTH 560 0
DWIDTH 28 0
BBX 25 35 1 0
BITMAP
00007F80
00007F80
00007F80
00007F80
00007F80
00007F80
00007F80
00007F80
00007F80
00007F80
00FF7F80
03FF7F80
07FF7F80
0FFF7F80
1FFF7F80
3FFF7F80
3FFF7F80
7FFF7F80
7FC07F80
FF807F80
FF807F80
FF007F80
FF007F80
FF007F80
FF007F80
FF807F80
7FC0FF80
7FF7FF00
7FFFFF00
3FFFFE00
1FFFFE00
1FFFFC00
0FFFF800
03FFE000
00FF8000
ENDCHAR
STARTCHAR 0065
ENCODING 101
SWIDTH 540 0
DWIDTH 27 0
BBX 26 25 1 0
BITMAP
007F8000
03FFE000
07FFF800
0FFFFC00
1FFFFC00
3FFFFE00
3FE0FF00
7F81FF00
7F87FE00
7F0FFC00
FF3FF000
FF3FE000
FF3F8000
FF1F0C00
FF0C1F00
7F881FC0
7FC07FC0
7FE0FF80
3FFFFF80
3FFFFF00
1FFFFE00
0FFFFC00
07FFF800
03FFF000
00FFC000
ENDCHAR
STARTCHAR 0066
ENCODING 102
SWIDTH 340 0
DWIDTH 17 0
BBX 15 35 2 0
BITMAP
01FE
0FFE
1FFE
3FFE
7FFE
7FFE
7FFE
FF80
FF00
FF00
FFFE
FFFE
FFFE
FFFE
FFFE
FFFE
FFFE
FFFE
FF00
FF00
FF00
FF00
FF00
FF00
FF00
FF00
FF00
FF00
FF00
FF00
FF00
FF00
FF00
FF00
FF00
ENDCHAR
STARTCHAR 0067
ENCODING 103
SWIDTH 560 0
DWIDTH 28 0
BBX 25 36 1 -11
BITMAP
00FF8000
03FFE000
07FFF800
0FFFFC00
1FFFFE00
3FFFFE00
3FFFFF00
7FFFFF00
7FC0FF80
7F80FF80
FF807F80
FF007F80
FF007F80
FF007F80
FF007F80
7F807F80
7FC07F80
7FFF7F80
3FFF7F80
3FFF7F80
1FFF7F80
0FFF7F80
07FF7F80
03FF7F80
007F7F80
00007F80
00007F80
0000FF80
0F03FF00
0FFFFF00
0FFFFE00
0FFFFE00
0FFFFC00
0FFFF800
0FFFE000
03FF8000
ENDCHAR
STARTCHAR 0068
ENCODING 104
SWIDTH 540 0
DWIDTH 27 0
BBX 23 35 2 0
BITMAP
FF0000
FF0000
FF0000
FF0000
FF0000
FF0000
FF0000
FF0000
FF0000
FF0000
FF3F80
FFFFE0
FFFFF0
FFFFF8
FFFFF8
FFFFFC
FFFFFC
FFE7FC
FF83FE
FF01FE
FF01FE
FF01FE
FF01FE
FF01FE
FF01FE
FF01FE
FF01FE
FF01FE
FF01FE
FF01FE
FF01FE
FF01FE
FF01FE
FF01FE
FF01FE
ENDCHAR
STARTCHAR 0069
ENCODING 105
SWIDTH 240 0
DWIDTH 12 0
BBX 9 36 2 0
BITMAP
3C00
7F00
FF00
FF80
FF80
FF80
FF00
7F00
3C00
0000
0000
FF00
FF00
FF00
FF00
FF00
FF00
FF00
FF00
FF00
FF00
FF00
FF00
FF00
FF00
FF00
FF00
FF00
FF00
FF00
FF00
FF00
FF00
FF00
FF00
FF00
ENDCHAR
STARTCHAR 006A
ENCODING 106
SWIDTH 240 0
DWIDTH 12 0
BBX 15 47 -4 -11
BITMAP
00F0
01FC
03FC
03FE
03FE
03FE
03FC
01FC
00F8
0000
0000
03FC
03FC
03FC
03FC
03FC
03FC
03FC
03FC
03FC
03FC
03FC
03FC
03FC
03FC
03FC
03FC
03FC
03FC
03FC
03FC
03FC
03FC
03FC
03FC
03FC
03FC
03FC
03FC
FFFC
FFFC
FFF8
FFF8
FFF0
FFE0
FF80
F800
ENDCHAR
STARTCHAR 006B
ENCODING 107
SWIDTH 500 0
DWIDTH 25 0
BBX 23 35 2 0
BITMAP
FF0000
FF0000
FF0000
FF0000
FF0000
FF0000
FF0000
FF0000
FF0000
FF0000
FF01FE
FF03FC
FF03FC
FF07FC
FF07F8
FF07F8
FF0FF0
FF1FF0
FFFFF0
FFFFE0
FFFF80
FFFFE0
FFFFF0
FFFFF8
FFFFFC
FF1FFC
FF03FC
FF03FC
FF03FC
FF01FC
FF01FC
FF01FC
FF01FC
FF01FC
FF01FC
ENDCHAR
STARTCHAR 006C
ENCODING 108
SWIDTH 240 0
DWIDTH 12 0
BBX 8 35 2 0
BITMAP
FF
FF
FF
FF
FF
FF
FF
FF
FF
FF
FF
FF
FF
FF
FF
FF
FF
FF
FF
FF
FF
FF
FF
FF
FF
FF
FF
FF
FF
FF
FF
FF
FF
FF
FF
ENDCHAR
STARTCHAR 006D
ENCODING 109
SWIDTH 780 0
DWIDTH 39 0
BBX 36 25 2 0
BITMAP
01FE07F800
07FF0FFE00
0FFFBFFF00
1FFFFFFF80
3FFFFFFFC0
7FFFFFFFE0
7FFFFFFFE0
7FCFFF3FE0
FF07FE0FF0
FF03FC0FF0
FF03FC0FF0
FF03FC0FF0
FF03FC0FF0
FF03FC0FF0
FF03FC0FF0
FF03FC0FF0
FF03FC0FF0
FF03FC0FF0
FF03FC0FF0
FF03FC0FF0
FF03FC0FF0
FF03FC0FF0
FF03FC0FF0
FF03FC0FF0
FF03FC0FF0
ENDCHAR
STARTCHAR 006E
ENCODING 110
SWIDTH 520 0
DWIDTH 26 0
BBX 23 25 2 0
BITMAP
01FE00
07FF80
0FFFE0
1FFFF0
3FFFF8
7FFFF8
7FFFFC
7FCFFC
FF83FC
FF01FE
FF01FE
FF01FE
FF01FE
FF01FE
FF01FE
FF01FE
FF01FE
FF01FE
FF01FE
FF01FE
FF01FE
FF01FE
FF01FE
FF01FE
FF01FE
ENDCHAR
STARTCHAR 006F
ENCODING 111
SWIDTH 540 0
DWIDTH 27 0
BBX 25 25 1 0
BITMAP
00FF8000
03FFE000
07FFF800
0FFFFC00
1FFFFC00
3FFFFE00
3FFFFF00
7FFFFF00
7FC1FF80
7F80FF80
FF807F80
FF007F80
FF007F80
FF007F80
FF807F80
7F80FF80
7FC0FF80
7FF7FF00
3FFFFF00
3FFFFE00
1FFFFE00
0FFFFC00
07FFF800
03FFE000
00FFC000
ENDCHAR
STARTCHAR 0070
ENCODING 112
SWIDTH 560 0
DWIDTH 28 0
BBX 25 36 2 -11
BITMAP
00FF8000
03FFE000
0FFFF000
1FFFF800
3FFFFC00
3FFFFE00
7FFFFF00
7FFFFF00
7F81FF00
FF80FF80
FF007F80
FF007F80
FF007F80
FF007F80
FF007F80
FF00FF80
FF01FF00
FF7FFF00
FF7FFF00
FF7FFE00
FF7FFC00
FF7FFC00
FF7FF800
FF7FE000
FF7F8000
FF000000
FF000000
FF000000
FF000000
FF000000
FF000000
FF000000
FF000000
FF000000
FF000000
FF000000
ENDCHAR
STARTCHAR 0071
ENCODING 113
SWIDTH 560 0
DWIDTH 28 0
BBX 25 36 1 -11
BITMAP
00FF8000
03FFE000
07FFF800
0FFFFC00
1FFFFE00
3FFFFE00
7FFFFF00
7FFFFF00
7FC0FF80
FF80FF80
FF007F80
FF007F80
FF007F80
FF007F80
FF007F80
FF807F80
7FC07F80
7FFF7F80
7FFF7F80
3FFF7F80
1FFF7F80
1FFF7F80
0FFF7F80
03FF7F80
00FF7F80
00007F80
00007F80
00007F80
00007F80
00007F80
00007F80
00007F80
00007F80
00007F80
00007F80
00007F80
ENDCHAR
STARTCHAR 0072
ENCODING 114
SWIDTH 360 0
DWIDTH 18 0
BBX 16 25 2 0
BITMAP
FE07
FE3F
FE7F
FEFF
FFFF
FFFF
FFFF
FFFF
FFF0
FFC0
FF80
FF80
FF00
FF00
FF00
FF00
FF00
FF00
FF00
FF00
FF00
FF00
FF00
FF00
FF00
ENDCHAR
STARTCHAR 0073
ENCODING 115
SWIDTH 420 0
DWIDTH 21 0
BBX 18 25 2 0
BITMAP
01FF80
1FFF80
3FFF80
7FFF80
FFFF80
FFFF80
FFFF80
FF0000
FF0000
FFC000
7FF000
3FFC00
1FFF00
0FFF80
03FF80
00FFC0
003FC0
003FC0
FFFFC0
FFFFC0
FFFFC0
FFFF80
FFFF80
FFFF00
FFFC00
ENDCHAR
STARTCHAR 0074
ENCODING 116
SWIDTH 340 0
DWIDTH 17 0
BBX 14 31 2 0
BITMAP
FF00
FF00
FF00
FF00
FF00
FF00
FFFC
FFFC
FFFC
FFFC
FFFC
FFFC
FFFC
FFFC
FF00
FF00
FF00
FF00
FF00
FF00
FF00
FF00
FF00
FF80
7FFC
7FFC
7FFC
3FFC
1FFC
0FFC
01FC
ENDCHAR
STARTCHAR 0075
ENCODING 117
SWIDTH 520 0
DWIDTH 26 0
BBX 23 25 2 0
BITMAP
FF01FE
FF01FE
FF01FE
FF01FE
FF01FE
FF01FE
FF01FE
FF01FE
FF01FE
FF01FE
FF01FE
FF01FE
FF01FE
FF01FE
FF01FE
FF01FE
FF03FC
7FC7FC
7FFFFC
7FFFF8
3FFFF8
1FFFF0
0FFFE0
07FFC0
01FF00
ENDCHAR
STARTCHAR 0076
ENCODING 118
SWIDTH 460 0
DWIDTH 23 0
BBX 24 25 0 0
BITMAP
FF00FF
FF00FF
FF00FF
FF01FE
7F81FE
7F81FE
7F81FC
3F83FC
3FC3FC
3FC3F8
1FC3F8
1FE7F8
1FE7F0
0FE7F0
0FEFF0
0FFFE0
07FFE0
07FFE0
07FFE0
03FFC0
03FFC0
03FF80
01FF80
00FF00
007E00
ENDCHAR
STARTCHAR 0077
ENCODING 119
SWIDTH 780 0
DWIDTH 39 0
BBX 36 25 2 0
BITMAP
FF03FC0FF0
FF03FC0FF0
FF03FC0FF0
FF03FC0FF0
FF03FC0FF0
FF03FC0FF0
FF03FC0FF0
FF03FC0FF0
FF03FC0FF0
FF03FC0FF0
FF03FC0FF0
FF03FC0FF0
FF03FC0FF0
FF03FC0FF0
FF03FC0FF0
FF03FC0FF0
FF03FC0FF0
7F87FE1FE0
7FFFFFFFE0
7FFFFFFFE0
3FFFFFFFC0
3FFFFFFFC0
1FFFFFFF80
0FFF9FFF00
03FE07FC00
ENDCHAR
STARTCHAR 0078
ENCODING 120
SWIDTH 440 0
DWIDTH 22 0
BBX 22 25 0 0
BITMAP
F0001C
FE01FC
FF87FC
FFCFFC
FFFFFC
FFFFFC
FFFFFC
FFFFFC
07FFC0
03FF00
01FF00
01FE00
01FE00
01FE00
01FF00
03FF00
07FF80
FFFFFC
FFFFFC
FFFFFC
FFFFFC
FFCFFC
FF87FC
FF01FC
F8007C
ENDCHAR
STARTCHAR 0079
ENCODING 121
SWIDTH 520 0
DWIDTH 26 0
BBX 23 36 2 -11
BITMAP
FF01FE
FF01FE
FF01FE
FF01FE
FF01FE
FF01FE
FF01FE
FF01FE
FF01FE
FF01FE
FF01FE
FF01FE
FF01FE
FF01FE
FF01FE
FF01FE
FF03FC
FF87FC
7FFFFC
7FFFF8
3FFFF8
3FFFF0
1FFFE0
07FFC0
03FF00
01FE00
01FE00
01FE00
01FE00
01FE00
01FE00
01FE00
01FE00
01FE00
01FE00
01FE00
ENDCHAR
STARTCHAR 007A
ENCODING 122
SWIDTH 440 0
DWIDTH 22 0
BBX 21 25 1 0
BITMAP
7FFF80
7FFFE0
7FFFF0
7FFFF8
7FFFF8
7FFFF8
7FFFF0
003FF0
007FE0
00FFC0
01FF80
03FF00
03FE00
07FE00
0FFC00
1FF800
3FF000
7FE000
FFFFF8
FFFFF8
FFFFF8
FFFFF8
FFFFF8
7FFFF8
3FFFF8
ENDCHAR
STARTCHAR 007B
ENCODING 123
SWIDTH 500 0
DWIDTH 25 0
BBX 18 46 4 -10
BITMAP
003FC0
00FFC0
01FFC0
03FFC0
03FFC0
03FFC0
03FC00
03F800
03F800
03F800
03F800
03F800
03F800
03F800
03F800
03F800
03F800
07F800
07F800
0FF000
FFF000
FFE000
FFC000
FF8000
FFE000
FFF000
0FF000
07F800
07F800
03F800
03F800
03F800
03F800
03F800
03F800
03F800
03F800
03F800
03F800
03FC00
03FFC0
03FFC0
03FFC0
01FFC0
00FFC0
003FC0
ENDCHAR
STARTCHAR 007C
ENCODING 124
SWIDTH 500 0
DWIDTH 25 0
BBX 5 50 10 -12
BITMAP
F8
F8
F8
F8
F8
F8
F8
F8
F8
F8
F8
F8
F8
F8
F8
F8
F8
F8
F8
F8
F8
F8
F8
F8
F8
F8
F8
F8
F8
F8
F8
F8
F8
F8
F8
F8
F8
F8
F8
F8
F8
F8
F8
F8
F8
F8
F8
F8
F8
F8
ENDCHAR
STARTCHAR 007D
ENCODING 125
SWIDTH 500 0
DWIDTH 25 0
BBX 18 46 3 -10
BITMAP
FF0000
FFC000
FFE000
FFF000
FFF000
FFF000
0FF000
07F000
07F000
07F000
07F000
07F000
07F000
07F000
07F000
07F000
07F000
07F800
07F800
03FC00
03FFC0
01FFC0
007FC0
007FC0
01FFC0
03FFC0
03FE00
07F800
07F800
07F000
07F000
07F000
07F000
07F000
07F000
07F000
07F000
07F000
07F000
0FF000
FFF000
FFF000
FFF000
FFE000
FFC000
FF0000
ENDCHAR
STARTCHAR 007E
ENCODING 126
SWIDTH 820 0
DWIDTH 41 0
BBX 33 10 4 10
BITMAP
0000000080
07FF000180
1FFFE00780
7FFFFE3F80
FFFFFFFF80
FFFFFFFF80
FF1FFFFF80
F800FFFE00
E0001FF800
8000008000
ENDCHAR
STARTCHAR 0080
ENCODING 128
SWIDTH 560 0
DWIDTH 28 0
BBX 27 35 0 0
BITMAP
00001FE0
0001FFE0
0007FFE0
001FFFE0
003FFFE0
007FFFE0
00FFFFE0
01FFFFE0
01FFC000
03FF0000
03FE0000
07FE0000
07FC0000
7FFFFF80
FFFFFF80
FFFFFF00
07F80000
07F80000
07F80000
7FFFFE00
FFFFFE00
FFFFFE00
07FC0000
07FC0000
03FE0000
03FF0000
03FFC000
01FFFFE0
00FFFFE0
007FFFE0
003FFFE0
001FFFE0
000FFFE0
0001FFE0
00003FE0
ENDCHAR
STARTCHAR 00A0
ENCODING 160
SWIDTH 560 0
DWIDTH 28 0
BBX 0 0 0 0
BITMAP
ENDCHAR
STARTCHAR 00A1
ENCODING 161
SWIDTH 320 0
DWIDTH 16 0
BBX 10 36 3 0
BITMAP
0400
3F00
7F80
7FC0
FFC0
FFC0
FFC0
7FC0
7F80
3F00
0000
0000
7F80
7F80
7F80
7F80
7F80
7F80
7F80
7F80
7F80
7F80
7F80
7F80
7FC0
7FC0
7FC0
7FC0
7FC0
7FC0
7FC0
7FC0
7FC0
7FC0
7FC0
7FC0
ENDCHAR
STARTCHAR 00A2
ENCODING 162
SWIDTH 560 0
DWIDTH 28 0
BBX 17 34 5 0
BITMAP
007C00
007C00
007C00
007C00
007C00
007C00
01FF80
07FF80
1FFF80
3FFF80
3FFF80
7FFF80
7FF000
7F0000
7F0000
FE0000
FE0000
FE0000
FF0000
7F0000
7FE000
7FFF80
3FFF80
3FFF80
1FFF80
0FFF80
03FF80
007C00
007C00
007C00
007C00
007C00
007C00
007C00
ENDCHAR
STARTCHAR 00A3
ENCODING 163
SWIDTH 560 0
DWIDTH 28 0
BBX 27 36 0 0
BITMAP
00038000
001FF800
007FF800
00FFF800
01FFF800
01FFF800
03FFF800
03FFF800
03FF0800
07FE0000
07FC0000
07FC0000
07FC0000
3FFF8000
3FFF8000
3FFF8000
3FFF8000
3FFF8000
3FFF8000
3FFF8000
3FFF8000
07FC0FE0
07FC0FE0
07F81FE0
07F81FE0
07F81FE0
0FF03FE0
1FE0FFE0
FFFFFFE0
FFFFFFC0
FFFFFFC0
FFFFFF80
FFFFFF00
FFFFFE00
FFFFFC00
FFFFF000
ENDCHAR
STARTCHAR 00A4
ENCODING 164
SWIDTH 560 0
DWIDTH 28 0
BBX 27 35 0 0
BITMAP
00001FE0
0001FFE0
0007FFE0
001FFFE0
003FFFE0
007FFFE0
00FFFFE0
01FFFFE0
01FFC000
03FF0000
03FE0000
07FE0000
07FC0000
7FFFFF80
FFFFFF80
FFFFFF00
07F80000
07F80000
07F80000
7FFFFE00
FFFFFE00
FFFFFE00
07FC0000
07FC0000
03FE0000
03FF0000
03FFC000
01FFFFE0
00FFFFE0
007FFFE0
003FFFE0
001FFFE0
000FFFE0
0001FFE0
00003FE0
ENDCHAR
STARTCHAR 00A5
ENCODING 165
SWIDTH 580 0
DWIDTH 29 0
BBX 29 35 0 0
BITMAP
7F0007F8
7F8007F8
7F800FF0
3FC00FF0
3FC00FE0
1FC01FE0
1FE01FC0
0FE03FC0
0FF03FC0
07F07F80
FFF87FF8
FFF87FF8
FFF8FFF8
FFFCFFF8
01FDFE00
01FFFC00
FFFFFFF8
FFFFFFF8
FFFFFFF8
FFFFFFF8
FFFFFFF8
003FF000
003FE000
001FE000
001FE000
001FE000
001FE000
001FE000
001FE000
001FE000
001FE000
001FE000
001FE000
001FE000
001FE000
ENDCHAR
STARTCHAR 00A6
ENCODING 166
SWIDTH 500 0
DWIDTH 25 0
BBX 5 44 10 -9
BITMAP
F8
F8
F8
F8
F8
F8
F8
F8
F8
F8
F8
F8
F8
F8
F8
F8
F8
F8
F8
00
00
00
00
00
00
F8
F8
F8
F8
F8
F8
F8
F8
F8
F8
F8
F8
F8
F8
F8
F8
F8
F8
F8
ENDCHAR
STARTCHAR 00A7
ENCODING 167
SWIDTH 520 0
DWIDTH 26 0
BBX 22 39 3 -4
BITMAP
03FFE0
0FFFE0
3FFFE0
7FFFE0
7FFFE0
7FFFE0
FFFFE0
FFFFE0
FF8000
7F8000
7F8000
7FE000
3FF800
1FFE00
7FFF80
7FFFC0
FFFFF0
FE3FF0
FE0FF8
FF03F8
7FC1F8
7FF3F8
3FFFF8
0FFFF8
03FFF0
00FFE0
003FF0
000FF8
0007F8
0003F8
000FFC
7FFFFC
7FFFF8
7FFFF8
7FFFF8
7FFFF0
7FFFE0
7FFF80
7FF000
ENDCHAR
STARTCHAR 00A8
ENCODING 168
SWIDTH 500 0
DWIDTH 25 0
BBX 15 6 5 29
BITMAP
783C
FC7E
FC7E
FC7E
FC7E
783C
ENDCHAR
STARTCHAR 00A9
ENCODING 169
SWIDTH 820 0
DWIDTH 41 0
BBX 36 36 3 0
BITMAP
0007FE0000
003FFFC000
00FFFFF000
01FC03F800
03E000FC00
07C0003E00
0F00001F00
1E01F80F80
3C07FE0780
3C1FFF83C0
783FFFC1E0
703F0FC1E0
F07E07E0E0
F07C07E0F0
E0FC0000F0
E0FC000070
E0FC000070
E0FC000070
E0FC000070
E0FC000070
E0FC000070
E0FC03E0F0
F07C07E0F0
F07E07E0E0
707F0FC1E0
783FFFC1E0
3C1FFF83C0
3C0FFE07C0
1E01F80F80
0F00001F00
07C0003E00
03F000FC00
01FC07F800
00FFFFE000
003FFFC000
000FFE0000
ENDCHAR
STARTCHAR 00AA
ENCODING 170
SWIDTH 420 0
DWIDTH 21 0
BBX 19 18 1 17
BITMAP
07F800
1FFE00
3FFF00
7FFF80
7FFFC0
FF1FC0
FC0FC0
FC07C0
FC07E0
FC07E0
FC07E0
FE07E0
7FF7E0
7FF7E0
3FF7E0
1FF7E0
0FF7E0
00E000
ENDCHAR
STARTCHAR 00AB
ENCODING 171
SWIDTH 540 0
DWIDTH 27 0
BBX 22 16 3 4
BITMAP
03E1F8
07C1F0
0FC3F0
1F87E0
3F0FC0
3E1F80
7C1F00
FC3F00
7C3F00
7E1F80
3F0FC0
1F87E0
0F83E0
07C3F0
07E1F8
03F0FC
ENDCHAR
STARTCHAR 00AC
ENCODING 172
SWIDTH 820 0
DWIDTH 41 0
BBX 29 12 6 9
BITMAP
FFFFFFF8
FFFFFFF8
FFFFFFF8
FFFFFFF8
FFFFFFF8
000000F8
000000F8
000000F8
000000F8
000000F8
000000F8
000000F8
ENDCHAR
STARTCHAR 00AD
ENCODING 173
SWIDTH 320 0
DWIDTH 16 0
BBX 13 7 2 9
BITMAP
FFF8
FFF8
FFF8
FFF8
FFF8
FFF8
FFF8
ENDCHAR
STARTCHAR 00AE
ENCODING 174
SWIDTH 820 0
DWIDTH 41 0
BBX 36 36 3 0
BITMAP
000FFE0000
003FFFC000
00FFFFF000
01FC03F800
03E000FC00
07C0003E00
0F00001F00
1E00000F80
3C3FFF0780
3C3FFF83C0
783FFFC1E0
703F0FE1E0
F03F07E0E0
F03F07E0F0
E03F07E0F0
E03F07C070
E03FFFC070
E03FFF8070
E03FFE0070
E03FFE0070
E03F3E0070
E03F3F00F0
F03F1F00F0
F03F1F80E0
703F1F81E0
783F0FC1E0
3C3F0FC3C0
3C3F07E780
1E00000F80
0F00001F00
07C0003E00
03E000FC00
01FC07F800
00FFFFE000
003FFFC000
000FFE0000
ENDCHAR
STARTCHAR 00AF
ENCODING 175
SWIDTH 500 0
DWIDTH 25 0
BBX 15 4 5 30
BITMAP
FFFE
FFFE
FFFE
FFFE
ENDCHAR
STARTCHAR 00B0
ENCODING 176
SWIDTH 320 0
DWIDTH 16 0
BBX 15 15 1 21
BITMAP
0780
1FF0
3FF8
7FFC
F83C
F01E
E01E
E01E
E01E
F01E
F03C
7C7C
7FF8
3FF0
0FE0
ENDCHAR
STARTCHAR 00B1
ENCODING 177
SWIDTH 820 0
DWIDTH 41 0
BBX 29 30 6 0
BITMAP
000FC000
000FC000
000FC000
000FC000
000FC000
000FC000
000FC000
FFFFFFF8
FFFFFFF8
FFFFFFF8
FFFFFFF8
FFFFFFF8
FFFFFFF8
000FC000
000FC000
000FC000
000FC000
000FC000
000FC000
000FC000
000FC000
00000000
00000000
00000000
00000000
FFFFFFF8
FFFFFFF8
FFFFFFF8
FFFFFFF8
FFFFFFF8
ENDCHAR
STARTCHAR 00B2
ENCODING 178
SWIDTH 360 0
DWIDTH 18 0
BBX 16 21 1 14
BITMAP
0FF0
1FFC
3FFE
7FFE
7E7F
7C3F
7C3F
7C3F
7E7E
3CFE
39FC
13F8
07F0
0FE0
1FC0
3F80
7FFF
7FFF
FFFF
7FFF
3FFF
ENDCHAR
STARTCHAR 00B3
ENCODING 179
SWIDTH 360 0
DWIDTH 18 0
BBX 15 21 2 14
BITMAP
FFF0
FFFC
FFFC
FFFC
FFFC
01F8
03F0
07E0
0FC0
1FF8
1FFC
1FFE
007E
003E
003E
007E
FFFE
FFFC
FFFC
FFF8
FFE0
ENDCHAR
STARTCHAR 00B4
ENCODING 180
SWIDTH 500 0
DWIDTH 25 0
BBX 11 10 9 27
BITMAP
0FE0
0FC0
1F80
1F00
3E00
3C00
7C00
7800
F000
E000
ENDCHAR
STARTCHAR 00B5
ENCODING 181
SWIDTH 640 0
DWIDTH 32 0
BBX 32 37 -1 -10
BITMAP
03FC01FF
03FC01FF
07FC01FE
07FC01FE
07FC03FE
07FC03FE
07FC03FE
07F803FE
0FF803FC
0FF803FC
0FF807FC
0FF807FC
0FF807FC
0FF007FC
1FF007FC
1FF007F8
1FF00FF8
1FF00FF8
1FF01FF8
1FF81FF8
1FFC3FF8
3FFFFFF0
3FFFFFF0
3FFFFFF0
3FFFFFF0
3FDFEFF0
3FCFCFF0
7FC00000
7FC00000
7FC00000
7FC00000
7F800000
7F800000
7F800000
FF800000
FF800000
FF800000
ENDCHAR
STARTCHAR 00B6
ENCODING 182
SWIDTH 500 0
DWIDTH 25 0
BBX 23 36 1 0
BITMAP
07FFFE
1FFFFE
3FFFFE
7FF8F8
7FF8F8
FFF8F8
FFF8F8
FFF8F8
FFF8F8
FFF8F8
FFF8F8
FFF8F8
7FF8F8
7FF8F8
3FF8F8
0FF8F8
03F8F8
0078F8
0078F8
0078F8
0078F8
0078F8
0078F8
0078F8
0078F8
0078F8
0078F8
0078F8
0078F8
0078F8
0078F8
0078F8
0078F8
0078F8
0078F8
0078F8
ENDCHAR
STARTCHAR 00B7
ENCODING 183
SWIDTH 280 0
DWIDTH 14 0
BBX 10 10 2 13
BITMAP
1E00
7F80
7F80
FFC0
FFC0
FFC0
FFC0
7F80
7F80
1E00
ENDCHAR
STARTCHAR 00B8
ENCODING 184
SWIDTH 500 0
DWIDTH 25 0
BBX 13 15 7 -12
BITMAP
0300
0700
0700
0600
0600
0FC0
0FE0
0FF0
00F8
0078
00F8
F9F8
FFF0
FFE0
1F80
ENDCHAR
STARTCHAR 00B9
ENCODING 185
SWIDTH 360 0
DWIDTH 18 0
BBX 9 21 5 14
BITMAP
FF80
FF80
FF80
FF80
FF80
1F80
1F80
1F80
1F80
1F80
1F80
1F80
1F80
1F80
1F80
1F80
1F80
1F80
1F80
1F80
1F80
ENDCHAR
STARTCHAR 00BA
ENCODING 186
SWIDTH 400 0
DWIDTH 20 0
BBX 19 18 1 17
BITMAP
07F800
0FFE00
3FFF00
3FFF80
7FFFC0
FF1FC0
FE0FC0
FC07E0
FC07E0
FC07E0
FC0FE0
FE1FC0
7FFFC0
7FFF80
3FFF00
1FFE00
07FC00
01E000
ENDCHAR
STARTCHAR 00BB
ENCODING 187
SWIDTH 540 0
DWIDTH 27 0
BBX 22 16 2 4
BITMAP
7E1F80
3E0F80
1F07C0
1F87E0
0FC3F0
07E1F8
03E0F8
01F07C
03F0F8
07E1F8
0FC3F0
0F83E0
1F07C0
3F0FC0
7E1F80
FC3F00
ENDCHAR
STARTCHAR 00BC
ENCODING 188
SWIDTH 860 0
DWIDTH 43 0
BBX 39 35 4 0
BITMAP
FF80007C00
FF80007C00
FF8000F800
FF8000F000
FF8001F000
0F8003E000
0F8003E000
0F8007C000
0F8007C000
0F800F8000
0F800F0000
0F801F0000
0F803E0000
0F803E0000
0F807C0000
0F807C03E8
0F80F807E8
0F80F007D8
0F81F00FB8
0F83E01FB8
0003E01F78
0007C03E78
0007C03EF8
000F807CF8
001F00F8F8
001F00F8F8
003E01F0F8
003E01FFFE
007C01FFFE
007C01FFFE
00F800FFFE
01F00000F8
01F00000F8
03E00000F8
03E00000F8
ENDCHAR
STARTCHAR 00BD
ENCODING 189
SWIDTH 860 0
DWIDTH 43 0
BBX 39 35 4 0
BITMAP
FF80007C00
FF80007C00
FF8000F800
FF8000F000
FF8001F000
0F8003E000
0F8003E000
0F8007C000
0F8007C000
0F800F8000
0F800F0000
0F801F0000
0F803E0000
0F803E0000
0F807C0000
0F807C0FC0
0F80F83FF0
0F80F07FF8
0F81F0FFFC
0F83E0FDFC
0003E0F87C
0007C0F87C
0007C0F8FC
000F80FDF8
001F007BF8
001F0027F0
003E000FE0
003E001FC0
007C003F80
007C007F00
00F800FFFE
01F000FFFE
01F000FFFE
03E000FFFE
03E0007FFE
ENDCHAR
STARTCHAR 00BE
ENCODING 190
SWIDTH 860 0
DWIDTH 43 0
BBX 41 35 2 0
BITMAP
FFE0001F0000
FFF8001F0000
FFF8003E0000
FFF8003C0000
01F8007C0000
03F000F80000
07E000F80000
0FC001F00000
1FE001F00000
1FF803E00000
1FFC03C00000
00FC07C00000
007C0F800000
007C0F800000
007C1F000000
FFFC1F00FA00
FFFC3E01FA00
FFF83C01F600
FFF07C03EE00
FF00F807EE00
0000F807DE00
0001F00F9E00
0001F00FBE00
0003E01F3E00
0007C03E3E00
0007C03E3E00
000F807C3E00
000F807FFF80
001F007FFF80
001F007FFF80
003E003FFF80
007C00003E00
007C00003E00
00F800003E00
00F800003E00
ENDCHAR
STARTCHAR 00BF
ENCODING 191
SWIDTH 500 0
DWIDTH 25 0
BBX 23 37 2 -1
BITMAP
001000
00FE00
01FF00
01FF00
01FF00
01FF80
01FF00
01FF00
00FF00
007C00
000000
000000
00FF00
00FF00
00FF00
01FF00
0FFF00
1FFF00
3FFF00
7FFF00
7FFF00
FFFF00
FFE000
FF8000
FF0000
FF0100
FF01E0
FF83FE
FFC7FE
FFFFFC
7FFFFC
7FFFF8
3FFFF8
1FFFF0
0FFFE0
03FF80
003800
ENDCHAR
STARTCHAR 00C0
ENCODING 192
SWIDTH 620 0
DWIDTH 31 0
BBX 27 47 2 0
BITMAP
01F80000
00FC0000
007C0000
003E0000
003E0000
001F0000
000F0000
00078000
00038000
00000000
00000000
00040000
00FFE000
03FFF800
07FFFC00
0FFFFE00
1FFFFF00
3FFFFF80
3FFFFF80
7FFFFFC0
7FE0FFC0
7FC07FC0
7FC03FE0
FF803FE0
FF803FE0
FF803FE0
FFBFFFE0
FFBFFFE0
FFBFFFE0
FFBFFFE0
FFBFFFE0
FFBFFFE0
FFBFFFE0
FFBFFFE0
FF803FE0
FF803FE0
FF803FE0
FF803FE0
FF803FE0
FF803FE0
FF803FE0
FF803FE0
FF803FE0
FF803FE0
FF803FE0
FF803FE0
FF803FE0
ENDCHAR
STARTCHAR 00C1
ENCODING 193
SWIDTH 620 0
DWIDTH 31 0
BBX 27 47 2 0
BITMAP
0003F000
0003E000
0007E000
0007C000
000F8000
001F0000
001E0000
003C0000
00380000
00000000
00000000
00040000
00FFE000
03FFF800
07FFFC00
0FFFFE00
1FFFFF00
3FFFFF80
3FFFFF80
7FFFFFC0
7FE0FFC0
7FC07FC0
7FC03FE0
FF803FE0
FF803FE0
FF803FE0
FFBFFFE0
FFBFFFE0
FFBFFFE0
FFBFFFE0
FFBFFFE0
FFBFFFE0
FFBFFFE0
FFBFFFE0
FF803FE0
FF803FE0
FF803FE0
FF803FE0
FF803FE0
FF803FE0
FF803FE0
FF803FE0
FF803FE0
FF803FE0
FF803FE0
FF803FE0
FF803FE0
ENDCHAR
STARTCHAR 00C2
ENCODING 194
SWIDTH 620 0
DWIDTH 31 0
BBX 27 46 2 0
BITMAP
003F8000
003F8000
007FC000
007FC000
00FBE000
00F1E000
01E0F000
01E07800
03C07800
00000000
00040000
00FFE000
03FFF800
07FFFC00
0FFFFE00
1FFFFF00
3FFFFF80
3FFFFF80
7FFFFFC0
7FE0FFC0
7FC07FC0
7FC03FE0
FF803FE0
FF803FE0
FF803FE0
FFBFFFE0
FFBFFFE0
FFBFFFE0
FFBFFFE0
FFBFFFE0
FFBFFFE0
FFBFFFE0
FFBFFFE0
FF803FE0
FF803FE0
FF803FE0
FF803FE0
FF803FE0
FF803FE0
FF803FE0
FF803FE0
FF803FE0
FF803FE0
FF803FE0
FF803FE0
FF803FE0
ENDCHAR
STARTCHAR 00C3
ENCODING 195
SWIDTH 620 0
DWIDTH 31 0
BBX 27 46 2 0
BITMAP
00003800
007C3800
00FFF800
01FFF000
03FFE000
0383C000
03800000
00000000
00000000
00000000
00040000
00FFE000
03FFF800
07FFFC00
0FFFFE00
1FFFFF00
3FFFFF80
3FFFFF80
7FFFFFC0
7FE0FFC0
7FC07FC0
7FC03FE0
FF803FE0
FF803FE0
FF803FE0
FFBFFFE0
FFBFFFE0
FFBFFFE0
FFBFFFE0
FFBFFFE0
FFBFFFE0
FFBFFFE0
FFBFFFE0
FF803FE0
FF803FE0
FF803FE0
FF803FE0
FF803FE0
FF803FE0
FF803FE0
FF803FE0
FF803FE0
FF803FE0
FF803FE0
FF803FE0
FF803FE0
ENDCHAR
STARTCHAR 00C4
ENCODING 196
SWIDTH 620 0
DWIDTH 31 0
BBX 27 46 2 0
BITMAP
00E06000
01F1F800
03F1F800
03F9F800
03F1F800
01F0F000
00400000
00000000
00000000
00000000
00040000
00FFE000
03FFF800
07FFFC00
0FFFFE00
1FFFFF00
3FFFFF80
3FFFFF80
7FFFFFC0
7FE0FFC0
7FC07FC0
7FC03FE0
FF803FE0
FF803FE0
FF803FE0
FFBFFFE0
FFBFFFE0
FFBFFFE0
FFBFFFE0
FFBFFFE0
FFBFFFE0
FFBFFFE0
FFBFFFE0
FF803FE0
FF803FE0
FF803FE0
FF803FE0
FF803FE0
FF803FE0
FF803FE0
FF803FE0
FF803FE0
FF803FE0
FF803FE0
FF803FE0
FF803FE0
ENDCHAR
STARTCHAR 00C5
ENCODING 197
SWIDTH 620 0
DWIDTH 31 0
BBX 27 48 2 0
BITMAP
001F0000
003FC000
007FE000
00FBE000
00E0F000
01E0F000
01E0F000
00E0F000
00F1E000
00FFE000
007FC000
003F8000
00040000
00FFE000
03FFF800
07FFFC00
0FFFFE00
1FFFFF00
3FFFFF80
3FFFFF80
7FFFFFC0
7FE0FFC0
7FC07FC0
7FC03FE0
FF803FE0
FF803FE0
FF803FE0
FFBFFFE0
FFBFFFE0
FFBFFFE0
FFBFFFE0
FFBFFFE0
FFBFFFE0
FFBFFFE0
FFBFFFE0
FF803FE0
FF803FE0
FF803FE0
FF803FE0
FF803FE0
FF803FE0
FF803FE0
FF803FE0
FF803FE0
FF803FE0
FF803FE0
FF803FE0
FF803FE0
ENDCHAR
STARTCHAR 00C6
ENCODING 198
SWIDTH 860 0
DWIDTH 43 0
BBX 39 36 2 0
BITMAP
0004000000
00FFE0007E
03FFF007FE
07FFFC3FFE
0FFFFE7FFE
1FFFFFFFFE
3FFFFFFFFE
3FFFFFFFFE
7FFFFFFFFE
7FE0FFFF80
7FC07FFC00
7FC03FF000
FF803FF000
FF803FE000
FF803FC000
FFBFFFFFFE
FFBFFFFFFE
FFBFFFFFFE
FFBFFFFFFE
FFBFFFFFFE
FFBFFFFFFE
FFBFFFFFFE
FF803FC000
FF803FE000
FF803FE000
FF803FF000
FF803FFC00
FF803FFF80
FF803FFFFE
FF803FFFFE
FF803FFFFE
FF803FFFFE
FF803FFFFE
FF803FFFFE
FF803FCFFE
FF803FC0FE
ENDCHAR
STARTCHAR 00C7
ENCODING 199
SWIDTH 500 0
DWIDTH 25 0
BBX 23 47 1 -12
BITMAP
0000FE
000FFE
007FFE
00FFFE
03FFFE
07FFFE
0FFFFE
1FFFFE
1FFFC0
3FFC00
3FF000
7FE000
7FE000
7FC000
7FC000
FFC000
FF8000
FF8000
FF8000
FF8000
7FC000
7FC000
7FE000
7FE000
3FF000
3FFC00
1FFF80
1FFFFE
0FFFFE
07FFFE
03FFFE
00FFFE
007FFE
001FFE
0007FE
000700
000600
0007C0
000FF0
000FF8
0000F8
000078
000078
00F9F8
00FFF0
00FFF0
000F80
ENDCHAR
STARTCHAR 00C8
ENCODING 200
SWIDTH 520 0
DWIDTH 26 0
BBX 23 47 1 0
BITMAP
007E00
003E00
001F00
001F80
000F80
0007C0
0003C0
0001E0
0000E0
000000
000000
000000
0000FE
000FFE
007FFE
00FFFE
03FFFE
07FFFE
0FFFFE
1FFFFE
1FFF00
3FFC00
3FF000
7FE000
7FE000
7FFFFE
7FFFFE
FFFFFE
FFFFFE
FFFFFE
FFFFFE
FFFFFE
7FFFFE
7FC000
7FC000
7FE000
3FF000
3FF800
1FFF00
1FFFFE
0FFFFE
07FFFE
03FFFE
00FFFE
007FFE
001FFE
0001FE
ENDCHAR
STARTCHAR 00C9
ENCODING 201
SWIDTH 520 0
DWIDTH 26 0
BBX 23 47 1 0
BITMAP
0000FC
0001F8
0001F0
0003E0
0003E0
0007C0
000780
000F00
000E00
000000
000000
000000
0000FE
000FFE
007FFE
00FFFE
03FFFE
07FFFE
0FFFFE
1FFFFE
1FFF00
3FFC00
3FF000
7FE000
7FE000
7FFFFE
7FFFFE
FFFFFE
FFFFFE
FFFFFE
FFFFFE
FFFFFE
7FFFFE
7FC000
7FC000
7FE000
3FF000
3FF800
1FFF00
1FFFFE
0FFFFE
07FFFE
03FFFE
00FFFE
007FFE
001FFE
0001FE
ENDCHAR
STARTCHAR 00CA
ENCODING 202
SWIDTH 520 0
DWIDTH 26 0
BBX 23 46 1 0
BITMAP
000FE0
000FE0
001FF0
001FF0
003EF8
003C78
00783C
00F03C
00F01E
000000
000000
0000FE
000FFE
007FFE
00FFFE
03FFFE
07FFFE
0FFFFE
1FFFFE
1FFF00
3FFC00
3FF000
7FE000
7FE000
7FFFFE
7FFFFE
FFFFFE
FFFFFE
FFFFFE
FFFFFE
FFFFFE
7FFFFE
7FC000
7FC000
7FE000
3FF000
3FF800
1FFF00
1FFFFE
0FFFFE
07FFFE
03FFFE
00FFFE
007FFE
001FFE
0001FE
ENDCHAR
STARTCHAR 00CB
ENCODING 203
SWIDTH 520 0
DWIDTH 26 0
BBX 23 46 1 0
BITMAP
003838
007C7C
00FC7E
00FCFE
00FC7E
007C7C
001010
000000
000000
000000
000000
0000FE
000FFE
007FFE
00FFFE
03FFFE
07FFFE
0FFFFE
1FFFFE
1FFF00
3FFC00
3FF000
7FE000
7FE000
7FFFFE
7FFFFE
FFFFFE
FFFFFE
FFFFFE
FFFFFE
FFFFFE
7FFFFE
7FC000
7FC000
7FE000
3FF000
3FF800
1FFF00
1FFFFE
0FFFFE
07FFFE
03FFFE
00FFFE
007FFE
001FFE
0001FE
ENDCHAR
STARTCHAR 00CC
ENCODING 204
SWIDTH 280 0
DWIDTH 14 0
BBX 11 47 0 0
BITMAP
FE00
7E00
3F00
1F00
0F80
0780
03C0
03C0
01E0
0000
0000
0000
1FE0
1FE0
1FE0
1FE0
1FE0
1FE0
1FE0
1FE0
1FE0
1FE0
1FE0
1FE0
1FE0
1FE0
1FE0
1FE0
1FE0
1FE0
1FE0
1FE0
1FE0
1FE0
1FE0
1FE0
1FE0
1FE0
1FE0
1FE0
1FE0
1FE0
1FE0
1FE0
1FE0
1FE0
1FE0
ENDCHAR
STARTCHAR 00CD
ENCODING 205
SWIDTH 280 0
DWIDTH 14 0
BBX 11 47 3 0
BITMAP
07E0
0FC0
1F80
1F00
3E00
3C00
7C00
7800
F000
0000
0000
0000
FF00
FF00
FF00
FF00
FF00
FF00
FF00
FF00
FF00
FF00
FF00
FF00
FF00
FF00
FF00
FF00
FF00
FF00
FF00
FF00
FF00
FF00
FF00
FF00
FF00
FF00
FF00
FF00
FF00
FF00
FF00
FF00
FF00
FF00
FF00
ENDCHAR
STARTCHAR 00CE
ENCODING 206
SWIDTH 280 0
DWIDTH 14 0
BBX 15 47 0 0
BITMAP
0FC0
1FE0
1FE0
3FF0
3CF0
7878
787C
F03C
E01E
0000
0000
0000
1FE0
1FE0
1FE0
1FE0
1FE0
1FE0
1FE0
1FE0
1FE0
1FE0
1FE0
1FE0
1FE0
1FE0
1FE0
1FE0
1FE0
1FE0
1FE0
1FE0
1FE0
1FE0
1FE0
1FE0
1FE0
1FE0
1FE0
1FE0
1FE0
1FE0
1FE0
1FE0
1FE0
1FE0
1FE0
ENDCHAR
STARTCHAR 00CF
ENCODING 207
SWIDTH 280 0
DWIDTH 14 0
BBX 15 46 0 0
BITMAP
7038
F87C
FCFC
FCFE
FCFC
F87C
2010
0000
0000
0000
0000
1FE0
1FE0
1FE0
1FE0
1FE0
1FE0
1FE0
1FE0
1FE0
1FE0
1FE0
1FE0
1FE0
1FE0
1FE0
1FE0
1FE0
1FE0
1FE0
1FE0
1FE0
1FE0
1FE0
1FE0
1FE0
1FE0
1FE0
1FE0
1FE0
1FE0
1FE0
1FE0
1FE0
1FE0
1FE0
ENDCHAR
STARTCHAR 00D0
ENCODING 208
SWIDTH 640 0
DWIDTH 32 0
BBX 31 35 0 0
BITMAP
1FFF0000
1FFFF000
1FFFFC00
1FFFFF00
1FFFFF80
1FFFFFC0
1FFFFFE0
1FFFFFF0
1FF1FFF0
1FF07FF8
1FF01FF8
1FF00FFC
1FF007FC
1FF007FC
FFFE03FE
FFFE03FE
FFFE03FE
FFFE03FE
FFFE03FE
1FF003FE
1FF003FE
1FF007FC
1FF007FC
1FF00FFC
1FF01FFC
1FF07FF8
1FF3FFF0
1FF7FFF0
1FF7FFE0
1FF7FFC0
1FF7FF80
1FF7FF00
1FF7FC00
1FF7F000
1FF78000
ENDCHAR
STARTCHAR 00D1
ENCODING 209
SWIDTH 660 0
DWIDTH 33 0
BBX 27 46 3 -1
BITMAP
00003800
00FC3800
01FFF000
01FFF000
03FFE000
0383C000
03800000
00000000
00000000
00000000
0C000000
7F001FE0
7F801FE0
FFC01FE0
FFE01FE0
FFE01FE0
FFF01FE0
FFF01FE0
FFF81FE0
FFFC1FE0
FFFC1FE0
FFFE1FE0
FFFE1FE0
FFFF1FE0
FEFF1FE0
FEFF9FE0
FF7F9FE0
FF7FDFE0
FF3FDFE0
FF1FFFE0
FF1FEFE0
FF0FFFE0
FF0FFFE0
FF07FFE0
FF07FFE0
FF03FFE0
FF03FFE0
FF01FFE0
FF00FFE0
FF00FFE0
FF007FE0
FF007FE0
FF003FE0
FF003FE0
FF001FE0
FF000FC0
ENDCHAR
STARTCHAR 00D2
ENCODING 210
SWIDTH 760 0
DWIDTH 38 0
BBX 36 48 1 -1
BITMAP
000FC00000
0007C00000
0007E00000
0003E00000
0001F00000
0000F80000
0000780000
00003C0000
00001C0000
0000000000
0000000000
0000300000
000FFF8000
003FFFE000
00FFFFF000
01FFFFFC00
03FFFFFE00
07FFFFFF00
0FFFFFFF80
1FFFFFFF80
1FFF07FFC0
3FF801FFC0
3FF000FFE0
7FE0007FE0
7FE0003FF0
7FC0001FF0
7FC0001FF0
FF80001FF0
FF80001FF0
FF80001FF0
FF80001FF0
FF80001FF0
7FC0001FF0
7FC0001FF0
7FE0003FF0
7FE0007FE0
3FF000FFE0
3FFC01FFC0
1FFF07FFC0
1FFFFFFF80
0FFFFFFF80
07FFFFFF00
03FFFFFE00
01FFFFFC00
00FFFFF800
003FFFE000
000FFF8000
0000780000
ENDCHAR
STARTCHAR 00D3
ENCODING 211
SWIDTH 760 0
DWIDTH 38 0
BBX 36 48 1 -1
BITMAP
00001F8000
00003F0000
00003E0000
00007C0000
00007C0000
0000F80000
0000F00000
0001E00000
0001C00000
0000000000
0000000000
0000300000
000FFF8000
003FFFE000
00FFFFF000
01FFFFFC00
03FFFFFE00
07FFFFFF00
0FFFFFFF80
1FFFFFFF80
1FFF07FFC0
3FF801FFC0
3FF000FFE0
7FE0007FE0
7FE0003FF0
7FC0001FF0
7FC0001FF0
FF80001FF0
FF80001FF0
FF80001FF0
FF80001FF0
FF80001FF0
7FC0001FF0
7FC0001FF0
7FE0003FF0
7FE0007FE0
3FF000FFE0
3FFC01FFC0
1FFF07FFC0
1FFFFFFF80
0FFFFFFF80
07FFFFFF00
03FFFFFE00
01FFFFFC00
00FFFFF800
003FFFE000
000FFF8000
0000780000
ENDCHAR
STARTCHAR 00D4
ENCODING 212
SWIDTH 760 0
DWIDTH 38 0
BBX 36 47 1 -1
BITMAP
0001F80000
0001FC0000
0003FE0000
0003FE0000
0007DF0000
000F8F0000
000F078000
001E078000
001C03C000
0000000000
0000300000
000FFF8000
003FFFE000
00FFFFF000
01FFFFFC00
03FFFFFE00
07FFFFFF00
0FFFFFFF80
1FFFFFFF80
1FFF07FFC0
3FF801FFC0
3FF000FFE0
7FE0007FE0
7FE0003FF0
7FC0001FF0
7FC0001FF0
FF80001FF0
FF80001FF0
FF80001FF0
FF80001FF0
FF80001FF0
7FC0001FF0
7FC0001FF0
7FE0003FF0
7FE0007FE0
3FF000FFE0
3FFC01FFC0
1FFF07FFC0
1FFFFFFF80
0FFFFFFF80
07FFFFFF00
03FFFFFE00
01FFFFFC00
00FFFFF800
003FFFE000
000FFF8000
0000780000
ENDCHAR
STARTCHAR 00D5
ENCODING 213
SWIDTH 760 0
DWIDTH 38 0
BBX 36 47 1 -1
BITMAP
000001C000
0007E1C000
000FFF8000
000FFF8000
001FFF0000
001C1E0000
0018000000
0000000000
0000000000
0000000000
0000300000
000FFF8000
003FFFE000
00FFFFF000
01FFFFFC00
03FFFFFE00
07FFFFFF00
0FFFFFFF80
1FFFFFFF80
1FFF07FFC0
3FF801FFC0
3FF000FFE0
7FE0007FE0
7FE0003FF0
7FC0001FF0
7FC0001FF0
FF80001FF0
FF80001FF0
FF80001FF0
FF80001FF0
FF80001FF0
7FC0001FF0
7FC0001FF0
7FE0003FF0
7FE0007FE0
3FF000FFE0
3FFC01FFC0
1FFF07FFC0
1FFFFFFF80
0FFFFFFF80
07FFFFFF00
03FFFFFE00
01FFFFFC00
00FFFFF800
003FFFE000
000FFF8000
0000780000
ENDCHAR
STARTCHAR 00D6
ENCODING 214
SWIDTH 760 0
DWIDTH 38 0
BBX 36 47 1 -1
BITMAP
0007070000
001F8F8000
001F8FC000
001F9FC000
001F8FC000
000F0F8000
0000020000
0000000000
0000000000
0000000000
0000300000
000FFF8000
003FFFE000
00FFFFF000
01FFFFFC00
03FFFFFE00
07FFFFFF00
0FFFFFFF80
1FFFFFFF80
1FFF07FFC0
3FF801FFC0
3FF000FFE0
7FE0007FE0
7FE0003FF0
7FC0001FF0
7FC0001FF0
FF80001FF0
FF80001FF0
FF80001FF0
FF80001FF0
FF80001FF0
7FC0001FF0
7FC0001FF0
7FE0003FF0
7FE0007FE0
3FF000FFE0
3FFC01FFC0
1FFF07FFC0
1FFFFFFF80
0FFFFFFF80
07FFFFFF00
03FFFFFE00
01FFFFFC00
00FFFFF800
003FFFE000
000FFF8000
0000780000
ENDCHAR
STARTCHAR 00D7
ENCODING 215
SWIDTH 820 0
DWIDTH 41 0
BBX 29 30 7 0
BITMAP
10000000
380000C0
7C0001E0
FE0003F0
FF0007F8
7F800FF0
3FC01FE0
1FE03FC0
0FF07F80
07F8FF00
03FDFE00
01FFFC00
00FFF800
007FF000
003FE000
003FE000
007FF000
00FFF800
01FFFC00
03FDFE00
07F8FF00
0FF07F80
1FE03FC0
3FC01FE0
7F800FF0
FF0007F8
FE0003F0
7C0001E0
380000C0
10000000
ENDCHAR
STARTCHAR 00D8
ENCODING 216
SWIDTH 760 0
DWIDTH 38 0
BBX 36 39 1 -2
BITMAP
0000000080
00002001C0
000FFF03E0
003FFFE7F0
00FFFFFFE0
01FFFFFFC0
03FFFFFF80
07FFFFFF00
0FFFFFFF80
1FFFFFFF80
1FFE03FFC0
3FF803FFC0
3FF007FFE0
7FE00FFFE0
7FC00FFFF0
7FC01F9FF0
7F803F1FF0
FF807E1FF0
FF80FC1FF0
FF81F80FF0
FF83F01FF0
FF87E01FF0
7FCFE01FF0
7FCFC01FF0
7FDF803FF0
7FFF003FE0
3FFE007FE0
3FFC00FFC0
1FFE03FFC0
1FFFFFFF80
0FFFFFFF80
0FFFFFFF00
1FFFFFFE00
1FFFFFFC00
3FFFFFF800
7E3FFFE000
7C0FFF8000
3C00700000
1800000000
ENDCHAR
STARTCHAR 00D9
ENCODING 217
SWIDTH 620 0
DWIDTH 31 0
BBX 27 48 2 -1
BITMAP
01F80000
00FC0000
007C0000
003E0000
003E0000
001F0000
000F0000
00078000
00038000
00000000
00000000
00000000
FF803FE0
FF803FE0
FF803FE0
FF803FE0
FF803FE0
FF803FE0
FF803FE0
FF803FE0
FF803FE0
FF803FE0
FF803FE0
FF803FE0
FF803FE0
FF803FE0
FF803FE0
FF803FE0
FF803FE0
FF803FE0
FF803FE0
FF803FE0
FF803FE0
FF803FE0
FF803FE0
FF803FE0
7FC03FE0
7FC07FC0
7FE0FFC0
7FFFFFC0
3FFFFF80
3FFFFF80
1FFFFF00
0FFFFE00
07FFFC00
03FFF800
00FFE000
001E0000
ENDCHAR
STARTCHAR 00DA
ENCODING 218
SWIDTH 620 0
DWIDTH 31 0
BBX 27 48 2 -1
BITMAP
0003F000
0003E000
0007E000
0007C000
000F8000
001F0000
001E0000
003C0000
00380000
00000000
00000000
00000000
FF803FE0
FF803FE0
FF803FE0
FF803FE0
FF803FE0
FF803FE0
FF803FE0
FF803FE0
FF803FE0
FF803FE0
FF803FE0
FF803FE0
FF803FE0
FF803FE0
FF803FE0
FF803FE0
FF803FE0
FF803FE0
FF803FE0
FF803FE0
FF803FE0
FF803FE0
FF803FE0
FF803FE0
7FC03FE0
7FC07FC0
7FE0FFC0
7FFFFFC0
3FFFFF80
3FFFFF80
1FFFFF00
0FFFFE00
07FFFC00
03FFF800
00FFE000
001E0000
ENDCHAR
STARTCHAR 00DB
ENCODING 219
SWIDTH 620 0
DWIDTH 31 0
BBX 27 48 2 -1
BITMAP
003F8000
003F8000
007FC000
007FE000
00FBE000
00F1F000
01E0F000
01C07800
03C03800
00000000
00000000
00000000
FF803FE0
FF803FE0
FF803FE0
FF803FE0
FF803FE0
FF803FE0
FF803FE0
FF803FE0
FF803FE0
FF803FE0
FF803FE0
FF803FE0
FF803FE0
FF803FE0
FF803FE0
FF803FE0
FF803FE0
FF803FE0
FF803FE0
FF803FE0
FF803FE0
FF803FE0
FF803FE0
FF803FE0
7FC03FE0
7FC07FC0
7FE0FFC0
7FFFFFC0
3FFFFF80
3FFFFF80
1FFFFF00
0FFFFE00
07FFFC00
03FFF800
00FFE000
001E0000
ENDCHAR
STARTCHAR 00DC
ENCODING 220
SWIDTH 620 0
DWIDTH 31 0
BBX 27 47 2 -1
BITMAP
00E06000
01F1F800
03F1F800
03F9F800
03F1F800
01F0F000
00400000
00000000
00000000
00000000
00000000
FF803FE0
FF803FE0
FF803FE0
FF803FE0
FF803FE0
FF803FE0
FF803FE0
FF803FE0
FF803FE0
FF803FE0
FF803FE0
FF803FE0
FF803FE0
FF803FE0
FF803FE0
FF803FE0
FF803FE0
FF803FE0
FF803FE0
FF803FE0
FF803FE0
FF803FE0
FF803FE0
FF803FE0
7FC03FE0
7FC07FC0
7FE0FFC0
7FFFFFC0
3FFFFF80
3FFFFF80
1FFFFF00
0FFFFE00
07FFFC00
03FFF800
00FFE000
001E0000
ENDCHAR
STARTCHAR 00DD
ENCODING 221
SWIDTH 560 0
DWIDTH 28 0
BBX 24 47 2 0
BITMAP
0007E0
000FC0
000F80
001F00
001E00
003E00
003C00
007800
00F000
000000
000000
000000
FF80FF
FF80FF
FF80FF
FF80FF
FF80FF
FF80FF
FF80FF
FF80FF
FF80FF
FF80FF
FF80FF
FF80FF
FF80FF
FF81FF
7FC1FF
7FFFFF
7FFFFE
3FFFFE
3FFFFC
1FFFF8
0FFFF0
07FFE0
01FFC0
00FF80
00FF80
00FF80
00FF80
00FF80
00FF80
00FF80
00FF80
00FF80
00FF80
00FF80
00FF80
ENDCHAR
STARTCHAR 00DE
ENCODING 222
SWIDTH 560 0
DWIDTH 28 0
BBX 26 36 2 0
BITMAP
FF800000
FF800000
FF800000
FF800000
FF800000
FFBF0000
FFFFE000
FFFFF800
FFFFFC00
FFFFFE00
FFFFFF00
FFFFFF00
FFFFFF80
FFFFFF80
FFC0FF80
FFC0FF80
FF807FC0
FF807FC0
FF80FF80
FF80FF80
FF81FF80
FF9FFF80
FF9FFF80
FF9FFF00
FF9FFE00
FF9FFE00
FF9FF800
FF9FF000
FF9FC000
FF900000
FF800000
FF800000
FF800000
FF800000
FF800000
FF800000
ENDCHAR
STARTCHAR 00DF
ENCODING 223
SWIDTH 580 0
DWIDTH 29 0
BBX 28 35 0 0
BITMAP
00FFC000
03FFF000
07FFF800
0FFFFC00
0FFFFE00
1FFFFE00
1FFBFE00
1FE1FE00
1FE1FE00
1FC1FE00
FFC1FE00
FFC1FC00
FFC3F800
FFC7F800
FFC7FC00
FFC7FF00
FFC3FF80
FFC1FFC0
1FC0FFC0
1FC07FE0
1FC03FF0
1FC01FF0
1FC00FF0
1FC00FF0
1FC007F0
1FC00FF0
1FC00FF0
1FC03FF0
1FCFFFF0
1FCFFFF0
1FCFFFE0
1FCFFFC0
1FCFFF80
1FCFFF00
1FCFF800
ENDCHAR
STARTCHAR 00E0
ENCODING 224
SWIDTH 560 0
DWIDTH 28 0
BBX 25 37 1 0
BITMAP
03F00000
01F80000
00F80000
00FC0000
007C0000
003E0000
001E0000
000F0000
00070000
00078000
00000000
00000000
00FF8000
03FFE000
07FFF800
0FFFFC00
1FFFFE00
3FFFFE00
7FFFFF00
7FFFFF00
7FC0FF80
FF80FF80
FF007F80
FF007F80
FF007F80
FF007F80
FF007F80
FF807F80
7FC07F80
7FFF7F80
7FFF7F80
3FFF7F80
1FFF7F80
1FFF7F80
0FFF7F80
03FF7F80
00FF7F80
ENDCHAR
STARTCHAR 00E1
ENCODING 225
SWIDTH 560 0
DWIDTH 28 0
BBX 25 37 1 0
BITMAP
0003F000
0007E000
0007C000
000FC000
000F8000
001F0000
001E0000
003C0000
00380000
00780000
00000000
00000000
00FF8000
03FFE000
07FFF800
0FFFFC00
1FFFFE00
3FFFFE00
7FFFFF00
7FFFFF00
7FC0FF80
FF80FF80
FF007F80
FF007F80
FF007F80
FF007F80
FF007F80
FF807F80
7FC07F80
7FFF7F80
7FFF7F80
3FFF7F80
1FFF7F80
1FFF7F80
0FFF7F80
03FF7F80
00FF7F80
ENDCHAR
STARTCHAR 00E2
ENCODING 226
SWIDTH 560 0
DWIDTH 28 0
BBX 25 37 1 0
BITMAP
003F0000
003F0000
007F8000
007FC000
00FFC000
01F3E000
01E1E000
03C0F000
03C0F000
07807800
00000000
00000000
00FF8000
03FFE000
07FFF800
0FFFFC00
1FFFFE00
3FFFFE00
7FFFFF00
7FFFFF00
7FC0FF80
FF80FF80
FF007F80
FF007F80
FF007F80
FF007F80
FF007F80
FF807F80
7FC07F80
7FFF7F80
7FFF7F80
3FFF7F80
1FFF7F80
1FFF7F80
0FFF7F80
03FF7F80
00FF7F80
ENDCHAR
STARTCHAR 00E3
ENCODING 227
SWIDTH 560 0
DWIDTH 28 0
BBX 25 35 1 0
BITMAP
00003800
00FE7000
01FFF000
03FFE000
03DFC000
07018000
00000000
00000000
00000000
00000000
00FF8000
03FFE000
07FFF800
0FFFFC00
1FFFFE00
3FFFFE00
7FFFFF00
7FFFFF00
7FC0FF80
FF80FF80
FF007F80
FF007F80
FF007F80
FF007F80
FF007F80
FF807F80
7FC07F80
7FFF7F80
7FFF7F80
3FFF7F80
1FFF7F80
1FFF7F80
0FFF7F80
03FF7F80
00FF7F80
ENDCHAR
STARTCHAR 00E4
ENCODING 228
SWIDTH 560 0
DWIDTH 28 0
BBX 25 35 1 0
BITMAP
01E1E000
03F3F000
03F3F000
03F3F000
03F3F000
01E1E000
00000000
00000000
00000000
00000000
00FF8000
03FFE000
07FFF800
0FFFFC00
1FFFFE00
3FFFFE00
7FFFFF00
7FFFFF00
7FC0FF80
FF80FF80
FF007F80
FF007F80
FF007F80
FF007F80
FF007F80
FF807F80
7FC07F80
7FFF7F80
7FFF7F80
3FFF7F80
1FFF7F80
1FFF7F80
0FFF7F80
03FF7F80
00FF7F80
ENDCHAR
STARTCHAR 00E5
ENCODING 229
SWIDTH 560 0
DWIDTH 28 0
BBX 25 40 1 0
BITMAP
001E0000
003FC000
007FE000
00FFE000
01F0F000
01E0F000
01E07000
01E0F000
01E0F000
00FBE000
00FFE000
007FC000
001F8000
00000000
00000000
00FF8000
03FFE000
07FFF800
0FFFFC00
1FFFFE00
3FFFFE00
7FFFFF00
7FFFFF00
7FC0FF80
FF80FF80
FF007F80
FF007F80
FF007F80
FF007F80
FF007F80
FF807F80
7FC07F80
7FFF7F80
7FFF7F80
3FFF7F80
1FFF7F80
1FFF7F80
0FFF7F80
03FF7F80
00FF7F80
ENDCHAR
STARTCHAR 00E6
ENCODING 230
SWIDTH 840 0
DWIDTH 42 0
BBX 41 25 0 0
BITMAP
03FF00FF8000
1FFFC3FFE000
3FFFE7FFF800
3FFFFFFFFC00
1FFFFFFFFE00
1FFFFFFFFE00
0E03FFE1FF00
0001FF80FF00
0007FF03FF80
007FFF0FFF80
03FFFF3FFE00
0FFFFE3FF800
1FFFFE1FE000
3FF8FE1F8000
7FC0FF1C0000
7F80FF001C00
7F01FF803E00
FF01FFC07F80
FF03FFFFFF80
7FFFFFFFFF00
7FFFFFFFFF00
7FFFEFFFFC00
3FFFC7FFF800
1FFF03FFF000
07FE00FFC000
ENDCHAR
STARTCHAR 00E7
ENCODING 231
SWIDTH 380 0
DWIDTH 19 0
BBX 18 37 1 -12
BITMAP
000FC0
00FFC0
03FFC0
0FFFC0
1FFFC0
3FFFC0
3FFFC0
7FFFC0
7FE000
7F8000
FF8000
FF0000
FF0000
FF0000
FF8000
7F8000
7FC000
7FFFC0
3FFFC0
3FFFC0
1FFFC0
0FFFC0
07FFC0
01FFC0
003FC0
003000
007000
007C00
007F00
007F80
000F80
000780
000780
079F80
07FF80
07FF00
00F800
ENDCHAR
STARTCHAR 00E8
ENCODING 232
SWIDTH 540 0
DWIDTH 27 0
BBX 26 37 1 0
BITMAP
03F00000
01F80000
01F80000
00FC0000
007C0000
003E0000
001E0000
000F0000
000F0000
00078000
00000000
00000000
007F8000
03FFE000
07FFF800
0FFFFC00
1FFFFC00
3FFFFE00
3FE0FF00
7F81FF00
7F87FE00
7F0FFC00
FF3FF000
FF3FE000
FF3F8000
FF1F0C00
FF0C1F00
7F881FC0
7FC07FC0
7FE0FF80
3FFFFF80
3FFFFF00
1FFFFE00
0FFFFC00
07FFF800
03FFF000
00FFC000
ENDCHAR
STARTCHAR 00E9
ENCODING 233
SWIDTH 540 0
DWIDTH 27 0
BBX 26 37 1 0
BITMAP
0003F000
0007E000
0007C000
000F8000
000F8000
001F0000
003E0000
003C0000
00780000
00700000
00000000
00000000
007F8000
03FFE000
07FFF800
0FFFFC00
1FFFFC00
3FFFFE00
3FE0FF00
7F81FF00
7F87FE00
7F0FFC00
FF3FF000
FF3FE000
FF3F8000
FF1F0C00
FF0C1F00
7F881FC0
7FC07FC0
7FE0FF80
3FFFFF80
3FFFFF00
1FFFFE00
0FFFFC00
07FFF800
03FFF000
00FFC000
ENDCHAR
STARTCHAR 00EA
ENCODING 234
SWIDTH 540 0
DWIDTH 27 0
BBX 26 37 1 0
BITMAP
003F0000
007F0000
007F8000
00FF8000
00FFC000
01F3C000
01E1E000
03C1E000
0380F000
07807800
00000000
00000000
007F8000
03FFE000
07FFF800
0FFFFC00
1FFFFC00
3FFFFE00
3FE0FF00
7F81FF00
7F87FE00
7F0FFC00
FF3FF000
FF3FE000
FF3F8000
FF1F0C00
FF0C1F00
7F881FC0
7FC07FC0
7FE0FF80
3FFFFF80
3FFFFF00
1FFFFE00
0FFFFC00
07FFF800
03FFF000
00FFC000
ENDCHAR
STARTCHAR 00EB
ENCODING 235
SWIDTH 540 0
DWIDTH 27 0
BBX 26 35 1 0
BITMAP
01E1E000
03E3F000
07F3F000
07F3F000
03E3F000
01E1E000
00000000
00000000
00000000
00000000
007F8000
03FFE000
07FFF800
0FFFFC00
1FFFFC00
3FFFFE00
3FE0FF00
7F81FF00
7F87FE00
7F0FFC00
FF3FF000
FF3FE000
FF3F8000
FF1F0C00
FF0C1F00
7F881FC0
7FC07FC0
7FE0FF80
3FFFFF80
3FFFFF00
1FFFFE00
0FFFFC00
07FFF800
03FFF000
00FFC000
ENDCHAR
STARTCHAR 00EC
ENCODING 236
SWIDTH 240 0
DWIDTH 12 0
BBX 11 37 -1 0
BITMAP
FC00
7E00
3E00
1F00
1F80
0F80
07C0
03C0
01E0
00E0
0000
0000
1FE0
1FE0
1FE0
1FE0
1FE0
1FE0
1FE0
1FE0
1FE0
1FE0
1FE0
1FE0
1FE0
1FE0
1FE0
1FE0
1FE0
1FE0
1FE0
1FE0
1FE0
1FE0
1FE0
1FE0
1FE0
ENDCHAR
STARTCHAR 00ED
ENCODING 237
SWIDTH 240 0
DWIDTH 12 0
BBX 11 37 2 0
BITMAP
07E0
07E0
0FC0
1F80
1F00
3E00
3C00
7800
7800
F000
0000
0000
FF00
FF00
FF00
FF00
FF00
FF00
FF00
FF00
FF00
FF00
FF00
FF00
FF00
FF00
FF00
FF00
FF00
FF00
FF00
FF00
FF00
FF00
FF00
FF00
FF00
ENDCHAR
STARTCHAR 00EE
ENCODING 238
SWIDTH 240 0
DWIDTH 12 0
BBX 15 37 -1 0
BITMAP
0FC0
0FE0
1FE0
1FF0
3EF0
3CF8
7878
783C
F01C
E01E
0000
0000
1FE0
1FE0
1FE0
1FE0
1FE0
1FE0
1FE0
1FE0
1FE0
1FE0
1FE0
1FE0
1FE0
1FE0
1FE0
1FE0
1FE0
1FE0
1FE0
1FE0
1FE0
1FE0
1FE0
1FE0
1FE0
ENDCHAR
STARTCHAR 00EF
ENCODING 239
SWIDTH 240 0
DWIDTH 12 0
BBX 15 35 -1 0
BITMAP
7838
FC7C
FCFE
FCFE
FC7C
787C
0000
0000
0000
0000
1FE0
1FE0
1FE0
1FE0
1FE0
1FE0
1FE0
1FE0
1FE0
1FE0
1FE0
1FE0
1FE0
1FE0
1FE0
1FE0
1FE0
1FE0
1FE0
1FE0
1FE0
1FE0
1FE0
1FE0
1FE0
ENDCHAR
STARTCHAR 00F0
ENCODING 240
SWIDTH 520 0
DWIDTH 26 0
BBX 24 36 1 -1
BITMAP
07F800
03FC60
01FFF0
01FFF0
00FFF0
03FFC0
0FFF80
0FFFC0
07BFC0
041FE0
001FF0
000FF0
01EFF8
07F7FC
0FF3FC
1FFBFE
3FF9FE
7FFDFE
7FC0FF
7F80FF
FF807F
FF007F
FF007F
FF007F
FF007F
FF80FF
7F80FF
7FE3FF
7FFFFE
3FFFFE
1FFFFC
1FFFF8
0FFFF0
03FFE0
01FF80
000800
ENDCHAR
STARTCHAR 00F1
ENCODING 241
SWIDTH 520 0
DWIDTH 26 0
BBX 23 35 2 0
BITMAP
0000E0
03F9E0
07FFC0
07FFC0
0F7F80
0E0000
000000
000000
000000
000000
01FE00
07FF80
0FFFE0
1FFFF0
3FFFF8
7FFFF8
7FFFFC
7FCFFC
FF83FC
FF01FE
FF01FE
FF01FE
FF01FE
FF01FE
FF01FE
FF01FE
FF01FE
FF01FE
FF01FE
FF01FE
FF01FE
FF01FE
FF01FE
FF01FE
FF01FE
ENDCHAR
STARTCHAR 00F2
ENCODING 242
SWIDTH 540 0
DWIDTH 27 0
BBX 25 37 1 0
BITMAP
03F00000
01F00000
01F80000
00FC0000
007C0000
003E0000
001E0000
000F0000
000F0000
00078000
00000000
00000000
00FF8000
03FFE000
07FFF800
0FFFFC00
1FFFFC00
3FFFFE00
3FFFFF00
7FFFFF00
7FC1FF80
7F80FF80
FF807F80
FF007F80
FF007F80
FF007F80
FF807F80
7F80FF80
7FC0FF80
7FF7FF00
3FFFFF00
3FFFFE00
1FFFFE00
0FFFFC00
07FFF800
03FFE000
00FFC000
ENDCHAR
STARTCHAR 00F3
ENCODING 243
SWIDTH 540 0
DWIDTH 27 0
BBX 25 37 1 0
BITMAP
0003F000
0007E000
0007C000
000F8000
001F8000
001F0000
003E0000
003C0000
00780000
00700000
00000000
00000000
00FF8000
03FFE000
07FFF800
0FFFFC00
1FFFFC00
3FFFFE00
3FFFFF00
7FFFFF00
7FC1FF80
7F80FF80
FF807F80
FF007F80
FF007F80
FF007F80
FF807F80
7F80FF80
7FC0FF80
7FF7FF00
3FFFFF00
3FFFFE00
1FFFFE00
0FFFFC00
07FFF800
03FFE000
00FFC000
ENDCHAR
STARTCHAR 00F4
ENCODING 244
SWIDTH 540 0
DWIDTH 27 0
BBX 25 37 1 0
BITMAP
003F0000
007F0000
007F8000
00FF8000
00FFC000
01F3C000
01E1E000
03C1E000
0380F000
07807000
00000000
00000000
00FF8000
03FFE000
07FFF800
0FFFFC00
1FFFFC00
3FFFFE00
3FFFFF00
7FFFFF00
7FC1FF80
7F80FF80
FF807F80
FF007F80
FF007F80
FF007F80
FF807F80
7F80FF80
7FC0FF80
7FF7FF00
3FFFFF00
3FFFFE00
1FFFFE00
0FFFFC00
07FFF800
03FFE000
00FFC000
ENDCHAR
STARTCHAR 00F5
ENCODING 245
SWIDTH 540 0
DWIDTH 27 0
BBX 25 35 1 0
BITMAP
00003000
01FC7000
03FFF000
03FFE000
03DFC000
07010000
00000000
00000000
00000000
00000000
00FF8000
03FFE000
07FFF800
0FFFFC00
1FFFFC00
3FFFFE00
3FFFFF00
7FFFFF00
7FC1FF80
7F80FF80
FF807F80
FF007F80
FF007F80
FF007F80
FF807F80
7F80FF80
7FC0FF80
7FF7FF00
3FFFFF00
3FFFFE00
1FFFFE00
0FFFFC00
07FFF800
03FFE000
00FFC000
ENDCHAR
STARTCHAR 00F6
ENCODING 246
SWIDTH 540 0
DWIDTH 27 0
BBX 25 35 1 0
BITMAP
01C1E000
03E3F000
07F3F000
07F3F000
03E3F000
03E1E000
00000000
00000000
00000000
00000000
00FF8000
03FFE000
07FFF800
0FFFFC00
1FFFFC00
3FFFFE00
3FFFFF00
7FFFFF00
7FC1FF80
7F80FF80
FF807F80
FF007F80
FF007F80
FF007F80
FF807F80
7F80FF80
7FC0FF80
7FF7FF00
3FFFFF00
3FFFFE00
1FFFFE00
0FFFFC00
07FFF800
03FFE000
00FFC000
ENDCHAR
STARTCHAR 00F7
ENCODING 247
SWIDTH 820 0
DWIDTH 41 0
BBX 29 28 6 1
BITMAP
00078000
000FC000
001FC000
001FE000
001FE000
001FE000
001FC000
000F8000
00000000
00000000
00000000
FFFFFFF8
FFFFFFF8
FFFFFFF8
FFFFFFF8
FFFFFFF8
FFFFFFF8
00000000
00000000
00000000
00078000
000FC000
001FE000
001FE000
001FE000
001FE000
000FC000
00078000
ENDCHAR
STARTCHAR 00F8
ENCODING 248
SWIDTH 540 0
DWIDTH 27 0
BBX 25 29 1 -2
BITMAP
00000600
00000700
00FF8F80
03FFFF80
07FFFF00
0FFFFE00
1FFFFE00
3FFFFE00
3FFFFF00
7FE3FF00
7F83FF80
7F87FF80
FF0FFF80
FF1F3F80
FF3E3F80
FF7E3F80
FF7C7F80
7FF87F80
7FF0FF80
7FE1FF00
3FFFFF00
3FFFFE00
1FFFFE00
3FFFFC00
7FFFF800
7FFFF000
FCFFC000
78000000
30000000
ENDCHAR
STARTCHAR 00F9
ENCODING 249
SWIDTH 520 0
DWIDTH 26 0
BBX 23 37 2 0
BITMAP
0FE000
07E000
03F000
01F000
00F800
00F800
007C00
003C00
001E00
000E00
000000
000000
FF01FE
FF01FE
FF01FE
FF01FE
FF01FE
FF01FE
FF01FE
FF01FE
FF01FE
FF01FE
FF01FE
FF01FE
FF01FE
FF01FE
FF01FE
FF01FE
FF03FC
7FC7FC
7FFFFC
7FFFF8
3FFFF8
1FFFF0
0FFFE0
07FFC0
01FF00
ENDCHAR
STARTCHAR 00FA
ENCODING 250
SWIDTH 520 0
DWIDTH 26 0
BBX 23 37 2 0
BITMAP
000FE0
000FC0
001F80
001F00
003E00
003C00
007800
007800
00F000
01E000
000000
000000
FF01FE
FF01FE
FF01FE
FF01FE
FF01FE
FF01FE
FF01FE
FF01FE
FF01FE
FF01FE
FF01FE
FF01FE
FF01FE
FF01FE
FF01FE
FF01FE
FF03FC
7FC7FC
7FFFFC
7FFFF8
3FFFF8
1FFFF0
0FFFE0
07FFC0
01FF00
ENDCHAR
STARTCHAR 00FB
ENCODING 251
SWIDTH 520 0
DWIDTH 26 0
BBX 23 37 2 0
BITMAP
00FC00
00FE00
01FE00
01FF00
03EF00
03CF80
07C7C0
0783C0
0F01E0
0E00E0
000000
000000
FF01FE
FF01FE
FF01FE
FF01FE
FF01FE
FF01FE
FF01FE
FF01FE
FF01FE
FF01FE
FF01FE
FF01FE
FF01FE
FF01FE
FF01FE
FF01FE
FF03FC
7FC7FC
7FFFFC
7FFFF8
3FFFF8
1FFFF0
0FFFE0
07FFC0
01FF00
ENDCHAR
STARTCHAR 00FC
ENCODING 252
SWIDTH 520 0
DWIDTH 26 0
BBX 23 35 2 0
BITMAP
0783C0
0FC7C0
0FC7E0
0FC7E0
0FC7E0
0783C0
000000
000000
000000
000000
FF01FE
FF01FE
FF01FE
FF01FE
FF01FE
FF01FE
FF01FE
FF01FE
FF01FE
FF01FE
FF01FE
FF01FE
FF01FE
FF01FE
FF01FE
FF01FE
FF03FC
7FC7FC
7FFFFC
7FFFF8
3FFFF8
1FFFF0
0FFFE0
07FFC0
01FF00
ENDCHAR
STARTCHAR 00FD
ENCODING 253
SWIDTH 520 0
DWIDTH 26 0
BBX 23 48 2 -11
BITMAP
000FE0
000FC0
001F80
001F00
003E00
003C00
007800
007800
00F000
01E000
000000
000000
FF01FE
FF01FE
FF01FE
FF01FE
FF01FE
FF01FE
FF01FE
FF01FE
FF01FE
FF01FE
FF01FE
FF01FE
FF01FE
FF01FE
FF01FE
FF01FE
FF03FC
FF87FC
7FFFFC
7FFFF8
3FFFF8
3FFFF0
1FFFE0
07FFC0
03FF00
01FE00
01FE00
01FE00
01FE00
01FE00
01FE00
01FE00
01FE00
01FE00
01FE00
01FE00
ENDCHAR
STARTCHAR 00FE
ENCODING 254
SWIDTH 560 0
DWIDTH 28 0
BBX 25 46 2 -11
BITMAP
FF000000
FF000000
FF000000
FF000000
FF000000
FF000000
FF000000
FF000000
FF000000
FF000000
FFFF8000
FFFFE000
FFFFF000
FFFFF800
FFFFFC00
FFFFFE00
FFFFFF00
FFFFFF00
FFC1FF00
FF80FF80
FF007F80
FF007F80
FF007F80
FF007F80
FF007F80
FF00FF80
FF01FF00
FF7FFF00
FF7FFF00
FF7FFE00
FF7FFC00
FF7FFC00
FF7FF800
FF7FE000
FF7F8000
FF000000
FF000000
FF000000
FF000000
FF000000
FF000000
FF000000
FF000000
FF000000
FF000000
FF000000
ENDCHAR
STARTCHAR 00FF
ENCODING 255
SWIDTH 520 0
DWIDTH 26 0
BBX 23 46 2 -11
BITMAP
0783C0
0FC7C0
0FC7E0
0FC7E0
0FC7E0
0783C0
000000
000000
000000
000000
FF01FE
FF01FE
FF01FE
FF01FE
FF01FE
FF01FE
FF01FE
FF01FE
FF01FE
FF01FE
FF01FE
FF01FE
FF01FE
FF01FE
FF01FE
FF01FE
FF03FC
FF87FC
7FFFFC
7FFFF8
3FFFF8
3FFFF0
1FFFE0
07FFC0
03FF00
01FE00
01FE00
01FE00
01FE00
01FE00
01FE00
01FE00
01FE00
01FE00
01FE00
01FE00
ENDCHAR
STARTCHAR 0102
ENCODING 258
SWIDTH 620 0
DWIDTH 31 0
BBX 27 45 2 0
BITMAP
03803800
03C03800
01C07800
01FFF000
01FFF000
00FFE000
003FC000
00000000
00000000
00040000
00FFE000
03FFF800
07FFFC00
0FFFFE00
1FFFFF00
3FFFFF80
3FFFFF80
7FFFFFC0
7FE0FFC0
7FC07FC0
7FC03FE0
FF803FE0
FF803FE0
FF803FE0
FFBFFFE0
FFBFFFE0
FFBFFFE0
FFBFFFE0
FFBFFFE0
FFBFFFE0
FFBFFFE0
FFBFFFE0
FF803FE0
FF803FE0
FF803FE0
FF803FE0
FF803FE0
FF803FE0
FF803FE0
FF803FE0
FF803FE0
FF803FE0
FF803FE0
FF803FE0
FF803FE0
ENDCHAR
STARTCHAR 0103
ENCODING 259
SWIDTH 560 0
DWIDTH 28 0
BBX 25 36 1 0
BITMAP
03803800
03807000
03807000
03E1F000
01FFE000
01FFE000
00FFC000
000C0000
00000000
00000000
00000000
00FF8000
03FFE000
07FFF800
0FFFFC00
1FFFFE00
3FFFFE00
7FFFFF00
7FFFFF00
7FC0FF80
FF80FF80
FF007F80
FF007F80
FF007F80
FF007F80
FF007F80
FF807F80
7FC07F80
7FFF7F80
7FFF7F80
3FFF7F80
1FFF7F80
1FFF7F80
0FFF7F80
03FF7F80
00FF7F80
ENDCHAR
STARTCHAR 0106
ENCODING 262
SWIDTH 500 0
DWIDTH 25 0
BBX 23 47 1 0
BITMAP
0000FC
0001F8
0001F0
0003F0
0003E0
0007C0
000780
000F00
000E00
000000
000000
000000
0000FE
000FFE
007FFE
00FFFE
03FFFE
07FFFE
0FFFFE
1FFFFE
1FFFC0
3FFC00
3FF000
7FE000
7FE000
7FC000
7FC000
FFC000
FF8000
FF8000
FF8000
FF8000
7FC000
7FC000
7FE000
7FE000
3FF000
3FFC00
1FFF80
1FFFFE
0FFFFE
07FFFE
03FFFE
00FFFE
007FFE
001FFE
0001FE
ENDCHAR
STARTCHAR 0107
ENCODING 263
SWIDTH 380 0
DWIDTH 19 0
BBX 19 37 1 0
BITMAP
000FE0
000FC0
001F80
001F00
003E00
003C00
007C00
007800
00F000
00E000
000000
000000
000FC0
00FFC0
03FFC0
0FFFC0
1FFFC0
3FFFC0
3FFFC0
7FFFC0
7FE000
7F8000
FF8000
FF0000
FF0000
FF0000
FF8000
7F8000
7FC000
7FFFC0
3FFFC0
3FFFC0
1FFFC0
0FFFC0
07FFC0
01FFC0
003FC0
ENDCHAR
STARTCHAR 010C
ENCODING 268
SWIDTH 500 0
DWIDTH 25 0
BBX 23 47 1 0
BITMAP
00F01E
00783C
00783C
003C78
003EF8
001FF0
001FF0
000FE0
000FE0
000000
000000
000000
0000FE
000FFE
007FFE
00FFFE
03FFFE
07FFFE
0FFFFE
1FFFFE
1FFFC0
3FFC00
3FF000
7FE000
7FE000
7FC000
7FC000
FFC000
FF8000
FF8000
FF8000
FF8000
7FC000
7FC000
7FE000
7FE000
3FF000
3FFC00
1FFF80
1FFFFE
0FFFFE
07FFFE
03FFFE
00FFFE
007FFE
001FFE
0001FE
ENDCHAR
STARTCHAR 010D
ENCODING 269
SWIDTH 380 0
DWIDTH 19 0
BBX 19 37 1 0
BITMAP
0E00E0
0F01E0
0783C0
07C7C0
03E780
01EF80
01FF00
00FF00
00FE00
007C00
000000
000000
000FC0
00FFC0
03FFC0
0FFFC0
1FFFC0
3FFFC0
3FFFC0
7FFFC0
7FE000
7F8000
FF8000
FF0000
FF0000
FF0000
FF8000
7F8000
7FC000
7FFFC0
3FFFC0
3FFFC0
1FFFC0
0FFFC0
07FFC0
01FFC0
003FC0
ENDCHAR
STARTCHAR 0110
ENCODING 272
SWIDTH 640 0
DWIDTH 32 0
BBX 31 35 0 0
BITMAP
1FFF0000
1FFFF000
1FFFFC00
1FFFFF00
1FFFFF80
1FFFFFC0
1FFFFFE0
1FFFFFF0
1FF1FFF0
1FF07FF8
1FF01FF8
1FF00FFC
1FF007FC
1FF007FC
FFFE03FE
FFFE03FE
FFFE03FE
FFFE03FE
FFFE03FE
1FF003FE
1FF003FE
1FF007FC
1FF007FC
1FF00FFC
1FF01FFC
1FF07FF8
1FF3FFF0
1FF7FFF0
1FF7FFE0
1FF7FFC0
1FF7FF80
1FF7FF00
1FF7FC00
1FF7F000
1FF78000
ENDCHAR
STARTCHAR 0111
ENCODING 273
SWIDTH 560 0
DWIDTH 28 0
BBX 27 35 1 0
BITMAP
00007F80
00007F80
00007F80
001FFFE0
001FFFE0
001FFFE0
001FFFE0
00007F80
00007F80
00007F80
00FF7F80
03FF7F80
07FF7F80
0FFF7F80
1FFF7F80
3FFF7F80
3FFF7F80
7FFF7F80
7FC07F80
FF807F80
FF807F80
FF007F80
FF007F80
FF007F80
FF007F80
FF807F80
7FC0FF00
7FF7FF00
7FFFFF00
3FFFFE00
1FFFFE00
1FFFFC00
0FFFF800
03FFF000
00FFC000
ENDCHAR
STARTCHAR 011E
ENCODING 286
SWIDTH 760 0
DWIDTH 38 0
BBX 36 47 1 -1
BITMAP
001C01C000
001C03C000
001E078000
000FFF8000
000FFF0000
0007FE0000
0001FC0000
0000000000
0000000000
0000000000
0000300000
000FFF8000
003FFFF000
00FFFFF800
01FFFFFE00
03FFFFFF00
07FFFFFF00
0FFFFFFE00
1FFFFFFC00
1FFE03F800
3FF800F000
3FF0002000
7FE0000000
7FE0000000
7FC03FFFF0
7FC03FFFF0
7FC03FFFF0
FF803FFFF0
FF803FFFF0
FF803FFFF0
7FC03FFFF0
7FC03FFFF0
7FC0003FF0
7FE0003FE0
7FE0007FE0
3FF000FFE0
3FFC01FFC0
1FFF07FFC0
1FFFFFFF80
0FFFFFFF00
07FFFFFF00
03FFFFFE00
01FFFFFC00
00FFFFF800
003FFFE000
000FFF8000
0000700000
ENDCHAR
STARTCHAR 011F
ENCODING 287
SWIDTH 560 0
DWIDTH 28 0
BBX 25 47 1 -11
BITMAP
03807800
03807000
03807000
03E1F000
01FFE000
01FFE000
00FFC000
000C0000
00000000
00000000
00000000
00FF8000
03FFE000
07FFF800
0FFFFC00
1FFFFE00
3FFFFE00
3FFFFF00
7FFFFF00
7FC0FF80
7F80FF80
FF807F80
FF007F80
FF007F80
FF007F80
FF007F80
7F807F80
7FC07F80
7FFF7F80
3FFF7F80
3FFF7F80
1FFF7F80
0FFF7F80
07FF7F80
03FF7F80
007F7F80
00007F80
00007F80
0000FF80
0F03FF00
0FFFFF00
0FFFFE00
0FFFFE00
0FFFFC00
0FFFF800
0FFFE000
03FF8000
ENDCHAR
STARTCHAR 0128
ENCODING 296
SWIDTH 280 0
DWIDTH 14 0
BBX 16 46 -1 0
BITMAP
0007
1F0E
3FFE
7FFE
7FFC
7078
E000
0000
0000
0000
0000
0FF0
0FF0
0FF0
0FF0
0FF0
0FF0
0FF0
0FF0
0FF0
0FF0
0FF0
0FF0
0FF0
0FF0
0FF0
0FF0
0FF0
0FF0
0FF0
0FF0
0FF0
0FF0
0FF0
0FF0
0FF0
0FF0
0FF0
0FF0
0FF0
0FF0
0FF0
0FF0
0FF0
0FF0
0FF0
ENDCHAR
STARTCHAR 0129
ENCODING 297
SWIDTH 240 0
DWIDTH 12 0
BBX 15 35 -1 0
BITMAP
000E
3F9E
7FFC
7FFC
F7F8
E000
0000
0000
0000
0000
1FE0
1FE0
1FE0
1FE0
1FE0
1FE0
1FE0
1FE0
1FE0
1FE0
1FE0
1FE0
1FE0
1FE0
1FE0
1FE0
1FE0
1FE0
1FE0
1FE0
1FE0
1FE0
1FE0
1FE0
1FE0
ENDCHAR
STARTCHAR 0130
ENCODING 304
SWIDTH 280 0
DWIDTH 14 0
BBX 8 46 3 0
BITMAP
3C
7E
7E
7E
7E
3C
00
00
00
00
00
FF
FF
FF
FF
FF
FF
FF
FF
FF
FF
FF
FF
FF
FF
FF
FF
FF
FF
FF
FF
FF
FF
FF
FF
FF
FF
FF
FF
FF
FF
FF
FF
FF
FF
FF
ENDCHAR
STARTCHAR 0131
ENCODING 305
SWIDTH 240 0
DWIDTH 12 0
BBX 8 25 2 0
BITMAP
FF
FF
FF
FF
FF
FF
FF
FF
FF
FF
FF
FF
FF
FF
FF
FF
FF
FF
FF
FF
FF
FF
FF
FF
FF
ENDCHAR
STARTCHAR 0141
ENCODING 321
SWIDTH 440 0
DWIDTH 22 0
BBX 22 35 0 0
BITMAP
1FE000
1FE000
1FE000
1FE000
1FE000
1FE000
1FE000
1FE000
1FE080
1FE380
1FE780
1FFF80
1FFF80
1FFF80
1FFF00
1FFE00
3FF800
7FF000
FFE000
FFE000
FFE000
FFE000
FFE000
9FE000
1FF000
1FF000
1FF800
1FFFFC
1FFFFC
0FFFFC
0FFFFC
07FFFC
03FFFC
00FFFC
003FFC
ENDCHAR
STARTCHAR 0142
ENCODING 322
SWIDTH 260 0
DWIDTH 13 0
BBX 13 35 0 0
BITMAP
1FE0
1FE0
1FE0
1FE0
1FE0
1FE0
1FE0
1FE0
1FE0
1FE0
1FE0
1FE8
1FF8
1FF8
1FF8
1FF8
1FF0
7FE0
FFE0
FFE0
FFE0
FFE0
DFE0
1FE0
1FE0
1FE0
1FE0
1FE0
1FE0
1FE0
1FE0
1FE0
1FE0
1FE0
1FE0
ENDCHAR
STARTCHAR 0152
ENCODING 338
SWIDTH 1040 0
DWIDTH 52 0
BBX 49 37 1 -1
BITMAP
00002000000000
000FFF00003F80
003FFFC003FF80
00FFFFF01FFF80
01FFFFF83FFF80
03FFFFFC7FFF80
07FFFFFFFFFF80
0FFFFFFFFFFF80
1FFFFFFFFFFF80
1FFF07FFFFC000
3FF801FFFE0000
3FF000FFFC0000
7FE0007FF80000
7FE0003FF00000
7FC0001FFFFF80
7FC0001FFFFF80
FF80001FFFFF80
FF80001FFFFF80
FF80001FFFFF80
FF80001FFFFF80
FF80001FFFFF80
7FC0001FFFFF80
7FC0001FF00000
7FE0003FF00000
7FE0007FF80000
3FF000FFFC0000
3FFC01FFFE0000
1FFF07FFFFC000
1FFFFFFFFFFF80
0FFFFFFFFFFF80
07FFFFFFFFFF80
03FFFFFCFFFF80
01FFFFF83FFF80
00FFFFF01FFF80
003FFFE003FF80
000FFF00003F80
00006000000000
ENDCHAR
STARTCHAR 0153
ENCODING 339
SWIDTH 880 0
DWIDTH 44 0
BBX 43 25 1 0
BITMAP
00FF803FC000
03FFE0FFF000
07FFF3FFFC00
0FFFFFFFFE00
1FFFFFFFFF00
3FFFFFFFFF00
3FFFFFF07F80
7FFFFFC0FF80
7FC1FFC3FF00
7F80FF87FE00
FF807F9FF800
FF007F9FF000
FF007F9FC000
FF007F8F8400
FF807F860F80
7F80FFC40FE0
7FC0FFE03FE0
7FF7FFF07FC0
3FFFFFFFFFC0
3FFFFFFFFF80
1FFFFFFFFF00
0FFFFFFFFE00
07FFF3FFFC00
03FFE1FFF800
00FF807FE000
ENDCHAR
STARTCHAR 015E
ENCODING 350
SWIDTH 520 0
DWIDTH 26 0
BBX 23 47 2 -12
BITMAP
01FFF8
0FFFF8
1FFFF8
3FFFF8
7FFFF8
FFFFF8
FFFFF8
FFFFF8
FF8000
FF8000
FF8000
FFC000
FFE000
7FF800
7FFE00
3FFF80
1FFFC0
0FFFE0
03FFF8
01FFF8
007FFC
001FFE
000FFE
0007FE
0003FE
0003FE
000FFE
FFFFFE
FFFFFE
FFFFFC
FFFFFC
FFFFF8
FFFFF0
FFFFE0
FFFF00
001800
001800
003F00
003F80
003FC0
0003E0
0001E0
0003E0
03E7E0
03FFC0
03FF80
007E00
ENDCHAR
STARTCHAR 015F
ENCODING 351
SWIDTH 420 0
DWIDTH 21 0
BBX 18 37 2 -12
BITMAP
01FF80
1FFF80
3FFF80
7FFF80
FFFF80
FFFF80
FFFF80
FF0000
FF0000
FFC000
7FF000
3FFC00
1FFF00
0FFF80
03FF80
00FFC0
003FC0
003FC0
FFFFC0
FFFFC0
FFFFC0
FFFF80
FFFF80
FFFF00
FFFC00
00E000
00E000
00F800
00FE00
01FF00
001F00
000F00
000F00
1F3F00
1FFF00
1FFE00
01F800
ENDCHAR
STARTCHAR 0160
ENCODING 352
SWIDTH 520 0
DWIDTH 26 0
BBX 23 47 2 0
BITMAP
0F01E0
0783C0
0787C0
03C780
03EF80
01FF00
01FF00
00FE00
00FE00
000000
000000
000000
01FFF8
0FFFF8
1FFFF8
3FFFF8
7FFFF8
FFFFF8
FFFFF8
FFFFF8
FF8000
FF8000
FF8000
FFC000
FFE000
7FF800
7FFE00
3FFF80
1FFFC0
0FFFE0
03FFF8
01FFF8
007FFC
001FFE
000FFE
0007FE
0003FE
0003FE
000FFE
FFFFFE
FFFFFE
FFFFFC
FFFFFC
FFFFF8
FFFFF0
FFFFE0
FFFF00
ENDCHAR
STARTCHAR 0161
ENCODING 353
SWIDTH 420 0
DWIDTH 21 0
BBX 18 37 2 0
BITMAP
780780
3C0F00
3C0F00
1E1E00
1F3E00
0FFC00
0FF800
07F800
03F000
03F000
000000
000000
01FF80
1FFF80
3FFF80
7FFF80
FFFF80
FFFF80
FFFF80
FF0000
FF0000
FFC000
7FF000
3FFC00
1FFF00
0FFF80
03FF80
00FFC0
003FC0
003FC0
FFFFC0
FFFFC0
FFFFC0
FFFF80
FFFF80
FFFF00
FFFC00
ENDCHAR
STARTCHAR 0168
ENCODING 360
SWIDTH 620 0
DWIDTH 31 0
BBX 27 47 2 -1
BITMAP
00003800
00FC3800
01FFF000
01FFF000
03FFE000
0383C000
03000000
00000000
00000000
00000000
00000000
FF803FE0
FF803FE0
FF803FE0
FF803FE0
FF803FE0
FF803FE0
FF803FE0
FF803FE0
FF803FE0
FF803FE0
FF803FE0
FF803FE0
FF803FE0
FF803FE0
FF803FE0
FF803FE0
FF803FE0
FF803FE0
FF803FE0
FF803FE0
FF803FE0
FF803FE0
FF803FE0
FF803FE0
7FC03FE0
7FC07FC0
7FE0FFC0
7FFFFFC0
3FFFFF80
3FFFFF80
1FFFFF00
0FFFFE00
07FFFC00
03FFF800
00FFE000
001E0000
ENDCHAR
STARTCHAR 0169
ENCODING 361
SWIDTH 520 0
DWIDTH 26 0
BBX 23 35 2 0
BITMAP
0000E0
03F9E0
07FFC0
07FFC0
0F7F80
0E0200
000000
000000
000000
000000
FF01FE
FF01FE
FF01FE
FF01FE
FF01FE
FF01FE
FF01FE
FF01FE
FF01FE
FF01FE
FF01FE
FF01FE
FF01FE
FF01FE
FF01FE
FF01FE
FF03FC
7FC7FC
7FFFFC
7FFFF8
3FFFF8
1FFFF0
0FFFE0
07FFC0
01FF00
ENDCHAR
STARTCHAR 0178
ENCODING 376
SWIDTH 560 0
DWIDTH 28 0
BBX 24 46 2 0
BITMAP
0181C0
07E3E0
07E7F0
07E7F0
07E3F0
03C3E0
000080
000000
000000
000000
000000
FF80FF
FF80FF
FF80FF
FF80FF
FF80FF
FF80FF
FF80FF
FF80FF
FF80FF
FF80FF
FF80FF
FF80FF
FF80FF
FF81FF
7FC1FF
7FFFFF
7FFFFE
3FFFFE
3FFFFC
1FFFF8
0FFFF0
07FFE0
01FFC0
00FF80
00FF80
00FF80
00FF80
00FF80
00FF80
00FF80
00FF80
00FF80
00FF80
00FF80
00FF80
ENDCHAR
STARTCHAR 017D
ENCODING 381
SWIDTH 520 0
DWIDTH 26 0
BBX 25 47 1 0
BITMAP
0780F000
0381E000
03C3E000
01E3C000
01F7C000
00FF8000
00FF0000
007F0000
007E0000
00000000
00000000
00000000
7FFFFC00
7FFFFE00
7FFFFF00
7FFFFF80
7FFFFF80
7FFFFF80
7FFFFF80
7FFFFF80
0003FF00
0007FE00
000FFE00
001FFC00
001FF800
003FF000
007FF000
007FE000
00FFC000
01FFC000
03FF8000
03FF0000
07FE0000
0FFE0000
1FFC0000
1FF80000
3FF00000
7FF00000
7FE00000
FFFFFF80
FFFFFF80
FFFFFF80
FFFFFF80
FFFFFF80
FFFFFF80
7FFFFF80
1FFFFF80
ENDCHAR
STARTCHAR 017E
ENCODING 382
SWIDTH 440 0
DWIDTH 22 0
BBX 21 37 1 0
BITMAP
1C03C0
1E0380
0F0780
0F0F00
079F00
07FE00
03FE00
03FC00
01FC00
01F800
000000
000000
7FFF80
7FFFE0
7FFFF0
7FFFF8
7FFFF8
7FFFF8
7FFFF0
003FF0
007FE0
00FFC0
01FF80
03FF00
03FE00
07FE00
0FFC00
1FF800
3FF000
7FE000
FFFFF8
FFFFF8
FFFFF8
FFFFF8
FFFFF8
7FFFF8
3FFFF8
ENDCHAR
STARTCHAR 0192
ENCODING 402
SWIDTH 560 0
DWIDTH 28 0
BBX 25 46 1 -11
BITMAP
0000FF80
0003FF80
0007FF80
000FFF80
001FFF80
001FFF80
001FFF80
001FE000
003FE000
003FC000
003FC000
003FC000
003FC000
3FFFFF00
3FFFFF00
3FFFFF00
3FFFFF00
3FFFFF00
3FFFFF00
3FFFFF00
007F8000
007F8000
00FF8000
00FF8000
00FF0000
00FF0000
00FF0000
00FF0000
00FF0000
01FF0000
01FF0000
01FE0000
01FE0000
01FE0000
01FE0000
01FE0000
01FE0000
03FE0000
07FE0000
FFFC0000
FFFC0000
FFF80000
FFF80000
FFF00000
FFE00000
FF000000
ENDCHAR
STARTCHAR 01A0
ENCODING 416
SWIDTH 760 0
DWIDTH 38 0
BBX 37 39 1 -1
BITMAP
00000003F8
00000003F8
00003003F0
000FFF87F0
003FFFE7E0
00FFFFF7E0
01FFFFFFC0
03FFFFFFC0
07FFFFFF80
0FFFFFFF80
1FFFFFFF80
1FFF07FFC0
3FF801FFC0
3FF000FFE0
7FE0007FE0
7FE0003FF0
7FC0001FF0
7FC0001FF0
FF80001FF0
FF80001FF0
FF80001FF0
FF80001FF0
FF80001FF0
7FC0001FF0
7FC0001FF0
7FE0003FF0
7FE0007FE0
3FF000FFE0
3FFC01FFC0
1FFF07FFC0
1FFFFFFF80
0FFFFFFF80
07FFFFFF00
03FFFFFE00
01FFFFFC00
00FFFFF800
003FFFE000
000FFF8000
0000780000
ENDCHAR
STARTCHAR 01A1
ENCODING 417
SWIDTH 540 0
DWIDTH 27 0
BBX 28 29 1 0
BITMAP
000007F0
000007F0
000007E0
00000FE0
00FF8FC0
03FFEFC0
07FFFF80
0FFFFF80
1FFFFF00
3FFFFF00
3FFFFF00
7FFFFF00
7FC1FF80
7F80FF80
FF807F80
FF007F80
FF007F80
FF007F80
FF807F80
7F80FF80
7FC0FF80
7FF7FF00
3FFFFF00
3FFFFE00
1FFFFE00
0FFFFC00
07FFF800
03FFE000
00FFC000
ENDCHAR
STARTCHAR 01AF
ENCODING 431
SWIDTH 660 0
DWIDTH 33 0
BBX 34 39 2 -1
BITMAP
0000001FC0
0000001F80
0000003F80
FF803FFF00
FF803FFF00
FF803FFE00
FF803FFE00
FF803FFC00
FF803FFC00
FF803FF800
FF803FF800
FF803FE000
FF803FE000
FF803FE000
FF803FE000
FF803FE000
FF803FE000
FF803FE000
FF803FE000
FF803FE000
FF803FE000
FF803FE000
FF803FE000
FF803FE000
FF803FE000
FF803FE000
FF803FE000
7FC03FE000
7FC07FC000
7FE0FFC000
7FFFFFC000
3FFFFF8000
3FFFFF8000
1FFFFF0000
0FFFFE0000
07FFFC0000
03FFF80000
00FFE00000
001E000000
ENDCHAR
STARTCHAR 01B0
ENCODING 432
SWIDTH 560 0
DWIDTH 28 0
BBX 29 29 2 0
BITMAP
000003F8
000003F8
000003F0
000007F0
FF01FFE0
FF01FFE0
FF01FFC0
FF01FFC0
FF01FF80
FF01FF80
FF01FF00
FF01FE00
FF01FE00
FF01FE00
FF01FE00
FF01FE00
FF01FE00
FF01FE00
FF01FE00
FF01FE00
FF03FC00
7FC7FC00
7FFFFC00
7FFFF800
3FFFF800
1FFFF000
0FFFE000
07FFC000
01FF0000
ENDCHAR
STARTCHAR 02C6
ENCODING 710
SWIDTH 500 0
DWIDTH 25 0
BBX 15 10 5 27
BITMAP
07C0
0FE0
0FE0
1FF0
3EF8
3C78
7C7C
783C
F01E
E00E
ENDCHAR
STARTCHAR 02C7
ENCODING 711
SWIDTH 500 0
DWIDTH 25 0
BBX 15 10 5 27
BITMAP
E00E
F01E
783C
7C7C
3EF8
3EF8
1FF0
0FE0
0FE0
07C0
ENDCHAR
STARTCHAR 02C9
ENCODING 713
SWIDTH 500 0
DWIDTH 25 0
BBX 15 4 5 30
BITMAP
FFFE
FFFE
FFFE
FFFE
ENDCHAR
STARTCHAR 02D8
ENCODING 728
SWIDTH 500 0
DWIDTH 25 0
BBX 15 8 5 28
BITMAP
E00E
E00E
F01E
783C
7FFC
3FF8
1FF0
0380
ENDCHAR
STARTCHAR 02D9
ENCODING 729
SWIDTH 500 0
DWIDTH 25 0
BBX 7 7 9 29
BITMAP
10
7C
FE
FE
FE
7C
38
ENDCHAR
STARTCHAR 02DA
ENCODING 730
SWIDTH 500 0
DWIDTH 25 0
BBX 13 13 6 27
BITMAP
1FC0
3FE0
7FF0
F8F8
F078
F078
F078
F078
78F8
7FF0
3FE0
1FC0
0200
ENDCHAR
STARTCHAR 02DB
ENCODING 731
SWIDTH 500 0
DWIDTH 25 0
BBX 9 11 8 -11
BITMAP
0E00
1C00
3800
7000
7000
F000
F800
FF80
7F80
7F80
3F80
ENDCHAR
STARTCHAR 02DC
ENCODING 732
SWIDTH 500 0
DWIDTH 25 0
BBX 15 6 5 29
BITMAP
000E
3F9E
7FFC
7FFC
F7F8
E000
ENDCHAR
STARTCHAR 02DD
ENCODING 733
SWIDTH 500 0
DWIDTH 25 0
BBX 16 9 7 28
BITMAP
1F3F
1E3E
3E7C
3C7C
3C78
78F0
70E0
71E0
E1C0
ENDCHAR
STARTCHAR 0394
ENCODING 916
SWIDTH 700 0
DWIDTH 35 0
BBX 36 36 0 0
BITMAP
0007FE0000
0007FE0000
000FFF0000
000FFF0000
001FFF0000
001FFF8000
001FFF8000
003FFF8000
003FFFC000
003FFFC000
007FFFE000
007FBFE000
007F9FE000
00FF9FF000
00FF1FF000
01FF0FF000
01FF0FF800
01FE0FF800
03FE07FC00
03FE07FC00
03FC07FC00
07FC03FE00
07FC03FE00
07F803FE00
0FF801FF00
0FF801FF00
1FF001FF00
1FF000FF80
1FF000FF80
3FFFFFFFC0
3FFFFFFFC0
3FFFFFFFC0
7FFFFFFFE0
7FFFFFFFE0
FFFFFFFFE0
FFFFFFFFF0
ENDCHAR
STARTCHAR 03A9
ENCODING 937
SWIDTH 800 0
DWIDTH 40 0
BBX 38 37 1 0
BITMAP
0001FE0000
001FFFE000
007FFFF800
00FFFFFC00
01FFFFFF00
03FFFFFF80
07FFFFFF80
0FFFFFFFC0
1FFF03FFE0
1FFC00FFE0
1FF8007FF0
3FF0003FF0
3FF0003FF0
3FE0001FF0
3FE0001FF0
3FE0001FF0
3FE0001FF0
3FE0001FF0
3FE0001FF0
3FE0001FF0
3FE0001FF0
3FE0001FF0
1FF0003FE0
1FF0003FE0
0FF0003FC0
0FF8007FC0
07FC00FF80
03FE01FF00
01FF01FE00
FFFF01FFFC
FFFF01FFFC
FFFF01FFFC
FFFF01FFFC
FFFF01FFFC
FFFF01FFFC
FFFF01FFFC
FFFF01FFFC
ENDCHAR
STARTCHAR 03BC
ENCODING 956
SWIDTH 640 0
DWIDTH 32 0
BBX 32 37 -1 -10
BITMAP
03FC01FF
03FC01FF
07FC01FE
07FC01FE
07FC03FE
07FC03FE
07FC03FE
07F803FE
0FF803FC
0FF803FC
0FF807FC
0FF807FC
0FF807FC
0FF007FC
1FF007FC
1FF007F8
1FF00FF8
1FF00FF8
1FF01FF8
1FF81FF8
1FFC3FF8
3FFFFFF0
3FFFFFF0
3FFFFFF0
3FFFFFF0
3FDFEFF0
3FCFCFF0
7FC00000
7FC00000
7FC00000
7FC00000
7F800000
7F800000
7F800000
FF800000
FF800000
FF800000
ENDCHAR
STARTCHAR 03C0
ENCODING 960
SWIDTH 740 0
DWIDTH 37 0
BBX 38 27 0 0
BITMAP
003FFFFFFC
0FFFFFFFF8
1FFFFFFFF8
3FFFFFFFF8
3FFFFFFFF8
7FFFFFFFF8
7E7FC1FF00
FC7FC1FF00
FC7F81FF00
007F81FF00
00FF81FF00
00FF81FE00
00FF83FE00
00FF83FE00
00FF83FE00
00FF03FE00
00FF03FE00
01FF03FC00
01FF03FC00
01FF07FC00
01FF07FC00
01FE07FC00
01FE07FC00
03FE07FC00
03FE07F800
03FE0FF800
03FE0FF800
ENDCHAR
STARTCHAR 1EA0
ENCODING 7840
SWIDTH 620 0
DWIDTH 31 0
BBX 27 49 2 -13
BITMAP
00040000
00FFE000
03FFF800
07FFFC00
0FFFFE00
1FFFFF00
3FFFFF80
3FFFFF80
7FFFFFC0
7FE0FFC0
7FC07FC0
7FC03FE0
FF803FE0
FF803FE0
FF803FE0
FFBFFFE0
FFBFFFE0
FFBFFFE0
FFBFFFE0
FFBFFFE0
FFBFFFE0
FFBFFFE0
FFBFFFE0
FF803FE0
FF803FE0
FF803FE0
FF803FE0
FF803FE0
FF803FE0
FF803FE0
FF803FE0
FF803FE0
FF803FE0
FF803FE0
FF803FE0
FF803FE0
00000000
00000000
00000000
000E0000
003F8000
007FC000
007FC000
007FE000
007FE000
007FC000
007FC000
003F8000
001F0000
ENDCHAR
STARTCHAR 1EA1
ENCODING 7841
SWIDTH 560 0
DWIDTH 28 0
BBX 25 38 1 -13
BITMAP
00FF8000
03FFE000
07FFF800
0FFFFC00
1FFFFE00
3FFFFE00
7FFFFF00
7FFFFF00
7FC0FF80
FF80FF80
FF007F80
FF007F80
FF007F80
FF007F80
FF007F80
FF807F80
7FC07F80
7FFF7F80
7FFF7F80
3FFF7F80
1FFF7F80
1FFF7F80
0FFF7F80
03FF7F80
00FF7F80
00000000
00000000
00000000
000E0000
003F0000
007F8000
00FFC000
00FFC000
00FFC000
00FFC000
007F8000
007F8000
003F0000
ENDCHAR
STARTCHAR 1EA2
ENCODING 7842
SWIDTH 620 0
DWIDTH 31 0
BBX 27 48 2 0
BITMAP
000F0000
003FC000
003FC000
0079E000
0070E000
0000E000
0003E000
000FC000
000F8000
000E0000
000E0000
00000000
00040000
00FFE000
03FFF800
07FFFC00
0FFFFE00
1FFFFF00
3FFFFF80
3FFFFF80
7FFFFFC0
7FE0FFC0
7FC07FC0
7FC03FE0
FF803FE0
FF803FE0
FF803FE0
FFBFFFE0
FFBFFFE0
FFBFFFE0
FFBFFFE0
FFBFFFE0
FFBFFFE0
FFBFFFE0
FFBFFFE0
FF803FE0
FF803FE0
FF803FE0
FF803FE0
FF803FE0
FF803FE0
FF803FE0
FF803FE0
FF803FE0
FF803FE0
FF803FE0
FF803FE0
FF803FE0
ENDCHAR
STARTCHAR 1EA3
ENCODING 7843
SWIDTH 560 0
DWIDTH 28 0
BBX 25 38 1 0
BITMAP
003F0000
007F8000
007FC000
00F1C000
0061C000
0001C000
000FC000
000F8000
000F0000
000C0000
000C0000
00000000
00000000
00FF8000
03FFE000
07FFF800
0FFFFC00
1FFFFE00
3FFFFE00
7FFFFF00
7FFFFF00
7FC0FF80
FF80FF80
FF007F80
FF007F80
FF007F80
FF007F80
FF007F80
FF807F80
7FC07F80
7FFF7F80
7FFF7F80
3FFF7F80
1FFF7F80
1FFF7F80
0FFF7F80
03FF7F80
00FF7F80
ENDCHAR
STARTCHAR 1EA4
ENCODING 7844
SWIDTH 620 0
DWIDTH 31 0
BBX 27 56 2 0
BITMAP
000FC000
001F8000
001F0000
003E0000
003E0000
007C0000
00780000
00F00000
00E00000
00000000
003F8000
003F8000
007FC000
007FC000
00FBE000
00F1E000
01E0F000
01E07800
03C07800
00000000
00040000
00FFE000
03FFF800
07FFFC00
0FFFFE00
1FFFFF00
3FFFFF80
3FFFFF80
7FFFFFC0
7FE0FFC0
7FC07FC0
7FC03FE0
FF803FE0
FF803FE0
FF803FE0
FFBFFFE0
FFBFFFE0
FFBFFFE0
FFBFFFE0
FFBFFFE0
FFBFFFE0
FFBFFFE0
FFBFFFE0
FF803FE0
FF803FE0
FF803FE0
FF803FE0
FF803FE0
FF803FE0
FF803FE0
FF803FE0
FF803FE0
FF803FE0
FF803FE0
FF803FE0
FF803FE0
ENDCHAR
STARTCHAR 1EA5
ENCODING 7845
SWIDTH 560 0
DWIDTH 28 0
BBX 25 47 1 0
BITMAP
001FC000
001F8000
003F0000
003E0000
007C0000
007C0000
00F80000
00F00000
01E00000
01C00000
003F0000
003F0000
007F8000
007FC000
00FFC000
01F3E000
01E1E000
03C0F000
03C0F000
07807800
00000000
00000000
00FF8000
03FFE000
07FFF800
0FFFFC00
1FFFFE00
3FFFFE00
7FFFFF00
7FFFFF00
7FC0FF80
FF80FF80
FF007F80
FF007F80
FF007F80
FF007F80
FF007F80
FF807F80
7FC07F80
7FFF7F80
7FFF7F80
3FFF7F80
1FFF7F80
1FFF7F80
0FFF7F80
03FF7F80
00FF7F80
ENDCHAR
STARTCHAR 1EA6
ENCODING 7846
SWIDTH 620 0
DWIDTH 31 0
BBX 27 56 2 0
BITMAP
007E0000
003F0000
001F8000
000F8000
0007C000
0003C000
0003E000
0001E000
0000F000
00000000
003F8000
003F8000
007FC000
007FC000
00FBE000
00F1E000
01E0F000
01E07800
03C07800
00000000
00040000
00FFE000
03FFF800
07FFFC00
0FFFFE00
1FFFFF00
3FFFFF80
3FFFFF80
7FFFFFC0
7FE0FFC0
7FC07FC0
7FC03FE0
FF803FE0
FF803FE0
FF803FE0
FFBFFFE0
FFBFFFE0
FFBFFFE0
FFBFFFE0
FFBFFFE0
FFBFFFE0
FFBFFFE0
FFBFFFE0
FF803FE0
FF803FE0
FF803FE0
FF803FE0
FF803FE0
FF803FE0
FF803FE0
FF803FE0
FF803FE0
FF803FE0
FF803FE0
FF803FE0
FF803FE0
ENDCHAR
STARTCHAR 1EA7
ENCODING 7847
SWIDTH 560 0
DWIDTH 28 0
BBX 25 47 1 0
BITMAP
00FE0000
007E0000
003F0000
001F0000
000F8000
00078000
0007C000
0003C000
0001E000
0000E000
003F0000
003F0000
007F8000
007FC000
00FFC000
01F3E000
01E1E000
03C0F000
03C0F000
07807800
00000000
00000000
00FF8000
03FFE000
07FFF800
0FFFFC00
1FFFFE00
3FFFFE00
7FFFFF00
7FFFFF00
7FC0FF80
FF80FF80
FF007F80
FF007F80
FF007F80
FF007F80
FF007F80
FF807F80
7FC07F80
7FFF7F80
7FFF7F80
3FFF7F80
1FFF7F80
1FFF7F80
0FFF7F80
03FF7F80
00FF7F80
ENDCHAR
STARTCHAR 1EA8
ENCODING 7848
SWIDTH 620 0
DWIDTH 31 0
BBX 27 56 2 0
BITMAP
00003E00
00007F00
0000FF80
0001E380
0000C380
00000380
00001F80
00001F00
00001E00
00001800
003F9800
003F8000
007FC000
007FC000
00FBE000
00F1E000
01E0F000
01E07800
03C07800
00000000
00040000
00FFE000
03FFF800
07FFFC00
0FFFFE00
1FFFFF00
3FFFFF80
3FFFFF80
7FFFFFC0
7FE0FFC0
7FC07FC0
7FC03FE0
FF803FE0
FF803FE0
FF803FE0
FFBFFFE0
FFBFFFE0
FFBFFFE0
FFBFFFE0
FFBFFFE0
FFBFFFE0
FFBFFFE0
FFBFFFE0
FF803FE0
FF803FE0
FF803FE0
FF803FE0
FF803FE0
FF803FE0
FF803FE0
FF803FE0
FF803FE0
FF803FE0
FF803FE0
FF803FE0
FF803FE0
ENDCHAR
STARTCHAR 1EA9
ENCODING 7849
SWIDTH 560 0
DWIDTH 28 0
BBX 25 47 1 0
BITMAP
00003800
0000FE00
0000FF00
0001EF00
0001C780
00004780
00000780
00003F00
00003E00
00003800
003F3800
003F0000
007F8000
007FC000
00FFC000
01F3E000
01E1E000
03C0F000
03C0F000
07807800
00000000
00000000
00FF8000
03FFE000
07FFF800
0FFFFC00
1FFFFE00
3FFFFE00
7FFFFF00
7FFFFF00
7FC0FF80
FF80FF80
FF007F80
FF007F80
FF007F80
FF007F80
FF007F80
FF807F80
7FC07F80
7FFF7F80
7FFF7F80
3FFF7F80
1FFF7F80
1FFF7F80
0FFF7F80
03FF7F80
00FF7F80
ENDCHAR
STARTCHAR 1EAA
ENCODING 7850
SWIDTH 620 0
DWIDTH 31 0
BBX 27 54 2 0
BITMAP
00000E00
003F1C00
007FFC00
00FFF800
00FFF800
00C0E000
00000000
00000000
003F8000
003F8000
007FC000
007FC000
00FBE000
00F1E000
01E0F000
01E07800
03C07800
00000000
00040000
00FFE000
03FFF800
07FFFC00
0FFFFE00
1FFFFF00
3FFFFF80
3FFFFF80
7FFFFFC0
7FE0FFC0
7FC07FC0
7FC03FE0
FF803FE0
FF803FE0
FF803FE0
FFBFFFE0
FFBFFFE0
FFBFFFE0
FFBFFFE0
FFBFFFE0
FFBFFFE0
FFBFFFE0
FFBFFFE0
FF803FE0
FF803FE0
FF803FE0
FF803FE0
FF803FE0
FF803FE0
FF803FE0
FF803FE0
FF803FE0
FF803FE0
FF803FE0
FF803FE0
FF803FE0
ENDCHAR
STARTCHAR 1EAB
ENCODING 7851
SWIDTH 560 0
DWIDTH 28 0
BBX 25 45 1 0
BITMAP
00001C00
003C1C00
007FFC00
00FFF800
01FFF800
01C3E000
01C00000
00000000
003F0000
003F0000
007F8000
007FC000
00FFC000
01F3E000
01E1E000
03C0F000
03C0F000
07807800
00000000
00000000
00FF8000
03FFE000
07FFF800
0FFFFC00
1FFFFE00
3FFFFE00
7FFFFF00
7FFFFF00
7FC0FF80
FF80FF80
FF007F80
FF007F80
FF007F80
FF007F80
FF007F80
FF807F80
7FC07F80
7FFF7F80
7FFF7F80
3FFF7F80
1FFF7F80
1FFF7F80
0FFF7F80
03FF7F80
00FF7F80
ENDCHAR
STARTCHAR 1EAC
ENCODING 7852
SWIDTH 620 0
DWIDTH 31 0
BBX 27 59 2 -13
BITMAP
003F8000
003F8000
007FC000
007FC000
00FBE000
00F1E000
01E0F000
01E07800
03C07800
00000000
00040000
00FFE000
03FFF800
07FFFC00
0FFFFE00
1FFFFF00
3FFFFF80
3FFFFF80
7FFFFFC0
7FE0FFC0
7FC07FC0
7FC03FE0
FF803FE0
FF803FE0
FF803FE0
FFBFFFE0
FFBFFFE0
FFBFFFE0
FFBFFFE0
FFBFFFE0
FFBFFFE0
FFBFFFE0
FFBFFFE0
FF803FE0
FF803FE0
FF803FE0
FF803FE0
FF803FE0
FF803FE0
FF803FE0
FF803FE0
FF803FE0
FF803FE0
FF803FE0
FF803FE0
FF803FE0
00000000
00000000
00000000
000E0000
003F8000
007FC000
007FC000
007FE000
007FE000
007FC000
007FC000
003F8000
001F0000
ENDCHAR
STARTCHAR 1EAD
ENCODING 7853
SWIDTH 560 0
DWIDTH 28 0
BBX 25 50 1 -13
BITMAP
003F0000
003F0000
007F8000
007FC000
00FFC000
01F3E000
01E1E000
03C0F000
03C0F000
07807800
00000000
00000000
00FF8000
03FFE000
07FFF800
0FFFFC00
1FFFFE00
3FFFFE00
7FFFFF00
7FFFFF00
7FC0FF80
FF80FF80
FF007F80
FF007F80
FF007F80
FF007F80
FF007F80
FF807F80
7FC07F80
7FFF7F80
7FFF7F80
3FFF7F80
1FFF7F80
1FFF7F80
0FFF7F80
03FF7F80
00FF7F80
00000000
00000000
00000000
000E0000
003F0000
007F8000
00FFC000
00FFC000
00FFC000
00FFC000
007F8000
007F8000
003F0000
ENDCHAR
STARTCHAR 1EAE
ENCODING 7854
SWIDTH 620 0
DWIDTH 31 0
BBX 27 56 2 0
BITMAP
0003F000
0003F000
0007E000
0007C000
000F8000
000F0000
001E0000
001E0000
003C0000
00000000
00000000
03803800
03C03800
01C07800
01FFF000
01FFF000
00FFE000
003FC000
00000000
00000000
00040000
00FFE000
03FFF800
07FFFC00
0FFFFE00
1FFFFF00
3FFFFF80
3FFFFF80
7FFFFFC0
7FE0FFC0
7FC07FC0
7FC03FE0
FF803FE0
FF803FE0
FF803FE0
FFBFFFE0
FFBFFFE0
FFBFFFE0
FFBFFFE0
FFBFFFE0
FFBFFFE0
FFBFFFE0
FFBFFFE0
FF803FE0
FF803FE0
FF803FE0
FF803FE0
FF803FE0
FF803FE0
FF803FE0
FF803FE0
FF803FE0
FF803FE0
FF803FE0
FF803FE0
FF803FE0
ENDCHAR
STARTCHAR 1EAF
ENCODING 7855
SWIDTH 560 0
DWIDTH 28 0
BBX 25 47 1 0
BITMAP
0003F000
0007E000
0007E000
000FC000
000F8000
001F0000
001E0000
003C0000
00380000
00780000
00000000
03803800
03807000
03807000
03E1F000
01FFE000
01FFE000
00FFC000
000C0000
00000000
00000000
00000000
00FF8000
03FFE000
07FFF800
0FFFFC00
1FFFFE00
3FFFFE00
7FFFFF00
7FFFFF00
7FC0FF80
FF80FF80
FF007F80
FF007F80
FF007F80
FF007F80
FF007F80
FF807F80
7FC07F80
7FFF7F80
7FFF7F80
3FFF7F80
1FFF7F80
1FFF7F80
0FFF7F80
03FF7F80
00FF7F80
ENDCHAR
STARTCHAR 1EB0
ENCODING 7856
SWIDTH 620 0
DWIDTH 31 0
BBX 27 56 2 0
BITMAP
01F80000
00F80000
00FC0000
007E0000
003E0000
001F0000
000F0000
00078000
00038000
00000000
00000000
03803800
03C03800
01C07800
01FFF000
01FFF000
00FFE000
003FC000
00000000
00000000
00040000
00FFE000
03FFF800
07FFFC00
0FFFFE00
1FFFFF00
3FFFFF80
3FFFFF80
7FFFFFC0
7FE0FFC0
7FC07FC0
7FC03FE0
FF803FE0
FF803FE0
FF803FE0
FFBFFFE0
FFBFFFE0
FFBFFFE0
FFBFFFE0
FFBFFFE0
FFBFFFE0
FFBFFFE0
FFBFFFE0
FF803FE0
FF803FE0
FF803FE0
FF803FE0
FF803FE0
FF803FE0
FF803FE0
FF803FE0
FF803FE0
FF803FE0
FF803FE0
FF803FE0
FF803FE0
ENDCHAR
STARTCHAR 1EB1
ENCODING 7857
SWIDTH 560 0
DWIDTH 28 0
BBX 25 47 1 0
BITMAP
03F00000
01F80000
00F80000
00FC0000
007C0000
003E0000
001E0000
000F0000
00070000
00078000
00000000
03803800
03807000
03807000
03E1F000
01FFE000
01FFE000
00FFC000
000C0000
00000000
00000000
00000000
00FF8000
03FFE000
07FFF800
0FFFFC00
1FFFFE00
3FFFFE00
7FFFFF00
7FFFFF00
7FC0FF80
FF80FF80
FF007F80
FF007F80
FF007F80
FF007F80
FF007F80
FF807F80
7FC07F80
7FFF7F80
7FFF7F80
3FFF7F80
1FFF7F80
1FFF7F80
0FFF7F80
03FF7F80
00FF7F80
ENDCHAR
STARTCHAR 1EB2
ENCODING 7858
SWIDTH 620 0
DWIDTH 31 0
BBX 27 56 2 0
BITMAP
001F0000
003F8000
007FC000
0071E000
0070E000
0001E000
0007C000
000FC000
000F8000
000E0000
000E0000
03803800
03C03800
01C07800
01FFF000
01FFF000
00FFE000
003FC000
00000000
00000000
00040000
00FFE000
03FFF800
07FFFC00
0FFFFE00
1FFFFF00
3FFFFF80
3FFFFF80
7FFFFFC0
7FE0FFC0
7FC07FC0
7FC03FE0
FF803FE0
FF803FE0
FF803FE0
FFBFFFE0
FFBFFFE0
FFBFFFE0
FFBFFFE0
FFBFFFE0
FFBFFFE0
FFBFFFE0
FFBFFFE0
FF803FE0
FF803FE0
FF803FE0
FF803FE0
FF803FE0
FF803FE0
FF803FE0
FF803FE0
FF803FE0
FF803FE0
FF803FE0
FF803FE0
FF803FE0
ENDCHAR
STARTCHAR 1EB3
ENCODING 7859
SWIDTH 560 0
DWIDTH 28 0
BBX 25 47 1 0
BITMAP
000E0000
003F0000
007F8000
00F3C000
00E1C000
0001C000
0003C000
000FC000
000F8000
000E0000
000C0000
03803800
03807000
03807000
03E1F000
01FFE000
01FFE000
00FFC000
000C0000
00000000
00000000
00000000
00FF8000
03FFE000
07FFF800
0FFFFC00
1FFFFE00
3FFFFE00
7FFFFF00
7FFFFF00
7FC0FF80
FF80FF80
FF007F80
FF007F80
FF007F80
FF007F80
FF007F80
FF807F80
7FC07F80
7FFF7F80
7FFF7F80
3FFF7F80
1FFF7F80
1FFF7F80
0FFF7F80
03FF7F80
00FF7F80
ENDCHAR
STARTCHAR 1EB4
ENCODING 7860
SWIDTH 620 0
DWIDTH 31 0
BBX 27 54 2 0
BITMAP
00001C00
007E3800
00FFF800
01FFF000
01FFF000
0381C000
00000000
00000000
00000000
03803800
03C03800
01C07800
01FFF000
01FFF000
00FFE000
003FC000
00000000
00000000
00040000
00FFE000
03FFF800
07FFFC00
0FFFFE00
1FFFFF00
3FFFFF80
3FFFFF80
7FFFFFC0
7FE0FFC0
7FC07FC0
7FC03FE0
FF803FE0
FF803FE0
FF803FE0
FFBFFFE0
FFBFFFE0
FFBFFFE0
FFBFFFE0
FFBFFFE0
FFBFFFE0
FFBFFFE0
FFBFFFE0
FF803FE0
FF803FE0
FF803FE0
FF803FE0
FF803FE0
FF803FE0
FF803FE0
FF803FE0
FF803FE0
FF803FE0
FF803FE0
FF803FE0
FF803FE0
ENDCHAR
STARTCHAR 1EB5
ENCODING 7861
SWIDTH 560 0
DWIDTH 28 0
BBX 25 45 1 0
BITMAP
00003800
00783800
00FFF800
01FFF000
03FFE000
0387C000
03800000
00000000
00000000
03803800
03807000
03807000
03E1F000
01FFE000
01FFE000
00FFC000
000C0000
00000000
00000000
00000000
00FF8000
03FFE000
07FFF800
0FFFFC00
1FFFFE00
3FFFFE00
7FFFFF00
7FFFFF00
7FC0FF80
FF80FF80
FF007F80
FF007F80
FF007F80
FF007F80
FF007F80
FF807F80
7FC07F80
7FFF7F80
7FFF7F80
3FFF7F80
1FFF7F80
1FFF7F80
0FFF7F80
03FF7F80
00FF7F80
ENDCHAR
STARTCHAR 1EB6
ENCODING 7862
SWIDTH 620 0
DWIDTH 31 0
BBX 27 58 2 -13
BITMAP
03803800
03C03800
01C07800
01FFF000
01FFF000
00FFE000
003FC000
00000000
00000000
00040000
00FFE000
03FFF800
07FFFC00
0FFFFE00
1FFFFF00
3FFFFF80
3FFFFF80
7FFFFFC0
7FE0FFC0
7FC07FC0
7FC03FE0
FF803FE0
FF803FE0
FF803FE0
FFBFFFE0
FFBFFFE0
FFBFFFE0
FFBFFFE0
FFBFFFE0
FFBFFFE0
FFBFFFE0
FFBFFFE0
FF803FE0
FF803FE0
FF803FE0
FF803FE0
FF803FE0
FF803FE0
FF803FE0
FF803FE0
FF803FE0
FF803FE0
FF803FE0
FF803FE0
FF803FE0
00000000
00000000
00000000
000E0000
003F8000
007FC000
007FC000
007FE000
007FE000
007FC000
007FC000
003F8000
001F0000
ENDCHAR
STARTCHAR 1EB7
ENCODING 7863
SWIDTH 560 0
DWIDTH 28 0
BBX 25 49 1 -13
BITMAP
03803800
03807000
03807000
03E1F000
01FFE000
01FFE000
00FFC000
000C0000
00000000
00000000
00000000
00FF8000
03FFE000
07FFF800
0FFFFC00
1FFFFE00
3FFFFE00
7FFFFF00
7FFFFF00
7FC0FF80
FF80FF80
FF007F80
FF007F80
FF007F80
FF007F80
FF007F80
FF807F80
7FC07F80
7FFF7F80
7FFF7F80
3FFF7F80
1FFF7F80
1FFF7F80
0FFF7F80
03FF7F80
00FF7F80
00000000
00000000
00000000
000E0000
003F0000
007F8000
00FFC000
00FFC000
00FFC000
00FFC000
007F8000
007F8000
003F0000
ENDCHAR
STARTCHAR 1EB8
ENCODING 7864
SWIDTH 520 0
DWIDTH 26 0
BBX 23 48 1 -13
BITMAP
0000FE
000FFE
007FFE
00FFFE
03FFFE
07FFFE
0FFFFE
1FFFFE
1FFF00
3FFC00
3FF000
7FE000
7FE000
7FFFFE
7FFFFE
FFFFFE
FFFFFE
FFFFFE
FFFFFE
FFFFFE
7FFFFE
7FC000
7FC000
7FE000
3FF000
3FF800
1FFF00
1FFFFE
0FFFFE
07FFFE
03FFFE
00FFFE
007FFE
001FFE
0001FE
000000
000000
000000
000380
000FE0
001FF0
001FF0
003FF0
003FF0
001FF0
001FF0
000FE0
0007C0
ENDCHAR
STARTCHAR 1EB9
ENCODING 7865
SWIDTH 540 0
DWIDTH 27 0
BBX 26 38 1 -13
BITMAP
007F8000
03FFE000
07FFF800
0FFFFC00
1FFFFC00
3FFFFE00
3FE0FF00
7F81FF00
7F87FE00
7F0FFC00
FF3FF000
FF3FE000
FF3F8000
FF1F0C00
FF0C1F00
7F881FC0
7FC07FC0
7FE0FF80
3FFFFF80
3FFFFF00
1FFFFE00
0FFFFC00
07FFF800
03FFF000
00FFC000
00000000
00000000
00000000
001C0000
007F0000
00FF8000
00FF8000
00FFC000
00FFC000
00FFC000
00FF8000
007F8000
003E0000
ENDCHAR
STARTCHAR 1EBA
ENCODING 7866
SWIDTH 520 0
DWIDTH 26 0
BBX 23 48 1 0
BITMAP
0000F0
0001FC
0003FC
00079E
00070E
00000E
00003E
00007C
000078
000060
000060
000000
000000
0000FE
000FFE
007FFE
00FFFE
03FFFE
07FFFE
0FFFFE
1FFFFE
1FFF00
3FFC00
3FF000
7FE000
7FE000
7FFFFE
7FFFFE
FFFFFE
FFFFFE
FFFFFE
FFFFFE
FFFFFE
7FFFFE
7FC000
7FC000
7FE000
3FF000
3FF800
1FFF00
1FFFFE
0FFFFE
07FFFE
03FFFE
00FFFE
007FFE
001FFE
0001FE
ENDCHAR
STARTCHAR 1EBB
ENCODING 7867
SWIDTH 540 0
DWIDTH 27 0
BBX 26 38 1 0
BITMAP
003F0000
007F8000
007FC000
00F1C000
0061C000
0001C000
000FC000
000F8000
000F0000
000C0000
000C0000
00000000
00000000
007F8000
03FFE000
07FFF800
0FFFFC00
1FFFFC00
3FFFFE00
3FE0FF00
7F81FF00
7F87FE00
7F0FFC00
FF3FF000
FF3FE000
FF3F8000
FF1F0C00
FF0C1F00
7F881FC0
7FC07FC0
7FE0FF80
3FFFFF80
3FFFFF00
1FFFFE00
0FFFFC00
07FFF800
03FFF000
00FFC000
ENDCHAR
STARTCHAR 1EBC
ENCODING 7868
SWIDTH 520 0
DWIDTH 26 0
BBX 23 46 1 0
BITMAP
000006
001F0E
003FFE
007FFC
00FFF8
00E0F0
00E000
000000
000000
000000
000000
0000FE
000FFE
007FFE
00FFFE
03FFFE
07FFFE
0FFFFE
1FFFFE
1FFF00
3FFC00
3FF000
7FE000
7FE000
7FFFFE
7FFFFE
FFFFFE
FFFFFE
FFFFFE
FFFFFE
FFFFFE
7FFFFE
7FC000
7FC000
7FE000
3FF000
3FF800
1FFF00
1FFFFE
0FFFFE
07FFFE
03FFFE
00FFFE
007FFE
001FFE
0001FE
ENDCHAR
STARTCHAR 1EBD
ENCODING 7869
SWIDTH 540 0
DWIDTH 27 0
BBX 26 35 1 0
BITMAP
00007000
01FCF000
03FFE000
03FFE000
07BFC000
07010000
00000000
00000000
00000000
00000000
007F8000
03FFE000
07FFF800
0FFFFC00
1FFFFC00
3FFFFE00
3FE0FF00
7F81FF00
7F87FE00
7F0FFC00
FF3FF000
FF3FE000
FF3F8000
FF1F0C00
FF0C1F00
7F881FC0
7FC07FC0
7FE0FF80
3FFFFF80
3FFFFF00
1FFFFE00
0FFFFC00
07FFF800
03FFF000
00FFC000
ENDCHAR
STARTCHAR 1EBE
ENCODING 7870
SWIDTH 520 0
DWIDTH 26 0
BBX 23 56 1 0
BITMAP
0003F0
0007E0
0007C0
000F80
001F00
001F00
003E00
003C00
007800
000000
000FE0
000FE0
001FF0
001FF0
003EF8
003C78
00783C
00F03C
00F01E
000000
000000
0000FE
000FFE
007FFE
00FFFE
03FFFE
07FFFE
0FFFFE
1FFFFE
1FFF00
3FFC00
3FF000
7FE000
7FE000
7FFFFE
7FFFFE
FFFFFE
FFFFFE
FFFFFE
FFFFFE
FFFFFE
7FFFFE
7FC000
7FC000
7FE000
3FF000
3FF800
1FFF00
1FFFFE
0FFFFE
07FFFE
03FFFE
00FFFE
007FFE
001FFE
0001FE
ENDCHAR
STARTCHAR 1EBF
ENCODING 7871
SWIDTH 540 0
DWIDTH 27 0
BBX 26 47 1 0
BITMAP
001FC000
001F8000
003F0000
003E0000
007C0000
00780000
00F80000
00F00000
01E00000
03C00000
003F0000
007F0000
007F8000
00FF8000
00FFC000
01F3C000
01E1E000
03C1E000
0380F000
07807800
00000000
00000000
007F8000
03FFE000
07FFF800
0FFFFC00
1FFFFC00
3FFFFE00
3FE0FF00
7F81FF00
7F87FE00
7F0FFC00
FF3FF000
FF3FE000
FF3F8000
FF1F0C00
FF0C1F00
7F881FC0
7FC07FC0
7FE0FF80
3FFFFF80
3FFFFF00
1FFFFE00
0FFFFC00
07FFF800
03FFF000
00FFC000
ENDCHAR
STARTCHAR 1EC0
ENCODING 7872
SWIDTH 520 0
DWIDTH 26 0
BBX 23 56 1 0
BITMAP
001F80
000FC0
0007C0
0003E0
0003E0
0001F0
0000F0
000078
000038
000000
000FE0
000FE0
001FF0
001FF0
003EF8
003C78
00783C
00F03C
00F01E
000000
000000
0000FE
000FFE
007FFE
00FFFE
03FFFE
07FFFE
0FFFFE
1FFFFE
1FFF00
3FFC00
3FF000
7FE000
7FE000
7FFFFE
7FFFFE
FFFFFE
FFFFFE
FFFFFE
FFFFFE
FFFFFE
7FFFFE
7FC000
7FC000
7FE000
3FF000
3FF800
1FFF00
1FFFFE
0FFFFE
07FFFE
03FFFE
00FFFE
007FFE
001FFE
0001FE
ENDCHAR
STARTCHAR 1EC1
ENCODING 7873
SWIDTH 540 0
DWIDTH 27 0
BBX 26 47 1 0
BITMAP
00FC0000
007E0000
003E0000
001F0000
000F8000
000F8000
0007C000
0003C000
0001E000
0000E000
003F0000
007F0000
007F8000
00FF8000
00FFC000
01F3C000
01E1E000
03C1E000
0380F000
07807800
00000000
00000000
007F8000
03FFE000
07FFF800
0FFFFC00
1FFFFC00
3FFFFE00
3FE0FF00
7F81FF00
7F87FE00
7F0FFC00
FF3FF000
FF3FE000
FF3F8000
FF1F0C00
FF0C1F00
7F881FC0
7FC07FC0
7FE0FF80
3FFFFF80
3FFFFF00
1FFFFE00
0FFFFC00
07FFF800
03FFF000
00FFC000
ENDCHAR
STARTCHAR 1EC2
ENCODING 7874
SWIDTH 520 0
DWIDTH 26 0
BBX 27 56 1 0
BITMAP
00000F80
00003FC0
00003FE0
000078E0
000070E0
000000E0
000007E0
000007C0
00000780
00000600
000FE600
000FE000
001FF000
001FF000
003EF800
003C7800
00783C00
00F03C00
00F01E00
00000000
00000000
0000FE00
000FFE00
007FFE00
00FFFE00
03FFFE00
07FFFE00
0FFFFE00
1FFFFE00
1FFF0000
3FFC0000
3FF00000
7FE00000
7FE00000
7FFFFE00
7FFFFE00
FFFFFE00
FFFFFE00
FFFFFE00
FFFFFE00
FFFFFE00
7FFFFE00
7FC00000
7FC00000
7FE00000
3FF00000
3FF80000
1FFF0000
1FFFFE00
0FFFFE00
07FFFE00
03FFFE00
00FFFE00
007FFE00
001FFE00
0001FE00
ENDCHAR
STARTCHAR 1EC3
ENCODING 7875
SWIDTH 540 0
DWIDTH 27 0
BBX 26 47 1 0
BITMAP
00003800
0000FE00
0001FF00
0001EF00
0001C780
00004780
00000700
00003F00
00003E00
00003800
003F3000
007F0000
007F8000
00FF8000
00FFC000
01F3C000
01E1E000
03C1E000
0380F000
07807800
00000000
00000000
007F8000
03FFE000
07FFF800
0FFFFC00
1FFFFC00
3FFFFE00
3FE0FF00
7F81FF00
7F87FE00
7F0FFC00
FF3FF000
FF3FE000
FF3F8000
FF1F0C00
FF0C1F00
7F881FC0
7FC07FC0
7FE0FF80
3FFFFF80
3FFFFF00
1FFFFE00
0FFFFC00
07FFF800
03FFF000
00FFC000
ENDCHAR
STARTCHAR 1EC4
ENCODING 7876
SWIDTH 520 0
DWIDTH 26 0
BBX 24 54 1 0
BITMAP
000003
000FC7
001FFF
003FFE
003FFC
007030
000000
000000
000FE0
000FE0
001FF0
001FF0
003EF8
003C78
00783C
00F03C
00F01E
000000
000000
0000FE
000FFE
007FFE
00FFFE
03FFFE
07FFFE
0FFFFE
1FFFFE
1FFF00
3FFC00
3FF000
7FE000
7FE000
7FFFFE
7FFFFE
FFFFFE
FFFFFE
FFFFFE
FFFFFE
FFFFFE
7FFFFE
7FC000
7FC000
7FE000
3FF000
3FF800
1FFF00
1FFFFE
0FFFFE
07FFFE
03FFFE
00FFFE
007FFE
001FFE
0001FE
ENDCHAR
STARTCHAR 1EC5
ENCODING 7877
SWIDTH 540 0
DWIDTH 27 0
BBX 26 45 1 0
BITMAP
00001C00
003C1C00
00FFF800
00FFF800
01FFF000
01C3E000
01800000
00000000
003F0000
007F0000
007F8000
00FF8000
00FFC000
01F3C000
01E1E000
03C1E000
0380F000
07807800
00000000
00000000
007F8000
03FFE000
07FFF800
0FFFFC00
1FFFFC00
3FFFFE00
3FE0FF00
7F81FF00
7F87FE00
7F0FFC00
FF3FF000
FF3FE000
FF3F8000
FF1F0C00
FF0C1F00
7F881FC0
7FC07FC0
7FE0FF80
3FFFFF80
3FFFFF00
1FFFFE00
0FFFFC00
07FFF800
03FFF000
00FFC000
ENDCHAR
STARTCHAR 1EC6
ENCODING 7878
SWIDTH 520 0
DWIDTH 26 0
BBX 23 59 1 -13
BITMAP
000FE0
000FE0
001FF0
001FF0
003EF8
003C78
00783C
00F03C
00F01E
000000
000000
0000FE
000FFE
007FFE
00FFFE
03FFFE
07FFFE
0FFFFE
1FFFFE
1FFF00
3FFC00
3FF000
7FE000
7FE000
7FFFFE
7FFFFE
FFFFFE
FFFFFE
FFFFFE
FFFFFE
FFFFFE
7FFFFE
7FC000
7FC000
7FE000
3FF000
3FF800
1FFF00
1FFFFE
0FFFFE
07FFFE
03FFFE
00FFFE
007FFE
001FFE
0001FE
000000
000000
000000
000380
000FE0
001FF0
001FF0
003FF0
003FF0
001FF0
001FF0
000FE0
0007C0
ENDCHAR
STARTCHAR 1EC7
ENCODING 7879
SWIDTH 540 0
DWIDTH 27 0
BBX 26 50 1 -13
BITMAP
003F0000
007F0000
007F8000
00FF8000
00FFC000
01F3C000
01E1E000
03C1E000
0380F000
07807800
00000000
00000000
007F8000
03FFE000
07FFF800
0FFFFC00
1FFFFC00
3FFFFE00
3FE0FF00
7F81FF00
7F87FE00
7F0FFC00
FF3FF000
FF3FE000
FF3F8000
FF1F0C00
FF0C1F00
7F881FC0
7FC07FC0
7FE0FF80
3FFFFF80
3FFFFF00
1FFFFE00
0FFFFC00
07FFF800
03FFF000
00FFC000
00000000
00000000
00000000
001C0000
007F0000
00FF8000
00FF8000
00FFC000
00FFC000
00FFC000
00FF8000
007F8000
003E0000
ENDCHAR
STARTCHAR 1EC8
ENCODING 7880
SWIDTH 280 0
DWIDTH 14 0
BBX 10 48 2 0
BITMAP
1E00
3F80
7FC0
F1C0
E1C0
01C0
07C0
0F80
0F00
0C00
0C00
0000
0000
7F80
7F80
7F80
7F80
7F80
7F80
7F80
7F80
7F80
7F80
7F80
7F80
7F80
7F80
7F80
7F80
7F80
7F80
7F80
7F80
7F80
7F80
7F80
7F80
7F80
7F80
7F80
7F80
7F80
7F80
7F80
7F80
7F80
7F80
7F80
ENDCHAR
STARTCHAR 1EC9
ENCODING 7881
SWIDTH 240 0
DWIDTH 12 0
BBX 10 38 2 0
BITMAP
3E00
7F80
FF80
E3C0
63C0
03C0
1F80
1F00
1E00
1C00
1C00
0000
0000
FF00
FF00
FF00
FF00
FF00
FF00
FF00
FF00
FF00
FF00
FF00
FF00
FF00
FF00
FF00
FF00
FF00
FF00
FF00
FF00
FF00
FF00
FF00
FF00
FF00
ENDCHAR
STARTCHAR 1ECA
ENCODING 7882
SWIDTH 280 0
DWIDTH 14 0
BBX 10 48 2 -13
BITMAP
7F80
7F80
7F80
7F80
7F80
7F80
7F80
7F80
7F80
7F80
7F80
7F80
7F80
7F80
7F80
7F80
7F80
7F80
7F80
7F80
7F80
7F80
7F80
7F80
7F80
7F80
7F80
7F80
7F80
7F80
7F80
7F80
7F80
7F80
7F80
0000
0000
0000
1E00
3F80
7F80
FFC0
FFC0
FFC0
FFC0
7FC0
7F80
1F00
ENDCHAR
STARTCHAR 1ECB
ENCODING 7883
SWIDTH 240 0
DWIDTH 12 0
BBX 10 49 1 -13
BITMAP
1E00
3F80
7F80
7FC0
7FC0
7FC0
7F80
3F80
1E00
0000
0000
7F80
7F80
7F80
7F80
7F80
7F80
7F80
7F80
7F80
7F80
7F80
7F80
7F80
7F80
7F80
7F80
7F80
7F80
7F80
7F80
7F80
7F80
7F80
7F80
7F80
0000
0000
0000
0E00
3F80
7FC0
7FC0
FFC0
FFC0
FFC0
7FC0
7F80
1F00
ENDCHAR
STARTCHAR 1ECC
ENCODING 7884
SWIDTH 760 0
DWIDTH 38 0
BBX 36 49 1 -13
BITMAP
0000300000
000FFF8000
003FFFE000
00FFFFF000
01FFFFFC00
03FFFFFE00
07FFFFFF00
0FFFFFFF80
1FFFFFFF80
1FFF07FFC0
3FF801FFC0
3FF000FFE0
7FE0007FE0
7FE0003FF0
7FC0001FF0
7FC0001FF0
FF80001FF0
FF80001FF0
FF80001FF0
FF80001FF0
FF80001FF0
7FC0001FF0
7FC0001FF0
7FE0003FF0
7FE0007FE0
3FF000FFE0
3FFC01FFC0
1FFF07FFC0
1FFFFFFF80
0FFFFFFF80
07FFFFFF00
03FFFFFE00
01FFFFFC00
00FFFFF800
003FFFE000
000FFF8000
0000780000
0000000000
0000000000
0000700000
0001FC0000
0003FE0000
0003FE0000
0007FE0000
0007FE0000
0007FE0000
0003FE0000
0003FC0000
0000F80000
ENDCHAR
STARTCHAR 1ECD
ENCODING 7885
SWIDTH 540 0
DWIDTH 27 0
BBX 25 38 1 -13
BITMAP
00FF8000
03FFE000
07FFF800
0FFFFC00
1FFFFC00
3FFFFE00
3FFFFF00
7FFFFF00
7FC1FF80
7F80FF80
FF807F80
FF007F80
FF007F80
FF007F80
FF807F80
7F80FF80
7FC0FF80
7FF7FF00
3FFFFF00
3FFFFE00
1FFFFE00
0FFFFC00
07FFF800
03FFE000
00FFC000
00000000
00000000
00000000
001C0000
007F0000
00FF8000
00FF8000
00FFC000
00FFC000
00FFC000
00FF8000
007F8000
003E0000
ENDCHAR
STARTCHAR 1ECE
ENCODING 7886
SWIDTH 760 0
DWIDTH 38 0
BBX 36 49 1 -1
BITMAP
0000F80000
0001FC0000
0003FE0000
00038E0000
00038F0000
00000F0000
00001E0000
00007E0000
00007C0000
0000700000
0000700000
0000000000
0000300000
000FFF8000
003FFFE000
00FFFFF000
01FFFFFC00
03FFFFFE00
07FFFFFF00
0FFFFFFF80
1FFFFFFF80
1FFF07FFC0
3FF801FFC0
3FF000FFE0
7FE0007FE0
7FE0003FF0
7FC0001FF0
7FC0001FF0
FF80001FF0
FF80001FF0
FF80001FF0
FF80001FF0
FF80001FF0
7FC0001FF0
7FC0001FF0
7FE0003FF0
7FE0007FE0
3FF000FFE0
3FFC01FFC0
1FFF07FFC0
1FFFFFFF80
0FFFFFFF80
07FFFFFF00
03FFFFFE00
01FFFFFC00
00FFFFF800
003FFFE000
000FFF8000
0000780000
ENDCHAR
STARTCHAR 1ECF
ENCODING 7887
SWIDTH 540 0
DWIDTH 27 0
BBX 25 38 1 0
BITMAP
003F0000
007F8000
007FC000
00F1C000
0061C000
0001C000
000FC000
000F8000
000F0000
000C0000
000C0000
00000000
00000000
00FF8000
03FFE000
07FFF800
0FFFFC00
1FFFFC00
3FFFFE00
3FFFFF00
7FFFFF00
7FC1FF80
7F80FF80
FF807F80
FF007F80
FF007F80
FF007F80
FF807F80
7F80FF80
7FC0FF80
7FF7FF00
3FFFFF00
3FFFFE00
1FFFFE00
0FFFFC00
07FFF800
03FFE000
00FFC000
ENDCHAR
STARTCHAR 1ED0
ENCODING 7888
SWIDTH 760 0
DWIDTH 38 0
BBX 36 57 1 -1
BITMAP
0000FE0000
0000FC0000
0001F80000
0001F00000
0003E00000
0003C00000
0007C00000
0007800000
000F000000
0000000000
0001F80000
0001FC0000
0003FE0000
0003FE0000
0007DF0000
000F8F0000
000F078000
001E078000
001C03C000
0000000000
0000300000
000FFF8000
003FFFE000
00FFFFF000
01FFFFFC00
03FFFFFE00
07FFFFFF00
0FFFFFFF80
1FFFFFFF80
1FFF07FFC0
3FF801FFC0
3FF000FFE0
7FE0007FE0
7FE0003FF0
7FC0001FF0
7FC0001FF0
FF80001FF0
FF80001FF0
FF80001FF0
FF80001FF0
FF80001FF0
7FC0001FF0
7FC0001FF0
7FE0003FF0
7FE0007FE0
3FF000FFE0
3FFC01FFC0
1FFF07FFC0
1FFFFFFF80
0FFFFFFF80
07FFFFFF00
03FFFFFE00
01FFFFFC00
00FFFFF800
003FFFE000
000FFF8000
0000780000
ENDCHAR
STARTCHAR 1ED1
ENCODING 7889
SWIDTH 540 0
DWIDTH 27 0
BBX 25 47 1 0
BITMAP
001FC000
001F8000
003F0000
003E0000
007C0000
00780000
00F00000
01F00000
01E00000
03C00000
003F0000
007F0000
007F8000
00FF8000
00FFC000
01F3C000
01E1E000
03C1E000
0380F000
07807000
00000000
00000000
00FF8000
03FFE000
07FFF800
0FFFFC00
1FFFFC00
3FFFFE00
3FFFFF00
7FFFFF00
7FC1FF80
7F80FF80
FF807F80
FF007F80
FF007F80
FF007F80
FF807F80
7F80FF80
7FC0FF80
7FF7FF00
3FFFFF00
3FFFFE00
1FFFFE00
0FFFFC00
07FFF800
03FFE000
00FFC000
ENDCHAR
STARTCHAR 1ED2
ENCODING 7890
SWIDTH 760 0
DWIDTH 38 0
BBX 36 57 1 -1
BITMAP
0003F00000
0001F80000
0000F80000
00007C0000
00007C0000
00003E0000
00001E0000
00000F0000
0000070000
0000000000
0001F80000
0001FC0000
0003FE0000
0003FE0000
0007DF0000
000F8F0000
000F078000
001E078000
001C03C000
0000000000
0000300000
000FFF8000
003FFFE000
00FFFFF000
01FFFFFC00
03FFFFFE00
07FFFFFF00
0FFFFFFF80
1FFFFFFF80
1FFF07FFC0
3FF801FFC0
3FF000FFE0
7FE0007FE0
7FE0003FF0
7FC0001FF0
7FC0001FF0
FF80001FF0
FF80001FF0
FF80001FF0
FF80001FF0
FF80001FF0
7FC0001FF0
7FC0001FF0
7FE0003FF0
7FE0007FE0
3FF000FFE0
3FFC01FFC0
1FFF07FFC0
1FFFFFFF80
0FFFFFFF80
07FFFFFF00
03FFFFFE00
01FFFFFC00
00FFFFF800
003FFFE000
000FFF8000
0000780000
ENDCHAR
STARTCHAR 1ED3
ENCODING 7891
SWIDTH 540 0
DWIDTH 27 0
BBX 25 47 1 0
BITMAP
00FC0000
007E0000
003E0000
001F0000
001F8000
000F8000
0007C000
0003C000
0001E000
0000E000
003F0000
007F0000
007F8000
00FF8000
00FFC000
01F3C000
01E1E000
03C1E000
0380F000
07807000
00000000
00000000
00FF8000
03FFE000
07FFF800
0FFFFC00
1FFFFC00
3FFFFE00
3FFFFF00
7FFFFF00
7FC1FF80
7F80FF80
FF807F80
FF007F80
FF007F80
FF007F80
FF807F80
7F80FF80
7FC0FF80
7FF7FF00
3FFFFF00
3FFFFE00
1FFFFE00
0FFFFC00
07FFF800
03FFE000
00FFC000
ENDCHAR
STARTCHAR 1ED4
ENCODING 7892
SWIDTH 760 0
DWIDTH 38 0
BBX 36 57 1 -1
BITMAP
000003F000
000007F800
000007F800
00000E1C00
00000E1C00
0000001C00
000000FC00
000000F800
000000F000
000000C000
0001F8C000
0001FC0000
0003FE0000
0003FE0000
0007DF0000
000F8F0000
000F078000
001E078000
001C03C000
0000000000
0000300000
000FFF8000
003FFFE000
00FFFFF000
01FFFFFC00
03FFFFFE00
07FFFFFF00
0FFFFFFF80
1FFFFFFF80
1FFF07FFC0
3FF801FFC0
3FF000FFE0
7FE0007FE0
7FE0003FF0
7FC0001FF0
7FC0001FF0
FF80001FF0
FF80001FF0
FF80001FF0
FF80001FF0
FF80001FF0
7FC0001FF0
7FC0001FF0
7FE0003FF0
7FE0007FE0
3FF000FFE0
3FFC01FFC0
1FFF07FFC0
1FFFFFFF80
0FFFFFFF80
07FFFFFF00
03FFFFFE00
01FFFFFC00
00FFFFF800
003FFFE000
000FFF8000
0000780000
ENDCHAR
STARTCHAR 1ED5
ENCODING 7893
SWIDTH 540 0
DWIDTH 27 0
BBX 25 47 1 0
BITMAP
00003800
0000FE00
0001FF00
0001EF00
0001C700
00000780
00000700
00003F00
00003E00
00003800
003F3000
007F0000
007F8000
00FF8000
00FFC000
01F3C000
01E1E000
03C1E000
0380F000
07807000
00000000
00000000
00FF8000
03FFE000
07FFF800
0FFFFC00
1FFFFC00
3FFFFE00
3FFFFF00
7FFFFF00
7FC1FF80
7F80FF80
FF807F80
FF007F80
FF007F80
FF007F80
FF807F80
7F80FF80
7FC0FF80
7FF7FF00
3FFFFF00
3FFFFE00
1FFFFE00
0FFFFC00
07FFF800
03FFE000
00FFC000
ENDCHAR
STARTCHAR 1ED6
ENCODING 7894
SWIDTH 760 0
DWIDTH 38 0
BBX 36 55 1 -1
BITMAP
0000006000
0003F8E000
0003FFE000
0007FFC000
0007FF8000
000E060000
0000000000
0000000000
0001F80000
0001FC0000
0003FE0000
0003FE0000
0007DF0000
000F8F0000
000F078000
001E078000
001C03C000
0000000000
0000300000
000FFF8000
003FFFE000
00FFFFF000
01FFFFFC00
03FFFFFE00
07FFFFFF00
0FFFFFFF80
1FFFFFFF80
1FFF07FFC0
3FF801FFC0
3FF000FFE0
7FE0007FE0
7FE0003FF0
7FC0001FF0
7FC0001FF0
FF80001FF0
FF80001FF0
FF80001FF0
FF80001FF0
FF80001FF0
7FC0001FF0
7FC0001FF0
7FE0003FF0
7FE0007FE0
3FF000FFE0
3FFC01FFC0
1FFF07FFC0
1FFFFFFF80
0FFFFFFF80
07FFFFFF00
03FFFFFE00
01FFFFFC00
00FFFFF800
003FFFE000
000FFF8000
0000780000
ENDCHAR
STARTCHAR 1ED7
ENCODING 7895
SWIDTH 540 0
DWIDTH 27 0
BBX 25 45 1 0
BITMAP
00001C00
003C1C00
00FFF800
00FFF800
01FFF000
01C3E000
01800000
00000000
003F0000
007F0000
007F8000
00FF8000
00FFC000
01F3C000
01E1E000
03C1E000
0380F000
07807000
00000000
00000000
00FF8000
03FFE000
07FFF800
0FFFFC00
1FFFFC00
3FFFFE00
3FFFFF00
7FFFFF00
7FC1FF80
7F80FF80
FF807F80
FF007F80
FF007F80
FF007F80
FF807F80
7F80FF80
7FC0FF80
7FF7FF00
3FFFFF00
3FFFFE00
1FFFFE00
0FFFFC00
07FFF800
03FFE000
00FFC000
ENDCHAR
STARTCHAR 1ED8
ENCODING 7896
SWIDTH 760 0
DWIDTH 38 0
BBX 36 59 1 -13
BITMAP
0001F80000
0001FC0000
0003FE0000
0003FE0000
0007DF0000
000F8F0000
000F078000
001E078000
001C03C000
0000000000
0000300000
000FFF8000
003FFFE000
00FFFFF000
01FFFFFC00
03FFFFFE00
07FFFFFF00
0FFFFFFF80
1FFFFFFF80
1FFF07FFC0
3FF801FFC0
3FF000FFE0
7FE0007FE0
7FE0003FF0
7FC0001FF0
7FC0001FF0
FF80001FF0
FF80001FF0
FF80001FF0
FF80001FF0
FF80001FF0
7FC0001FF0
7FC0001FF0
7FE0003FF0
7FE0007FE0
3FF000FFE0
3FFC01FFC0
1FFF07FFC0
1FFFFFFF80
0FFFFFFF80
07FFFFFF00
03FFFFFE00
01FFFFFC00
00FFFFF800
003FFFE000
000FFF8000
0000780000
0000000000
0000000000
0000700000
0001FC0000
0003FE0000
0003FE0000
0007FE0000
0007FE0000
0007FE0000
0003FE0000
0003FC0000
0000F80000
ENDCHAR
STARTCHAR 1ED9
ENCODING 7897
SWIDTH 540 0
DWIDTH 27 0
BBX 25 50 1 -13
BITMAP
003F0000
007F0000
007F8000
00FF8000
00FFC000
01F3C000
01E1E000
03C1E000
0380F000
07807000
00000000
00000000
00FF8000
03FFE000
07FFF800
0FFFFC00
1FFFFC00
3FFFFE00
3FFFFF00
7FFFFF00
7FC1FF80
7F80FF80
FF807F80
FF007F80
FF007F80
FF007F80
FF807F80
7F80FF80
7FC0FF80
7FF7FF00
3FFFFF00
3FFFFE00
1FFFFE00
0FFFFC00
07FFF800
03FFE000
00FFC000
00000000
00000000
00000000
001C0000
007F0000
00FF8000
00FF8000
00FFC000
00FFC000
00FFC000
00FF8000
007F8000
003E0000
ENDCHAR
STARTCHAR 1EDA
ENCODING 7898
SWIDTH 760 0
DWIDTH 38 0
BBX 37 48 1 -1
BITMAP
00001F8000
00003F0000
00003E0000
00007C0000
00007C0000
0000F80000
0000F00000
0001E00000
0001C00000
00000003F8
00000003F8
00003003F0
000FFF87F0
003FFFE7E0
00FFFFF7E0
01FFFFFFC0
03FFFFFFC0
07FFFFFF80
0FFFFFFF80
1FFFFFFF80
1FFF07FFC0
3FF801FFC0
3FF000FFE0
7FE0007FE0
7FE0003FF0
7FC0001FF0
7FC0001FF0
FF80001FF0
FF80001FF0
FF80001FF0
FF80001FF0
FF80001FF0
7FC0001FF0
7FC0001FF0
7FE0003FF0
7FE0007FE0
3FF000FFE0
3FFC01FFC0
1FFF07FFC0
1FFFFFFF80
0FFFFFFF80
07FFFFFF00
03FFFFFE00
01FFFFFC00
00FFFFF800
003FFFE000
000FFF8000
0000780000
ENDCHAR
STARTCHAR 1EDB
ENCODING 7899
SWIDTH 540 0
DWIDTH 27 0
BBX 28 37 1 0
BITMAP
0003F000
0007E000
0007C000
000F8000
001F8000
001F0000
003E0000
003C0000
007807F0
007007F0
000007E0
00000FE0
00FF8FC0
03FFEFC0
07FFFF80
0FFFFF80
1FFFFF00
3FFFFF00
3FFFFF00
7FFFFF00
7FC1FF80
7F80FF80
FF807F80
FF007F80
FF007F80
FF007F80
FF807F80
7F80FF80
7FC0FF80
7FF7FF00
3FFFFF00
3FFFFE00
1FFFFE00
0FFFFC00
07FFF800
03FFE000
00FFC000
ENDCHAR
STARTCHAR 1EDC
ENCODING 7900
SWIDTH 760 0
DWIDTH 38 0
BBX 37 48 1 -1
BITMAP
000FC00000
0007C00000
0007E00000
0003E00000
0001F00000
0000F80000
0000780000
00003C0000
00001C0000
00000003F8
00000003F8
00003003F0
000FFF87F0
003FFFE7E0
00FFFFF7E0
01FFFFFFC0
03FFFFFFC0
07FFFFFF80
0FFFFFFF80
1FFFFFFF80
1FFF07FFC0
3FF801FFC0
3FF000FFE0
7FE0007FE0
7FE0003FF0
7FC0001FF0
7FC0001FF0
FF80001FF0
FF80001FF0
FF80001FF0
FF80001FF0
FF80001FF0
7FC0001FF0
7FC0001FF0
7FE0003FF0
7FE0007FE0
3FF000FFE0
3FFC01FFC0
1FFF07FFC0
1FFFFFFF80
0FFFFFFF80
07FFFFFF00
03FFFFFE00
01FFFFFC00
00FFFFF800
003FFFE000
000FFF8000
0000780000
ENDCHAR
STARTCHAR 1EDD
ENCODING 7901
SWIDTH 540 0
DWIDTH 27 0
BBX 28 37 1 0
BITMAP
03F00000
01F00000
01F80000
00FC0000
007C0000
003E0000
001E0000
000F0000
000F07F0
000787F0
000007E0
00000FE0
00FF8FC0
03FFEFC0
07FFFF80
0FFFFF80
1FFFFF00
3FFFFF00
3FFFFF00
7FFFFF00
7FC1FF80
7F80FF80
FF807F80
FF007F80
FF007F80
FF007F80
FF807F80
7F80FF80
7FC0FF80
7FF7FF00
3FFFFF00
3FFFFE00
1FFFFE00
0FFFFC00
07FFF800
03FFE000
00FFC000
ENDCHAR
STARTCHAR 1EDE
ENCODING 7902
SWIDTH 760 0
DWIDTH 38 0
BBX 37 49 1 -1
BITMAP
0000F80000
0001FC0000
0003FE0000
00038E0000
00038F0000
00000F0000
00001E0000
00007E0000
00007C0000
0000700000
00007003F8
00000003F8
00003003F0
000FFF87F0
003FFFE7E0
00FFFFF7E0
01FFFFFFC0
03FFFFFFC0
07FFFFFF80
0FFFFFFF80
1FFFFFFF80
1FFF07FFC0
3FF801FFC0
3FF000FFE0
7FE0007FE0
7FE0003FF0
7FC0001FF0
7FC0001FF0
FF80001FF0
FF80001FF0
FF80001FF0
FF80001FF0
FF80001FF0
7FC0001FF0
7FC0001FF0
7FE0003FF0
7FE0007FE0
3FF000FFE0
3FFC01FFC0
1FFF07FFC0
1FFFFFFF80
0FFFFFFF80
07FFFFFF00
03FFFFFE00
01FFFFFC00
00FFFFF800
003FFFE000
000FFF8000
0000780000
ENDCHAR
STARTCHAR 1EDF
ENCODING 7903
SWIDTH 540 0
DWIDTH 27 0
BBX 28 38 1 0
BITMAP
003F0000
007F8000
007FC000
00F1C000
0061C000
0001C000
000FC000
000F8000
000F0000
000C07F0
000C07F0
000007E0
00000FE0
00FF8FC0
03FFEFC0
07FFFF80
0FFFFF80
1FFFFF00
3FFFFF00
3FFFFF00
7FFFFF00
7FC1FF80
7F80FF80
FF807F80
FF007F80
FF007F80
FF007F80
FF807F80
7F80FF80
7FC0FF80
7FF7FF00
3FFFFF00
3FFFFE00
1FFFFE00
0FFFFC00
07FFF800
03FFE000
00FFC000
ENDCHAR
STARTCHAR 1EE0
ENCODING 7904
SWIDTH 760 0
DWIDTH 38 0
BBX 37 47 1 -1
BITMAP
000001C000
0007E1C000
000FFF8000
000FFF8000
001FFF0000
001C1E0000
0018000000
0000000000
00000003F8
00000003F8
00003003F0
000FFF87F0
003FFFE7E0
00FFFFF7E0
01FFFFFFC0
03FFFFFFC0
07FFFFFF80
0FFFFFFF80
1FFFFFFF80
1FFF07FFC0
3FF801FFC0
3FF000FFE0
7FE0007FE0
7FE0003FF0
7FC0001FF0
7FC0001FF0
FF80001FF0
FF80001FF0
FF80001FF0
FF80001FF0
FF80001FF0
7FC0001FF0
7FC0001FF0
7FE0003FF0
7FE0007FE0
3FF000FFE0
3FFC01FFC0
1FFF07FFC0
1FFFFFFF80
0FFFFFFF80
07FFFFFF00
03FFFFFE00
01FFFFFC00
00FFFFF800
003FFFE000
000FFF8000
0000780000
ENDCHAR
STARTCHAR 1EE1
ENCODING 7905
SWIDTH 540 0
DWIDTH 27 0
BBX 28 35 1 0
BITMAP
00003000
01FC7000
03FFF000
03FFE000
03DFC000
07010000
000007F0
000007F0
000007E0
00000FE0
00FF8FC0
03FFEFC0
07FFFF80
0FFFFF80
1FFFFF00
3FFFFF00
3FFFFF00
7FFFFF00
7FC1FF80
7F80FF80
FF807F80
FF007F80
FF007F80
FF007F80
FF807F80
7F80FF80
7FC0FF80
7FF7FF00
3FFFFF00
3FFFFE00
1FFFFE00
0FFFFC00
07FFF800
03FFE000
00FFC000
ENDCHAR
STARTCHAR 1EE2
ENCODING 7906
SWIDTH 760 0
DWIDTH 38 0
BBX 37 51 1 -13
BITMAP
00000003F8
00000003F8
00003003F0
000FFF87F0
003FFFE7E0
00FFFFF7E0
01FFFFFFC0
03FFFFFFC0
07FFFFFF80
0FFFFFFF80
1FFFFFFF80
1FFF07FFC0
3FF801FFC0
3FF000FFE0
7FE0007FE0
7FE0003FF0
7FC0001FF0
7FC0001FF0
FF80001FF0
FF80001FF0
FF80001FF0
FF80001FF0
FF80001FF0
7FC0001FF0
7FC0001FF0
7FE0003FF0
7FE0007FE0
3FF000FFE0
3FFC01FFC0
1FFF07FFC0
1FFFFFFF80
0FFFFFFF80
07FFFFFF00
03FFFFFE00
01FFFFFC00
00FFFFF800
003FFFE000
000FFF8000
0000780000
0000000000
0000000000
0000700000
0001FC0000
0003FE0000
0003FE0000
0007FE0000
0007FE0000
0007FE0000
0003FE0000
0003FC0000
0000F80000
ENDCHAR
STARTCHAR 1EE3
ENCODING 7907
SWIDTH 540 0
DWIDTH 27 0
BBX 28 42 1 -13
BITMAP
000007F0
000007F0
000007E0
00000FE0
00FF8FC0
03FFEFC0
07FFFF80
0FFFFF80
1FFFFF00
3FFFFF00
3FFFFF00
7FFFFF00
7FC1FF80
7F80FF80
FF807F80
FF007F80
FF007F80
FF007F80
FF807F80
7F80FF80
7FC0FF80
7FF7FF00
3FFFFF00
3FFFFE00
1FFFFE00
0FFFFC00
07FFF800
03FFE000
00FFC000
00000000
00000000
00000000
001C0000
007F0000
00FF8000
00FF8000
00FFC000
00FFC000
00FFC000
00FF8000
007F8000
003E0000
ENDCHAR
STARTCHAR 1EE4
ENCODING 7908
SWIDTH 620 0
DWIDTH 31 0
BBX 27 48 2 -13
BITMAP
FF803FE0
FF803FE0
FF803FE0
FF803FE0
FF803FE0
FF803FE0
FF803FE0
FF803FE0
FF803FE0
FF803FE0
FF803FE0
FF803FE0
FF803FE0
FF803FE0
FF803FE0
FF803FE0
FF803FE0
FF803FE0
FF803FE0
FF803FE0
FF803FE0
FF803FE0
FF803FE0
FF803FE0
7FC03FE0
7FC07FC0
7FE0FFC0
7FFFFFC0
3FFFFF80
3FFFFF80
1FFFFF00
0FFFFE00
07FFFC00
03FFF800
00FFE000
001E0000
00000000
00000000
000E0000
003F8000
007FC000
007FC000
007FE000
007FE000
007FC000
007FC000
003F8000
001F0000
ENDCHAR
STARTCHAR 1EE5
ENCODING 7909
SWIDTH 520 0
DWIDTH 26 0
BBX 23 38 2 -13
BITMAP
FF01FE
FF01FE
FF01FE
FF01FE
FF01FE
FF01FE
FF01FE
FF01FE
FF01FE
FF01FE
FF01FE
FF01FE
FF01FE
FF01FE
FF01FE
FF01FE
FF03FC
7FC7FC
7FFFFC
7FFFF8
3FFFF8
1FFFF0
0FFFE0
07FFC0
01FF00
000000
000000
000000
003800
00FE00
01FF00
01FF00
03FF00
03FF00
01FF00
01FF00
00FE00
007C00
ENDCHAR
STARTCHAR 1EE6
ENCODING 7910
SWIDTH 620 0
DWIDTH 31 0
BBX 27 49 2 -1
BITMAP
000F0000
003F8000
007FC000
0079E000
0070E000
0000E000
0003E000
000FC000
000F8000
000E0000
000E0000
00000000
00000000
FF803FE0
FF803FE0
FF803FE0
FF803FE0
FF803FE0
FF803FE0
FF803FE0
FF803FE0
FF803FE0
FF803FE0
FF803FE0
FF803FE0
FF803FE0
FF803FE0
FF803FE0
FF803FE0
FF803FE0
FF803FE0
FF803FE0
FF803FE0
FF803FE0
FF803FE0
FF803FE0
FF803FE0
7FC03FE0
7FC07FC0
7FE0FFC0
7FFFFFC0
3FFFFF80
3FFFFF80
1FFFFF00
0FFFFE00
07FFFC00
03FFF800
00FFE000
001E0000
ENDCHAR
STARTCHAR 1EE7
ENCODING 7911
SWIDTH 520 0
DWIDTH 26 0
BBX 23 38 2 0
BITMAP
007C00
00FE00
01FF00
01C700
00C780
000700
003F00
003E00
003C00
003000
003000
000000
000000
FF01FE
FF01FE
FF01FE
FF01FE
FF01FE
FF01FE
FF01FE
FF01FE
FF01FE
FF01FE
FF01FE
FF01FE
FF01FE
FF01FE
FF01FE
FF01FE
FF03FC
7FC7FC
7FFFFC
7FFFF8
3FFFF8
1FFFF0
0FFFE0
07FFC0
01FF00
ENDCHAR
STARTCHAR 1EE8
ENCODING 7912
SWIDTH 660 0
DWIDTH 33 0
BBX 34 48 2 -1
BITMAP
0003F00000
0003E00000
0007E00000
0007C00000
000F800000
001F000000
001E000000
003C000000
0038000000
0000001FC0
0000001F80
0000003F80
FF803FFF00
FF803FFF00
FF803FFE00
FF803FFE00
FF803FFC00
FF803FFC00
FF803FF800
FF803FF800
FF803FE000
FF803FE000
FF803FE000
FF803FE000
FF803FE000
FF803FE000
FF803FE000
FF803FE000
FF803FE000
FF803FE000
FF803FE000
FF803FE000
FF803FE000
FF803FE000
FF803FE000
FF803FE000
7FC03FE000
7FC07FC000
7FE0FFC000
7FFFFFC000
3FFFFF8000
3FFFFF8000
1FFFFF0000
0FFFFE0000
07FFFC0000
03FFF80000
00FFE00000
001E000000
ENDCHAR
STARTCHAR 1EE9
ENCODING 7913
SWIDTH 560 0
DWIDTH 28 0
BBX 29 37 2 0
BITMAP
000FE000
000FC000
001F8000
001F0000
003E0000
003C0000
00780000
00780000
00F003F8
01E003F8
000003F0
000007F0
FF01FFE0
FF01FFE0
FF01FFC0
FF01FFC0
FF01FF80
FF01FF80
FF01FF00
FF01FE00
FF01FE00
FF01FE00
FF01FE00
FF01FE00
FF01FE00
FF01FE00
FF01FE00
FF01FE00
FF03FC00
7FC7FC00
7FFFFC00
7FFFF800
3FFFF800
1FFFF000
0FFFE000
07FFC000
01FF0000
ENDCHAR
STARTCHAR 1EEA
ENCODING 7914
SWIDTH 660 0
DWIDTH 33 0
BBX 34 48 2 -1
BITMAP
01F8000000
00FC000000
007C000000
003E000000
003E000000
001F000000
000F000000
0007800000
0003800000
0000001FC0
0000001F80
0000003F80
FF803FFF00
FF803FFF00
FF803FFE00
FF803FFE00
FF803FFC00
FF803FFC00
FF803FF800
FF803FF800
FF803FE000
FF803FE000
FF803FE000
FF803FE000
FF803FE000
FF803FE000
FF803FE000
FF803FE000
FF803FE000
FF803FE000
FF803FE000
FF803FE000
FF803FE000
FF803FE000
FF803FE000
FF803FE000
7FC03FE000
7FC07FC000
7FE0FFC000
7FFFFFC000
3FFFFF8000
3FFFFF8000
1FFFFF0000
0FFFFE0000
07FFFC0000
03FFF80000
00FFE00000
001E000000
ENDCHAR
STARTCHAR 1EEB
ENCODING 7915
SWIDTH 560 0
DWIDTH 28 0
BBX 29 37 2 0
BITMAP
0FE00000
07E00000
03F00000
01F00000
00F80000
00F80000
007C0000
003C0000
001E03F8
000E03F8
000003F0
000007F0
FF01FFE0
FF01FFE0
FF01FFC0
FF01FFC0
FF01FF80
FF01FF80
FF01FF00
FF01FE00
FF01FE00
FF01FE00
FF01FE00
FF01FE00
FF01FE00
FF01FE00
FF01FE00
FF01FE00
FF03FC00
7FC7FC00
7FFFFC00
7FFFF800
3FFFF800
1FFFF000
0FFFE000
07FFC000
01FF0000
ENDCHAR
STARTCHAR 1EEC
ENCODING 7916
SWIDTH 660 0
DWIDTH 33 0
BBX 34 49 2 -1
BITMAP
000F000000
003F800000
007FC00000
0079E00000
0070E00000
0000E00000
0003E00000
000FC00000
000F800000
000E000000
000E001FC0
0000001F80
0000003F80
FF803FFF00
FF803FFF00
FF803FFE00
FF803FFE00
FF803FFC00
FF803FFC00
FF803FF800
FF803FF800
FF803FE000
FF803FE000
FF803FE000
FF803FE000
FF803FE000
FF803FE000
FF803FE000
FF803FE000
FF803FE000
FF803FE000
FF803FE000
FF803FE000
FF803FE000
FF803FE000
FF803FE000
FF803FE000
7FC03FE000
7FC07FC000
7FE0FFC000
7FFFFFC000
3FFFFF8000
3FFFFF8000
1FFFFF0000
0FFFFE0000
07FFFC0000
03FFF80000
00FFE00000
001E000000
ENDCHAR
STARTCHAR 1EED
ENCODING 7917
SWIDTH 560 0
DWIDTH 28 0
BBX 29 38 2 0
BITMAP
007C0000
00FE0000
01FF0000
01C70000
00C78000
00070000
003F0000
003E0000
003C0000
003003F8
003003F8
000003F0
000007F0
FF01FFE0
FF01FFE0
FF01FFC0
FF01FFC0
FF01FF80
FF01FF80
FF01FF00
FF01FE00
FF01FE00
FF01FE00
FF01FE00
FF01FE00
FF01FE00
FF01FE00
FF01FE00
FF01FE00
FF03FC00
7FC7FC00
7FFFFC00
7FFFF800
3FFFF800
1FFFF000
0FFFE000
07FFC000
01FF0000
ENDCHAR
STARTCHAR 1EEE
ENCODING 7918
SWIDTH 660 0
DWIDTH 33 0
BBX 34 47 2 -1
BITMAP
0000380000
00FC380000
01FFF00000
01FFF00000
03FFE00000
0383C00000
0300000000
0000000000
0000001FC0
0000001F80
0000003F80
FF803FFF00
FF803FFF00
FF803FFE00
FF803FFE00
FF803FFC00
FF803FFC00
FF803FF800
FF803FF800
FF803FE000
FF803FE000
FF803FE000
FF803FE000
FF803FE000
FF803FE000
FF803FE000
FF803FE000
FF803FE000
FF803FE000
FF803FE000
FF803FE000
FF803FE000
FF803FE000
FF803FE000
FF803FE000
7FC03FE000
7FC07FC000
7FE0FFC000
7FFFFFC000
3FFFFF8000
3FFFFF8000
1FFFFF0000
0FFFFE0000
07FFFC0000
03FFF80000
00FFE00000
001E000000
ENDCHAR
STARTCHAR 1EEF
ENCODING 7919
SWIDTH 560 0
DWIDTH 28 0
BBX 29 35 2 0
BITMAP
0000E000
03F9E000
07FFC000
07FFC000
0F7F8000
0E020000
000003F8
000003F8
000003F0
000007F0
FF01FFE0
FF01FFE0
FF01FFC0
FF01FFC0
FF01FF80
FF01FF80
FF01FF00
FF01FE00
FF01FE00
FF01FE00
FF01FE00
FF01FE00
FF01FE00
FF01FE00
FF01FE00
FF01FE00
FF03FC00
7FC7FC00
7FFFFC00
7FFFF800
3FFFF800
1FFFF000
0FFFE000
07FFC000
01FF0000
ENDCHAR
STARTCHAR 1EF0
ENCODING 7920
SWIDTH 660 0
DWIDTH 33 0
BBX 34 51 2 -13
BITMAP
0000001FC0
0000001F80
0000003F80
FF803FFF00
FF803FFF00
FF803FFE00
FF803FFE00
FF803FFC00
FF803FFC00
FF803FF800
FF803FF800
FF803FE000
FF803FE000
FF803FE000
FF803FE000
FF803FE000
FF803FE000
FF803FE000
FF803FE000
FF803FE000
FF803FE000
FF803FE000
FF803FE000
FF803FE000
FF803FE000
FF803FE000
FF803FE000
7FC03FE000
7FC07FC000
7FE0FFC000
7FFFFFC000
3FFFFF8000
3FFFFF8000
1FFFFF0000
0FFFFE0000
07FFFC0000
03FFF80000
00FFE00000
001E000000
0000000000
0000000000
000E000000
003F800000
007FC00000
007FC00000
007FE00000
007FE00000
007FC00000
007FC00000
003F800000
001F000000
ENDCHAR
STARTCHAR 1EF1
ENCODING 7921
SWIDTH 560 0
DWIDTH 28 0
BBX 29 42 2 -13
BITMAP
000003F8
000003F8
000003F0
000007F0
FF01FFE0
FF01FFE0
FF01FFC0
FF01FFC0
FF01FF80
FF01FF80
FF01FF00
FF01FE00
FF01FE00
FF01FE00
FF01FE00
FF01FE00
FF01FE00
FF01FE00
FF01FE00
FF01FE00
FF03FC00
7FC7FC00
7FFFFC00
7FFFF800
3FFFF800
1FFFF000
0FFFE000
07FFC000
01FF0000
00000000
00000000
00000000
00380000
00FE0000
01FF0000
01FF0000
03FF0000
03FF0000
01FF0000
01FF0000
00FE0000
007C0000
ENDCHAR
STARTCHAR 1EF2
ENCODING 7922
SWIDTH 560 0
DWIDTH 28 0
BBX 24 47 2 0
BITMAP
07E000
03F000
01F800
00F800
007C00
003C00
003E00
001E00
000F00
000000
000000
000000
FF80FF
FF80FF
FF80FF
FF80FF
FF80FF
FF80FF
FF80FF
FF80FF
FF80FF
FF80FF
FF80FF
FF80FF
FF80FF
FF81FF
7FC1FF
7FFFFF
7FFFFE
3FFFFE
3FFFFC
1FFFF8
0FFFF0
07FFE0
01FFC0
00FF80
00FF80
00FF80
00FF80
00FF80
00FF80
00FF80
00FF80
00FF80
00FF80
00FF80
00FF80
ENDCHAR
STARTCHAR 1EF3
ENCODING 7923
SWIDTH 520 0
DWIDTH 26 0
BBX 23 48 2 -11
BITMAP
0FE000
07E000
03F000
01F000
00F800
00F800
007C00
003C00
001E00
000E00
000000
000000
FF01FE
FF01FE
FF01FE
FF01FE
FF01FE
FF01FE
FF01FE
FF01FE
FF01FE
FF01FE
FF01FE
FF01FE
FF01FE
FF01FE
FF01FE
FF01FE
FF03FC
FF87FC
7FFFFC
7FFFF8
3FFFF8
3FFFF0
1FFFE0
07FFC0
03FF00
01FE00
01FE00
01FE00
01FE00
01FE00
01FE00
01FE00
01FE00
01FE00
01FE00
01FE00
ENDCHAR
STARTCHAR 1EF4
ENCODING 7924
SWIDTH 560 0
DWIDTH 28 0
BBX 24 48 2 -13
BITMAP
FF80FF
FF80FF
FF80FF
FF80FF
FF80FF
FF80FF
FF80FF
FF80FF
FF80FF
FF80FF
FF80FF
FF80FF
FF80FF
FF81FF
7FC1FF
7FFFFF
7FFFFE
3FFFFE
3FFFFC
1FFFF8
0FFFF0
07FFE0
01FFC0
00FF80
00FF80
00FF80
00FF80
00FF80
00FF80
00FF80
00FF80
00FF80
00FF80
00FF80
00FF80
000000
000000
000000
001C00
007F00
00FF80
00FF80
01FF80
01FF80
00FF80
00FF80
007F00
003E00
ENDCHAR
STARTCHAR 1EF5
ENCODING 7925
SWIDTH 520 0
DWIDTH 26 0
BBX 24 38 2 -13
BITMAP
FF01FE
FF01FE
FF01FE
FF01FE
FF01FE
FF01FE
FF01FE
FF01FE
FF01FE
FF01FE
FF01FE
FF01FE
FF01FE
FF01FE
FF01FE
FF01FE
FF03FC
FF87FC
7FFFFC
7FFFF8
3FFFF8
3FFFF0
1FFFE0
07FFC0
03FF00
01FE00
01FE00
01FE00
01FE38
01FEFC
01FFFE
01FFFF
01FFFF
01FFFF
01FFFF
01FFFE
0001FE
0000FC
ENDCHAR
STARTCHAR 1EF6
ENCODING 7926
SWIDTH 560 0
DWIDTH 28 0
BBX 24 48 2 0
BITMAP
003E00
007F00
00FF80
00E380
01C380
000380
000F80
001F00
001E00
001800
001800
000000
000000
FF80FF
FF80FF
FF80FF
FF80FF
FF80FF
FF80FF
FF80FF
FF80FF
FF80FF
FF80FF
FF80FF
FF80FF
FF80FF
FF81FF
7FC1FF
7FFFFF
7FFFFE
3FFFFE
3FFFFC
1FFFF8
0FFFF0
07FFE0
01FFC0
00FF80
00FF80
00FF80
00FF80
00FF80
00FF80
00FF80
00FF80
00FF80
00FF80
00FF80
00FF80
ENDCHAR
STARTCHAR 1EF7
ENCODING 7927
SWIDTH 520 0
DWIDTH 26 0
BBX 23 49 2 -11
BITMAP
007C00
00FE00
01FF00
01C700
00C780
000700
003F00
003E00
003C00
003000
003000
000000
000000
FF01FE
FF01FE
FF01FE
FF01FE
FF01FE
FF01FE
FF01FE
FF01FE
FF01FE
FF01FE
FF01FE
FF01FE
FF01FE
FF01FE
FF01FE
FF01FE
FF03FC
FF87FC
7FFFFC
7FFFF8
3FFFF8
3FFFF0
1FFFE0
07FFC0
03FF00
01FE00
01FE00
01FE00
01FE00
01FE00
01FE00
01FE00
01FE00
01FE00
01FE00
01FE00
ENDCHAR
STARTCHAR 1EF8
ENCODING 7928
SWIDTH 560 0
DWIDTH 28 0
BBX 24 46 2 0
BITMAP
000070
01F8F0
03FFE0
07FFE0
07FFC0
070780
060000
000000
000000
000000
000000
FF80FF
FF80FF
FF80FF
FF80FF
FF80FF
FF80FF
FF80FF
FF80FF
FF80FF
FF80FF
FF80FF
FF80FF
FF80FF
FF81FF
7FC1FF
7FFFFF
7FFFFE
3FFFFE
3FFFFC
1FFFF8
0FFFF0
07FFE0
01FFC0
00FF80
00FF80
00FF80
00FF80
00FF80
00FF80
00FF80
00FF80
00FF80
00FF80
00FF80
00FF80
ENDCHAR
STARTCHAR 1EF9
ENCODING 7929
SWIDTH 520 0
DWIDTH 26 0
BBX 23 46 2 -11
BITMAP
0000E0
03F9E0
07FFC0
07FFC0
0F7F80
0E0200
000000
000000
000000
000000
FF01FE
FF01FE
FF01FE
FF01FE
FF01FE
FF01FE
FF01FE
FF01FE
FF01FE
FF01FE
FF01FE
FF01FE
FF01FE
FF01FE
FF01FE
FF01FE
FF03FC
FF87FC
7FFFFC
7FFFF8
3FFFF8
3FFFF0
1FFFE0
07FFC0
03FF00
01FE00
01FE00
01FE00
01FE00
01FE00
01FE00
01FE00
01FE00
01FE00
01FE00
01FE00
ENDCHAR
STARTCHAR 2010
ENCODING 8208
SWIDTH 320 0
DWIDTH 16 0
BBX 13 7 2 9
BITMAP
FFF8
FFF8
FFF8
FFF8
FFF8
FFF8
FFF8
ENDCHAR
STARTCHAR 2013
ENCODING 8211
SWIDTH 500 0
DWIDTH 25 0
BBX 25 5 0 10
BITMAP
FFFFFF80
FFFFFF80
FFFFFF80
FFFFFF80
FFFFFF80
ENDCHAR
STARTCHAR 2014
ENCODING 8212
SWIDTH 1000 0
DWIDTH 50 0
BBX 50 5 0 10
BITMAP
FFFFFFFFFFFFC0
FFFFFFFFFFFFC0
FFFFFFFFFFFFC0
FFFFFFFFFFFFC0
FFFFFFFFFFFFC0
ENDCHAR
STARTCHAR 2018
ENCODING 8216
SWIDTH 280 0
DWIDTH 14 0
BBX 8 12 3 23
BITMAP
1F
1F
3F
3F
3F
3F
7E
7E
7E
7E
FE
FE
ENDCHAR
STARTCHAR 2019
ENCODING 8217
SWIDTH 280 0
DWIDTH 14 0
BBX 9 12 3 23
BITMAP
3F80
3F00
3F00
3F00
7F00
7E00
7E00
7E00
7E00
7C00
7C00
FC00
ENDCHAR
STARTCHAR 201A
ENCODING 8218
SWIDTH 280 0
DWIDTH 14 0
BBX 8 12 3 -6
BITMAP
7F
7F
7F
7E
7E
7E
7E
7C
FC
FC
FC
F8
ENDCHAR
STARTCHAR 201C
ENCODING 8220
SWIDTH 480 0
DWIDTH 24 0
BBX 18 12 3 23
BITMAP
1F07C0
1F07C0
3F07C0
3F0FC0
3F0FC0
3F0FC0
7E0FC0
7E1F80
7E1F80
7E1F80
FE1F80
FE3F80
ENDCHAR
STARTCHAR 201D
ENCODING 8221
SWIDTH 480 0
DWIDTH 24 0
BBX 19 12 3 23
BITMAP
3F8FE0
3F0FC0
3F0FC0
3F0FC0
7F0FC0
7E1F80
7E1F80
7E1F80
7E1F80
7C1F00
7C1F00
FC1F00
ENDCHAR
STARTCHAR 201E
ENCODING 8222
SWIDTH 480 0
DWIDTH 24 0
BBX 18 12 3 -6
BITMAP
7F0FC0
7F0FC0
7F1FC0
7E1FC0
7E1F80
7E1F80
7E1F80
7C1F80
FC1F00
FC3F00
FC3F00
F83F00
ENDCHAR
STARTCHAR 2020
ENCODING 8224
SWIDTH 500 0
DWIDTH 25 0
BBX 23 37 1 -2
BITMAP
00FE00
00FE00
00FE00
00FE00
00FE00
00FE00
00FE00
00FE00
FFFFFE
FFFFFE
FFFFFE
FFFFFE
FFFFFE
FFFFFE
00FE00
00FE00
00FE00
00FE00
00FE00
00FE00
00FE00
00FE00
00FE00
00FE00
00FE00
00FE00
00FE00
00FE00
00FE00
00FE00
00FE00
00FE00
00FE00
00FE00
00FE00
00FE00
00FE00
ENDCHAR
STARTCHAR 2021
ENCODING 8225
SWIDTH 500 0
DWIDTH 25 0
BBX 21 37 2 -2
BITMAP
01FC00
01FC00
01FC00
01FC00
01FC00
01FC00
01FC00
01FC00
FFFFF8
FFFFF8
FFFFF8
FFFFF8
FFFFF8
FFFFF8
01FC00
01FC00
01FC00
01FC00
01FC00
01FC00
01FC00
FFFFF8
FFFFF8
FFFFF8
FFFFF8
FFFFF8
FFFFF8
01FC00
01FC00
01FC00
01FC00
01FC00
01FC00
01FC00
01FC00
01FC00
01FC00
ENDCHAR
STARTCHAR 2022
ENCODING 8226
SWIDTH 580 0
DWIDTH 29 0
BBX 15 15 7 11
BITMAP
03C0
0FF0
3FF8
3FFC
7FFC
7FFE
7FFE
FFFE
7FFE
7FFE
7FFC
3FFC
1FF8
0FF0
0380
ENDCHAR
STARTCHAR 2026
ENCODING 8230
SWIDTH 1000 0
DWIDTH 50 0
BBX 44 10 3 -1
BITMAP
1F001F800FC0
7F803FC01FE0
7FC07FE03FE0
FFC07FE03FF0
FFC07FE03FF0
FFC07FE03FF0
7FC07FE03FE0
7FC03FC01FE0
3F801F801FC0
040006000300
ENDCHAR
STARTCHAR 2030
ENCODING 8240
SWIDTH 1260 0
DWIDTH 63 0
BBX 60 35 2 0
BITMAP
03F0000F80000000
0FFC001F00000000
1FFE001F00000000
3FFF003E00000000
7FFF807E00000000
FFFF807C00000000
FC1F80F800000000
FC0FC1F800000000
F80FC1F000000000
F80FC3E000000000
FC0FC3E000000000
FC1F87C000000000
FF7F8FC000000000
7FFF8F8000000000
7FFF1F0000000000
3FFE3F0000000000
0FFC3E0000000000
03F07C0FC000FC00
00007C3FF003FF00
0000F87FF807FF80
0001F8FFFC0FFFC0
0001F1FFFE1FFFE0
0003E1FEFE3FDFE0
0007E3F03F3F07E0
0007C3F03F3F03F0
000F83E01F3E03F0
000F83E01F3E03F0
001F03F03F3F03F0
003F03F03F3F07E0
003E01FFFE3FDFE0
007C01FFFE1FFFE0
00FC00FFFC0FFFC0
00F8007FF80FFF80
01F0003FF003FF00
01F0000FC000FC00
ENDCHAR
STARTCHAR 2039
ENCODING 8249
SWIDTH 340 0
DWIDTH 17 0
BBX 12 16 3 4
BITMAP
03E0
07C0
0FC0
1F80
3F00
3E00
7C00
FC00
7C00
7E00
3F00
1F80
0F80
07C0
07E0
03F0
ENDCHAR
STARTCHAR 203A
ENCODING 8250
SWIDTH 340 0
DWIDTH 17 0
BBX 12 16 2 4
BITMAP
7E00
3E00
1F00
1F80
0FC0
07E0
03E0
01F0
03F0
07E0
0FC0
0F80
1F00
3F00
7E00
FC00
ENDCHAR
STARTCHAR 2044
ENCODING 8260
SWIDTH 160 0
DWIDTH 8 0
BBX 24 35 -8 0
BITMAP
00000F
00001F
00003E
00003E
00007C
00007C
0000F8
0001F0
0001F0
0003E0
0003E0
0007C0
0007C0
000F80
001F00
001F00
003E00
003E00
007C00
007800
00F800
01F000
01F000
03E000
03E000
07C000
078000
0F8000
1F0000
1F0000
3E0000
3E0000
7C0000
F80000
F80000
ENDCHAR
STARTCHAR 20A3
ENCODING 8355
SWIDTH 820 0
DWIDTH 41 0
BBX 39 35 2 0
BITMAP
00FFE00000
07FFE00000
0FFFE00000
1FFFE00000
3FFFE00000
3FFFE00000
7FFFE00000
7FFFE00000
7FE0000000
FFC0000000
FF8001FC0E
FF8001FC7E
FF8001FDFE
FF8001FDFE
FFFFE1FFFE
FFFFE1FFFE
FFFFE1FFFE
FFFFE1FFFE
FFFFE1FFC0
FFFFE1FF80
FFFFE1FF00
FFFFE1FE00
FF8001FE00
FF8001FE00
FF8001FE00
FF8001FE00
FF8001FE00
FF8001FE00
FF8001FE00
FF8001FE00
FF8001FE00
FF8001FE00
FF8001FE00
FF8001FE00
FF8001FE00
ENDCHAR
STARTCHAR 20AB
ENCODING 8363
SWIDTH 420 0
DWIDTH 21 0
BBX 20 33 1 3
BITMAP
0007C0
0007C0
00FFF0
00FFF0
00FFF0
00FFF0
0007C0
0007C0
07F7C0
1FF7C0
3FF7C0
3FF7C0
7FF7C0
7FF7C0
FE07C0
FC07C0
FC07C0
FC07C0
FC0FC0
FE0FC0
FF1FC0
7FFF80
7FFF80
3FFF00
1FFE00
07FC00
01C000
000000
000000
000000
1FFF80
1FFF80
1FFF80
ENDCHAR
STARTCHAR 2122
ENCODING 8482
SWIDTH 820 0
DWIDTH 41 0
BBX 31 14 5 22
BITMAP
FFF3F07E
FFF3F07E
FFF3F87E
0F03F8FE
0F03F8FE
0F03DDFE
0F03DDDE
0F03CFDE
0F03CF9E
0F03CF9E
0F03C79E
0F03C71E
0F03C71E
0F03C31E
ENDCHAR
STARTCHAR 2126
ENCODING 8486
SWIDTH 800 0
DWIDTH 40 0
BBX 38 37 1 0
BITMAP
0001FE0000
001FFFE000
007FFFF800
00FFFFFC00
01FFFFFF00
03FFFFFF80
07FFFFFF80
0FFFFFFFC0
1FFF03FFE0
1FFC00FFE0
1FF8007FF0
3FF0003FF0
3FF0003FF0
3FE0001FF0
3FE0001FF0
3FE0001FF0
3FE0001FF0
3FE0001FF0
3FE0001FF0
3FE0001FF0
3FE0001FF0
3FE0001FF0
1FF0003FE0
1FF0003FE0
0FF0003FC0
0FF8007FC0
07FC00FF80
03FE01FF00
01FF01FE00
FFFF01FFFC
FFFF01FFFC
FFFF01FFFC
FFFF01FFFC
FFFF01FFFC
FFFF01FFFC
FFFF01FFFC
FFFF01FFFC
ENDCHAR
STARTCHAR 2202
ENCODING 8706
SWIDTH 540 0
DWIDTH 27 0
BBX 25 34 1 -1
BITMAP
003FC000
00FFF000
01FFF800
03FE3C00
03F83C00
03F01E00
01E01E00
00001F00
00001F00
00001F00
00001F00
00003F80
01FC3F80
07FE3F80
0FE33F80
1FC1BF80
3F80FF80
3F80FF80
7F00FF80
7F00FF00
7F00FF00
7E00FF00
FE00FF00
FE00FE00
FE00FE00
7E01FC00
7E01FC00
7E01F800
3E03F800
3F03F000
1F07E000
0FCF8000
03FF0000
00780000
ENDCHAR
STARTCHAR 2206
ENCODING 8710
SWIDTH 700 0
DWIDTH 35 0
BBX 36 36 0 0
BITMAP
0007FE0000
0007FE0000
000FFF0000
000FFF0000
001FFF0000
001FFF8000
001FFF8000
003FFF8000
003FFFC000
003FFFC000
007FFFE000
007FBFE000
007F9FE000
00FF9FF000
00FF1FF000
01FF0FF000
01FF0FF800
01FE0FF800
03FE07FC00
03FE07FC00
03FC07FC00
07FC03FE00
07FC03FE00
07F803FE00
0FF801FF00
0FF801FF00
1FF001FF00
1FF000FF80
1FF000FF80
3FFFFFFFC0
3FFFFFFFC0
3FFFFFFFC0
7FFFFFFFE0
7FFFFFFFE0
FFFFFFFFE0
FFFFFFFFF0
ENDCHAR
STARTCHAR 220F
ENCODING 8719
SWIDTH 800 0
DWIDTH 40 0
BBX 32 46 4 -10
BITMAP
FFFFFFFF
FFFFFFFF
FFFFFFFF
FFFFFFFF
FFFFFFFF
FFFFFFFF
FFFFFFFF
FFFFFFFF
FF8001FF
FF8001FF
FF8001FF
FF8001FF
FF8001FF
FF8001FF
FF8001FF
FF8001FF
FF8001FF
FF8001FF
FF8001FF
FF8001FF
FF8001FF
FF8001FF
FF8001FF
FF8001FF
FF8001FF
FF8001FF
FF8001FF
FF8001FF
FF8001FF
FF8001FF
FF8001FF
FF8001FF
FF8001FF
FF8001FF
FF8001FF
FF8001FF
FF8001FF
FF8001FF
FF8001FF
FF8001FF
FF8001FF
FF8001FF
FF8001FF
FF8001FF
FF8001FF
FF8001FF
ENDCHAR
STARTCHAR 2211
ENCODING 8721
SWIDTH 740 0
DWIDTH 37 0
BBX 35 46 1 -10
BITMAP
7FFFFFFF80
7FFFFFFF80
7FFFFFFF80
7FFFFFFF80
7FFFFFFF80
7FFFFFFF80
7FFFFFFF80
3FF8000000
1FFC000000
0FFE000000
07FF000000
03FF800000
01FFC00000
00FFE00000
007FF00000
003FF80000
001FFC0000
000FFE0000
0007FF0000
0003FF8000
0001FFC000
0000FFE000
00007FE000
0000FFC000
0001FF8000
0003FF8000
0007FF0000
000FFE0000
000FFC0000
001FF80000
003FF00000
007FE00000
00FFC00000
01FF800000
03FF000000
07FF000000
0FFE000000
1FFC000000
1FFFFFFFE0
3FFFFFFFE0
7FFFFFFFE0
FFFFFFFFE0
FFFFFFFFE0
FFFFFFFFE0
FFFFFFFFE0
FFFFFFFFE0
ENDCHAR
STARTCHAR 2212
ENCODING 8722
SWIDTH 820 0
DWIDTH 41 0
BBX 29 6 6 12
BITMAP
FFFFFFF8
FFFFFFF8
FFFFFFF8
FFFFFFF8
FFFFFFF8
FFFFFFF8
ENDCHAR
STARTCHAR 2219
ENCODING 8729
SWIDTH 280 0
DWIDTH 14 0
BBX 10 10 2 13
BITMAP
1E00
7F80
7F80
FFC0
FFC0
FFC0
FFC0
7F80
7F80
1E00
ENDCHAR
STARTCHAR 221A
ENCODING 8730
SWIDTH 660 0
DWIDTH 33 0
BBX 31 43 2 -1
BITMAP
0000003E
0000003E
0000007E
0000007E
00000078
000000F0
000000F0
000001F0
000001E0
000001E0
000003E0
000003C0
000003C0
000007C0
00000780
00000780
00000F00
00800F00
03801F00
1F801E00
FFC01E00
FFC03E00
FFC03C00
07E03C00
07E07C00
07E07800
03F0F800
03F0F000
01F8F000
01F9F000
01F9E000
00FDE000
00FFE000
00FFC000
007FC000
007F8000
007F8000
003F8000
003F0000
001F0000
001F0000
001E0000
000E0000
ENDCHAR
STARTCHAR 221E
ENCODING 8734
SWIDTH 820 0
DWIDTH 41 0
BBX 32 20 5 5
BITMAP
0FC007E0
1FF01FF0
3FF83FF8
7FFC7FFC
7FFE7FFE
FFFEFFFE
F81FFC1E
F00FF80F
E007F007
E007E007
E00FE007
E00FC007
E01FE00F
F03FF01F
FFFFFE7E
7FFE7FFE
7FFC3FFE
3FFC3FFC
1FF81FF8
0FE007F0
ENDCHAR
STARTCHAR 222B
ENCODING 8747
SWIDTH 600 0
DWIDTH 30 0
BBX 28 47 1 -9
BITMAP
00001F80
00007FE0
0000FFF0
0001F7F0
0001E3F0
0003E3F0
0003E3F0
0007E1E0
0007E000
0007C000
000FC000
000FC000
000FC000
000FC000
000FC000
001FC000
001FC000
001FC000
001FC000
001FC000
001FC000
001FC000
001FC000
001FC000
001FC000
001FC000
001F8000
001F8000
001F8000
001F8000
001F8000
001F8000
003F8000
003F8000
003F8000
003F0000
003F0000
003F0000
003F0000
3C3E0000
7E3E0000
FE7C0000
FE7C0000
FE780000
7FF00000
7FE00000
1F800000
ENDCHAR
STARTCHAR 2248
ENCODING 8776
SWIDTH 820 0
DWIDTH 41 0
BBX 33 20 4 4
BITMAP
01F8000080
0FFF800180
3FFFF00F80
7FFFFFFF80
FFFFFFFF80
FFFFFFFF80
FE07FFFF00
F0007FFE00
C0000FF000
8000000000
0000000000
03FE000080
1FFFC00380
3FFFF81F80
FFFFFFFF80
FFFFFFFF80
FFFFFFFF80
FC01FFFF00
F0003FFC00
C00007E000
ENDCHAR
STARTCHAR 2260
ENCODING 8800
SWIDTH 820 0
DWIDTH 41 0
BBX 29 30 6 0
BITMAP
00000300
000007C0
000007E0
00000FE0
00001FC0
00003F80
00007F00
FFFFFFF8
FFFFFFF8
FFFFFFF8
FFFFFFF8
FFFFFFF8
0007F000
000FE000
000FE000
001FC000
003F8000
007F0000
FFFFFFF8
FFFFFFF8
FFFFFFF8
FFFFFFF8
FFFFFFF8
07F00000
0FE00000
0FC00000
1FC00000
3F800000
1F000000
06000000
ENDCHAR
STARTCHAR 2264
ENCODING 8804
SWIDTH 820 0
DWIDTH 41 0
BBX 29 30 6 1
BITMAP
00000038
000003F8
00001FF8
0000FFF8
0007FFF8
003FFFF0
01FFFF80
0FFFFC00
FFFFE000
FFFE0000
FFF00000
FFF00000
FFFE0000
FFFFE000
1FFFFC00
01FFFF80
003FFFF0
0007FFF8
0000FFF8
00001FF8
000003F8
00000038
00000000
00000000
00000000
FFFFFFF8
FFFFFFF8
FFFFFFF8
FFFFFFF8
FFFFFFF8
ENDCHAR
STARTCHAR 2265
ENCODING 8805
SWIDTH 820 0
DWIDTH 41 0
BBX 29 31 6 0
BITMAP
80000000
F0000000
FE000000
FFC00000
FFF80000
FFFF8000
7FFFF000
07FFFE00
00FFFFC0
001FFFF8
0003FFF8
00003FF8
00003FF8
0003FFF8
001FFFF8
00FFFFC0
07FFFE00
7FFFF000
FFFF8000
FFFC0000
FFC00000
FE000000
F0000000
80000000
00000000
00000000
FFFFFFF8
FFFFFFF8
FFFFFFF8
FFFFFFF8
FFFFFFF8
ENDCHAR
STARTCHAR 22F2
ENCODING 8946
SWIDTH 820 0
DWIDTH 41 0
BBX 33 20 4 4
BITMAP
01F8000080
0FFF800180
3FFFF00F80
7FFFFFFF80
FFFFFFFF80
FFFFFFFF80
FE07FFFF00
F0007FFE00
C0000FF000
8000000000
0000000000
03FE000080
1FFFC00380
3FFFF81F80
FFFFFFFF80
FFFFFFFF80
FFFFFFFF80
FC01FFFF00
F0003FFC00
C00007E000
ENDCHAR
STARTCHAR 255F
ENCODING 9567
SWIDTH 620 0
DWIDTH 31 0
BBX 27 36 2 0
BITMAP
00040000
00FFE000
03FFF800
07FFFC00
0FFFFE00
1FFFFF00
3FFFFF80
3FFFFF80
7FFFFFC0
7FE0FFC0
7FC07FC0
7FC03FE0
FF803FE0
FF803FE0
FF803FE0
FFBFFFE0
FFBFFFE0
FFBFFFE0
FFBFFFE0
FFBFFFE0
FFBFFFE0
FFBFFFE0
FFBFFFE0
FF803FE0
FF803FE0
FF803FE0
FF803FE0
FF803FE0
FF803FE0
FF803FE0
FF803FE0
FF803FE0
FF803FE0
FF803FE0
FF803FE0
FF803FE0
ENDCHAR
STARTCHAR 2560
ENCODING 9568
SWIDTH 520 0
DWIDTH 26 0
BBX 23 35 1 0
BITMAP
0000FE
000FFE
007FFE
00FFFE
03FFFE
07FFFE
0FFFFE
1FFFFE
1FFF00
3FFC00
3FF000
7FE000
7FE000
7FFFFE
7FFFFE
FFFFFE
FFFFFE
FFFFFE
FFFFFE
FFFFFE
7FFFFE
7FC000
7FC000
7FE000
3FF000
3FF800
1FFF00
1FFFFE
0FFFFE
07FFFE
03FFFE
00FFFE
007FFE
001FFE
0001FE
ENDCHAR
STARTCHAR 2561
ENCODING 9569
SWIDTH 280 0
DWIDTH 14 0
BBX 8 35 3 0
BITMAP
FF
FF
FF
FF
FF
FF
FF
FF
FF
FF
FF
FF
FF
FF
FF
FF
FF
FF
FF
FF
FF
FF
FF
FF
FF
FF
FF
FF
FF
FF
FF
FF
FF
FF
FF
ENDCHAR
STARTCHAR 2562
ENCODING 9570
SWIDTH 760 0
DWIDTH 38 0
BBX 36 37 1 -1
BITMAP
0000300000
000FFF8000
003FFFE000
00FFFFF000
01FFFFFC00
03FFFFFE00
07FFFFFF00
0FFFFFFF80
1FFFFFFF80
1FFF07FFC0
3FF801FFC0
3FF000FFE0
7FE0007FE0
7FE0003FF0
7FC0001FF0
7FC0001FF0
FF80001FF0
FF80001FF0
FF80001FF0
FF80001FF0
FF80001FF0
7FC0001FF0
7FC0001FF0
7FE0003FF0
7FE0007FE0
3FF000FFE0
3FFC01FFC0
1FFF07FFC0
1FFFFFFF80
0FFFFFFF80
07FFFFFF00
03FFFFFE00
01FFFFFC00
00FFFFF800
003FFFE000
000FFF8000
0000780000
ENDCHAR
STARTCHAR 2563
ENCODING 9571
SWIDTH 620 0
DWIDTH 31 0
BBX 27 36 2 -1
BITMAP
FF803FE0
FF803FE0
FF803FE0
FF803FE0
FF803FE0
FF803FE0
FF803FE0
FF803FE0
FF803FE0
FF803FE0
FF803FE0
FF803FE0
FF803FE0
FF803FE0
FF803FE0
FF803FE0
FF803FE0
FF803FE0
FF803FE0
FF803FE0
FF803FE0
FF803FE0
FF803FE0
FF803FE0
7FC03FE0
7FC07FC0
7FE0FFC0
7FFFFFC0
3FFFFF80
3FFFFF80
1FFFFF00
0FFFFE00
07FFFC00
03FFF800
00FFE000
001E0000
ENDCHAR
STARTCHAR 2564
ENCODING 9572
SWIDTH 560 0
DWIDTH 28 0
BBX 24 35 2 0
BITMAP
FF80FF
FF80FF
FF80FF
FF80FF
FF80FF
FF80FF
FF80FF
FF80FF
FF80FF
FF80FF
FF80FF
FF80FF
FF80FF
FF81FF
7FC1FF
7FFFFF
7FFFFE
3FFFFE
3FFFFC
1FFFF8
0FFFF0
07FFE0
01FFC0
00FF80
00FF80
00FF80
00FF80
00FF80
00FF80
00FF80
00FF80
00FF80
00FF80
00FF80
00FF80
ENDCHAR
STARTCHAR 2565
ENCODING 9573
SWIDTH 560 0
DWIDTH 28 0
BBX 25 25 1 0
BITMAP
00FF8000
03FFE000
07FFF800
0FFFFC00
1FFFFE00
3FFFFE00
7FFFFF00
7FFFFF00
7FC0FF80
FF80FF80
FF007F80
FF007F80
FF007F80
FF007F80
FF007F80
FF807F80
7FC07F80
7FFF7F80
7FFF7F80
3FFF7F80
1FFF7F80
1FFF7F80
0FFF7F80
03FF7F80
00FF7F80
ENDCHAR
STARTCHAR 2566
ENCODING 9574
SWIDTH 540 0
DWIDTH 27 0
BBX 26 25 1 0
BITMAP
007F8000
03FFE000
07FFF800
0FFFFC00
1FFFFC00
3FFFFE00
3FE0FF00
7F81FF00
7F87FE00
7F0FFC00
FF3FF000
FF3FE000
FF3F8000
FF1F0C00
FF0C1F00
7F881FC0
7FC07FC0
7FE0FF80
3FFFFF80
3FFFFF00
1FFFFE00
0FFFFC00
07FFF800
03FFF000
00FFC000
ENDCHAR
STARTCHAR 2567
ENCODING 9575
SWIDTH 240 0
DWIDTH 12 0
BBX 9 36 2 0
BITMAP
3C00
7F00
FF00
FF80
FF80
FF80
FF00
7F00
3C00
0000
0000
FF00
FF00
FF00
FF00
FF00
FF00
FF00
FF00
FF00
FF00
FF00
FF00
FF00
FF00
FF00
FF00
FF00
FF00
FF00
FF00
FF00
FF00
FF00
FF00
FF00
ENDCHAR
STARTCHAR 2568
ENCODING 9576
SWIDTH 240 0
DWIDTH 12 0
BBX 8 25 2 0
BITMAP
FF
FF
FF
FF
FF
FF
FF
FF
FF
FF
FF
FF
FF
FF
FF
FF
FF
FF
FF
FF
FF
FF
FF
FF
FF
ENDCHAR
STARTCHAR 2569
ENCODING 9577
SWIDTH 540 0
DWIDTH 27 0
BBX 25 25 1 0
BITMAP
00FF8000
03FFE000
07FFF800
0FFFFC00
1FFFFC00
3FFFFE00
3FFFFF00
7FFFFF00
7FC1FF80
7F80FF80
FF807F80
FF007F80
FF007F80
FF007F80
FF807F80
7F80FF80
7FC0FF80
7FF7FF00
3FFFFF00
3FFFFE00
1FFFFE00
0FFFFC00
07FFF800
03FFE000
00FFC000
ENDCHAR
STARTCHAR 256A
ENCODING 9578
SWIDTH 520 0
DWIDTH 26 0
BBX 23 25 2 0
BITMAP
FF01FE
FF01FE
FF01FE
FF01FE
FF01FE
FF01FE
FF01FE
FF01FE
FF01FE
FF01FE
FF01FE
FF01FE
FF01FE
FF01FE
FF01FE
FF01FE
FF03FC
7FC7FC
7FFFFC
7FFFF8
3FFFF8
1FFFF0
0FFFE0
07FFC0
01FF00
ENDCHAR
STARTCHAR 256B
ENCODING 9579
SWIDTH 520 0
DWIDTH 26 0
BBX 23 36 2 -11
BITMAP
FF01FE
FF01FE
FF01FE
FF01FE
FF01FE
FF01FE
FF01FE
FF01FE
FF01FE
FF01FE
FF01FE
FF01FE
FF01FE
FF01FE
FF01FE
FF01FE
FF03FC
FF87FC
7FFFFC
7FFFF8
3FFFF8
3FFFF0
1FFFE0
07FFC0
03FF00
01FE00
01FE00
01FE00
01FE00
01FE00
01FE00
01FE00
01FE00
01FE00
01FE00
01FE00
ENDCHAR
STARTCHAR 25CA
ENCODING 9674
SWIDTH 480 0
DWIDTH 24 0
BBX 25 51 0 -12
BITMAP
00080000
00180000
001C0000
001C0000
003E0000
003E0000
00770000
00670000
00E38000
00E38000
01C18000
01C1C000
0380C000
0380E000
07006000
07007000
0E007000
0E003800
1C003800
1C001C00
38001C00
38000E00
30000E00
70000700
60000700
E0000380
60000700
70000700
30000E00
38000E00
38001C00
1C001C00
1C003800
0E003800
0E003000
07007000
07006000
0380E000
0380E000
0181C000
01C1C000
00C38000
00E38000
00670000
00770000
007E0000
003E0000
003C0000
001C0000
00180000
00080000
ENDCHAR
STARTCHAR 25CB
ENCODING 9675
SWIDTH 620 0
DWIDTH 31 0
BBX 15 19 8 37
BITMAP
03F0
07E0
07C0
0F80
0F80
1F00
1E00
3C00
3800
0000
0FE0
0FE0
1FF0
1FF0
3EF8
3C78
783C
781E
F01E
ENDCHAR
STARTCHAR 25CF
ENCODING 9679
SWIDTH 620 0
DWIDTH 31 0
BBX 15 19 8 37
BITMAP
1F80
0FC0
07E0
03E0
01F0
00F0
00F8
0078
003C
0000
0FE0
0FE0
1FF0
1FF0
3EF8
3C78
783C
781E
F01E
ENDCHAR
STARTCHAR 25D8
ENCODING 9688
SWIDTH 620 0
DWIDTH 31 0
BBX 19 19 8 37
BITMAP
000F80
001FC0
003FE0
0078E0
0030E0
0000E0
0007E0
0007C0
000780
000600
0FE600
0FE000
1FF000
1FF000
3EF800
3C7800
783C00
781E00
F01E00
ENDCHAR
STARTCHAR 25D9
ENCODING 9689
SWIDTH 620 0
DWIDTH 31 0
BBX 17 17 8 37
BITMAP
000380
0FC700
1FFF00
3FFE00
3FFE00
303800
000000
000000
0FE000
0FE000
1FF000
1FF000
3EF800
3C7800
783C00
781E00
F01E00
ENDCHAR
STARTCHAR F000
ENCODING 61440
SWIDTH 780 0
DWIDTH 39 0
BBX 34 40 3 -1
BITMAP
0000018000
0000078000
00000F8000
00001F8000
00003F8000
00003F0000
00003E0000
00007C0000
0000780000
01FC07F000
07FFBFFC00
0FFFFFFF00
1FFFFFFF80
3FFFFFFF00
7FFFFFFE00
7FFFFFFC00
FFFFFFF800
FFFFFFF800
FFFFFFF000
FFFFFFF000
FFFFFFF000
FFFFFFF000
FFFFFFF000
FFFFFFF000
FFFFFFF800
FFFFFFF800
7FFFFFFC00
7FFFFFFE00
7FFFFFFF00
3FFFFFFFC0
3FFFFFFF80
3FFFFFFF80
1FFFFFFF00
0FFFFFFF00
0FFFFFFE00
07FFFFFC00
03FFFFFC00
01FFFFF800
00FF1FF000
007803C000
ENDCHAR
STARTCHAR F001
ENCODING 61441
SWIDTH 560 0
DWIDTH 28 0
BBX 25 36 2 0
BITMAP
00003C00
01FC7E00
0FFCFF00
1FFCFF80
3FFCFF80
7FFCFF80
7FFCFF00
7FFC7F00
FF803C00
FF000000
FF000000
FFFCFF00
FFFCFF00
FFFCFF00
FFFCFF00
FFFCFF00
FFFCFF00
FFFCFF00
FFFCFF00
FF00FF00
FF00FF00
FF00FF00
FF00FF00
FF00FF00
FF00FF00
FF00FF00
FF00FF00
FF00FF00
FF00FF00
FF00FF00
FF00FF00
FF00FF00
FF00FF00
FF00FF00
FF00FF00
FF00FF00
ENDCHAR
STARTCHAR F002
ENCODING 61442
SWIDTH 560 0
DWIDTH 28 0
BBX 24 35 2 0
BITMAP
01FCFF
0FFCFF
1FFCFF
3FFCFF
7FFCFF
7FFCFF
7FFCFF
FF80FF
FF00FF
FF00FF
FFFCFF
FFFCFF
FFFCFF
FFFCFF
FFFCFF
FFFCFF
FFFCFF
FFFCFF
FF00FF
FF00FF
FF00FF
FF00FF
FF00FF
FF00FF
FF00FF
FF00FF
FF00FF
FF00FF
FF00FF
FF00FF
FF00FF
FF00FF
FF00FF
FF00FF
FF00FF
ENDCHAR
ENDFONT
